<?xml version="1.0" encoding="UTF-8" standalone="no"?>
<!-- Generator: Adobe Illustrator 16.0.0, SVG Export Plug-In . SVG Version: 6.00 Build 0)  -->

<svg
   xmlns:dc="http://purl.org/dc/elements/1.1/"
   xmlns:cc="http://creativecommons.org/ns#"
   xmlns:rdf="http://www.w3.org/1999/02/22-rdf-syntax-ns#"
   xmlns:svg="http://www.w3.org/2000/svg"
   xmlns="http://www.w3.org/2000/svg"
   xmlns:sodipodi="http://sodipodi.sourceforge.net/DTD/sodipodi-0.dtd"
   xmlns:inkscape="http://www.inkscape.org/namespaces/inkscape"
   version="1.1"
   id="Capa_1"
   x="0px"
   y="0px"
   width="278px"
   height="100px"
   viewBox="0 0 278 100"
   enable-background="new 0 0 278 100"
   xml:space="preserve"
   inkscape:version="0.48.4 r9939"
   sodipodi:docname="logounlp.svg"><metadata
     id="metadata219"><rdf:RDF><cc:Work
         rdf:about=""><dc:format>image/svg+xml</dc:format><dc:type
           rdf:resource="http://purl.org/dc/dcmitype/StillImage" /></cc:Work></rdf:RDF></metadata><defs
     id="defs217" /><sodipodi:namedview
     pagecolor="#ffffff"
     bordercolor="#666666"
     borderopacity="1"
     objecttolerance="10"
     gridtolerance="10"
     guidetolerance="10"
     inkscape:pageopacity="0"
     inkscape:pageshadow="2"
     inkscape:window-width="1303"
     inkscape:window-height="744"
     id="namedview215"
     showgrid="false"
     inkscape:zoom="1.0359712"
     inkscape:cx="44.885417"
     inkscape:cy="50"
     inkscape:window-x="57"
     inkscape:window-y="24"
     inkscape:window-maximized="1"
     inkscape:current-layer="g3" /><g
     id="g3"><g
       id="g5"
       transform="translate(-321.4375,70.465278)"><path
         d="m 67.548,39.941 c 0,0.919 -0.287,1.621 -0.861,2.108 -0.574,0.486 -1.391,0.729 -2.45,0.729 h -0.776 v 3.037 H 61.65 v -8.538 h 2.728 c 1.035,0 1.822,0.224 2.362,0.669 0.539,0.447 0.808,1.112 0.808,1.995 z m -4.087,1.355 h 0.595 c 0.557,0 0.973,-0.109 1.25,-0.329 0.276,-0.221 0.415,-0.541 0.415,-0.961 0,-0.424 -0.116,-0.738 -0.347,-0.94 -0.232,-0.202 -0.595,-0.304 -1.089,-0.304 h -0.823 v 2.534 z"
         id="path7"
         inkscape:connector-curvature="0"
         style="fill:#010202" /><path
         d="m 69.16,45.816 v -8.538 h 1.81 v 7.043 h 3.463 v 1.495 H 69.16 z"
         id="path9"
         inkscape:connector-curvature="0"
         style="fill:#010202" /><path
         d="m 81.143,45.816 -0.619,-2.032 h -3.112 l -0.619,2.032 h -1.95 l 3.013,-8.572 h 2.213 l 3.025,8.572 h -1.951 z m -1.051,-3.55 c -0.573,-1.842 -0.895,-2.883 -0.967,-3.124 -0.072,-0.241 -0.124,-0.433 -0.155,-0.572 -0.128,0.498 -0.496,1.73 -1.104,3.696 h 2.226 z"
         id="path11"
         inkscape:connector-curvature="0"
         style="fill:#010202" /><path
         d="m 91.742,45.816 h -2.301 l -3.714,-6.459 h -0.053 c 0.074,1.141 0.111,1.954 0.111,2.441 v 4.018 h -1.618 v -8.538 h 2.283 l 3.708,6.395 H 90.2 c -0.058,-1.109 -0.087,-1.894 -0.087,-2.354 v -4.041 h 1.629 v 8.538 z"
         id="path13"
         inkscape:connector-curvature="0"
         style="fill:#010202" /><path
         d="M 19.068,60.168 H 14.151 V 51.63 h 4.917 v 1.483 h -3.107 v 1.874 h 2.891 v 1.484 h -2.891 v 2.201 h 3.107 v 1.496 z"
         id="path15"
         inkscape:connector-curvature="0"
         style="fill:#010202" /><path
         d="m 25.888,57.797 c 0,0.771 -0.277,1.378 -0.832,1.821 -0.555,0.444 -1.327,0.667 -2.315,0.667 -0.911,0 -1.717,-0.172 -2.417,-0.515 v -1.682 c 0.576,0.257 1.063,0.438 1.462,0.543 0.399,0.104 0.764,0.157 1.095,0.157 0.397,0 0.702,-0.075 0.914,-0.228 0.212,-0.151 0.318,-0.377 0.318,-0.678 0,-0.167 -0.047,-0.315 -0.141,-0.446 -0.093,-0.13 -0.23,-0.256 -0.412,-0.376 -0.181,-0.121 -0.55,-0.313 -1.106,-0.578 -0.522,-0.245 -0.913,-0.481 -1.174,-0.707 -0.261,-0.226 -0.469,-0.488 -0.625,-0.789 -0.156,-0.299 -0.233,-0.649 -0.233,-1.051 0,-0.755 0.256,-1.349 0.768,-1.781 0.512,-0.432 1.22,-0.648 2.123,-0.648 0.444,0 0.867,0.053 1.27,0.158 0.403,0.105 0.825,0.253 1.264,0.444 l -0.583,1.407 c -0.456,-0.188 -0.833,-0.317 -1.13,-0.392 -0.297,-0.075 -0.591,-0.11 -0.879,-0.11 -0.342,0 -0.605,0.079 -0.788,0.238 -0.183,0.16 -0.274,0.368 -0.274,0.625 0,0.16 0.037,0.3 0.111,0.418 0.074,0.119 0.192,0.234 0.354,0.345 0.161,0.111 0.544,0.311 1.147,0.599 0.798,0.382 1.345,0.764 1.642,1.147 0.293,0.385 0.441,0.855 0.441,1.412 z"
         id="path17"
         inkscape:connector-curvature="0"
         style="fill:#010202" /><path
         d="m 30.729,60.168 h -1.81 V 53.137 H 26.601 V 51.63 h 6.447 v 1.507 h -2.319 v 7.031 z"
         id="path19"
         inkscape:connector-curvature="0"
         style="fill:#010202" /><path
         d="m 36.172,56.892 v 3.276 h -1.81 V 51.63 h 2.487 c 1.16,0 2.019,0.211 2.576,0.634 0.556,0.423 0.835,1.063 0.835,1.924 0,0.502 -0.138,0.949 -0.415,1.341 -0.277,0.391 -0.668,0.698 -1.174,0.919 1.285,1.92 2.122,3.16 2.511,3.721 h -2.009 l -2.038,-3.276 h -0.963 z m 0,-1.472 h 0.584 c 0.572,0 0.995,-0.095 1.267,-0.286 0.272,-0.19 0.409,-0.49 0.409,-0.899 0,-0.404 -0.139,-0.692 -0.417,-0.864 -0.278,-0.171 -0.709,-0.257 -1.293,-0.257 h -0.549 v 2.306 z"
         id="path21"
         inkscape:connector-curvature="0"
         style="fill:#010202" /><path
         d="m 47.483,60.168 -0.619,-2.032 h -3.112 l -0.619,2.032 h -1.95 l 3.013,-8.572 h 2.213 l 3.025,8.572 h -1.951 z m -1.05,-3.551 c -0.573,-1.842 -0.895,-2.883 -0.967,-3.124 -0.072,-0.241 -0.124,-0.433 -0.155,-0.572 -0.128,0.498 -0.496,1.73 -1.104,3.696 h 2.226 z"
         id="path23"
         inkscape:connector-curvature="0"
         style="fill:#010202" /><path
         d="m 53.802,60.168 h -1.81 V 53.137 H 49.674 V 51.63 h 6.447 v 1.507 h -2.319 v 7.031 z"
         id="path25"
         inkscape:connector-curvature="0"
         style="fill:#010202" /><path
         d="M 62.351,60.168 H 57.434 V 51.63 h 4.917 v 1.483 h -3.106 v 1.874 h 2.891 v 1.484 h -2.891 v 2.201 h 3.106 v 1.496 z m -3.515,-9.221 v -0.158 c 0.669,-0.778 1.127,-1.364 1.372,-1.758 h 1.997 v 0.123 c -0.202,0.202 -0.548,0.503 -1.037,0.902 -0.489,0.398 -0.871,0.695 -1.147,0.891 h -1.185 z"
         id="path27"
         inkscape:connector-curvature="0"
         style="fill:#010202" /><path
         d="M 67.373,55.373 H 70.76 V 59.8 c -0.549,0.179 -1.066,0.305 -1.55,0.377 -0.485,0.072 -0.98,0.108 -1.487,0.108 -1.289,0 -2.272,-0.379 -2.952,-1.137 -0.68,-0.757 -1.019,-1.844 -1.019,-3.261 0,-1.379 0.395,-2.453 1.183,-3.224 0.789,-0.771 1.881,-1.157 3.279,-1.157 0.876,0 1.721,0.176 2.535,0.526 l -0.602,1.448 c -0.623,-0.312 -1.271,-0.467 -1.945,-0.467 -0.783,0 -1.409,0.263 -1.88,0.788 -0.471,0.525 -0.707,1.232 -0.707,2.119 0,0.927 0.19,1.635 0.569,2.123 0.38,0.489 0.932,0.732 1.656,0.732 0.377,0 0.761,-0.038 1.15,-0.116 V 56.88 h -1.618 v -1.507 z"
         id="path29"
         inkscape:connector-curvature="0"
         style="fill:#010202" /><path
         d="M 72.792,60.168 V 51.63 h 1.81 v 8.538 h -1.81 z"
         id="path31"
         inkscape:connector-curvature="0"
         style="fill:#010202" /><path
         d="m 80.378,53.015 c -0.681,0 -1.209,0.256 -1.583,0.768 -0.374,0.512 -0.561,1.226 -0.561,2.14 0,1.904 0.714,2.855 2.143,2.855 0.599,0 1.326,-0.149 2.178,-0.449 v 1.519 c -0.701,0.292 -1.483,0.438 -2.348,0.438 -1.242,0 -2.192,-0.377 -2.85,-1.131 -0.658,-0.753 -0.987,-1.835 -0.987,-3.243 0,-0.888 0.161,-1.666 0.484,-2.334 0.323,-0.667 0.788,-1.179 1.393,-1.535 0.605,-0.356 1.315,-0.535 2.128,-0.535 0.829,0 1.662,0.201 2.5,0.603 l -0.584,1.471 c -0.319,-0.151 -0.64,-0.284 -0.963,-0.396 -0.321,-0.116 -0.639,-0.171 -0.95,-0.171 z"
         id="path33"
         inkscape:connector-curvature="0"
         style="fill:#010202" /><path
         d="m 92.121,55.888 c 0,1.413 -0.35,2.499 -1.051,3.259 -0.701,0.759 -1.705,1.139 -3.013,1.139 -1.308,0 -2.313,-0.38 -3.013,-1.139 -0.701,-0.76 -1.051,-1.85 -1.051,-3.271 0,-1.422 0.351,-2.506 1.054,-3.256 0.703,-0.749 1.71,-1.125 3.022,-1.125 1.312,0 2.315,0.379 3.01,1.134 0.695,0.756 1.042,1.842 1.042,3.259 z m -6.23,0 c 0,0.953 0.181,1.672 0.543,2.154 0.362,0.482 0.903,0.724 1.624,0.724 1.444,0 2.167,-0.959 2.167,-2.878 0,-1.924 -0.718,-2.885 -2.155,-2.885 -0.72,0 -1.263,0.242 -1.629,0.727 -0.366,0.485 -0.55,1.204 -0.55,2.158 z"
         id="path35"
         inkscape:connector-curvature="0"
         style="fill:#010202" /></g><g
       id="g37"
       transform="translate(-53.090278,-1.9305556)"><path
         d="m 172.107,47.81 c -0.166,0.06 -2.713,0.858 -3.871,1.225 0.357,-2.237 0.5,-6.164 -0.438,-8.958 0.283,-0.053 0.545,-0.105 0.77,-0.162 0.174,-0.041 0.307,-0.192 0.32,-0.375 0.313,-3.521 -0.631,-7.255 -2.654,-10.975 -2.209,-4.058 -5.074,-7.275 -8.657,-8.747 -0.181,-0.076 -0.388,-0.015 -0.505,0.144 -0.203,0.278 -0.498,0.673 -0.832,1.113 -2.058,-1.38 -5.54,-2.938 -10.136,-2.938 -4.477,0 -8.099,1.614 -10.103,2.938 -0.283,-0.376 -0.533,-0.708 -0.712,-0.949 -0.112,-0.161 -0.321,-0.22 -0.503,-0.146 -3.583,1.468 -6.44,4.527 -8.646,8.585 -2.023,3.72 -2.973,7.479 -2.666,11.001 0.02,0.181 0.147,0.332 0.326,0.377 0.215,0.054 0.467,0.102 0.736,0.155 -0.965,2.772 -1.014,6.574 -0.673,8.769 -0.078,-0.018 -0.149,-0.035 -0.208,-0.053 -3.286,-0.842 -3.292,-0.842 -3.383,-0.842 -0.19,0 -0.357,0.13 -0.406,0.313 -0.83,3.051 -0.192,13.811 5.992,21.899 3.186,4.162 7.636,7.072 12.704,8.471 -0.306,0.639 -0.783,1.537 -1.066,2.029 -0.063,0.112 -0.065,0.247 -0.012,0.36 0.056,0.109 0.185,0.104 0.305,0.123 1.594,0.231 4.182,0.7 4.407,0.708 0.171,0.037 0.377,-0.032 0.505,-0.173 0.265,-0.288 0.564,-1.085 0.852,-2.136 0.859,0.063 2.036,0.021 2.935,0.021 h 0.015 c 0.742,0 1.813,0.053 2.526,0.004 0.286,1.04 0.583,1.822 0.845,2.11 0.128,0.141 0.332,0.21 0.503,0.173 0.224,-0.008 2.625,-0.509 4.219,-0.742 0.121,-0.02 0.247,-0.008 0.301,-0.125 0.061,-0.112 0.053,-0.247 -0.008,-0.354 -0.278,-0.49 -0.738,-1.291 -1.04,-1.914 4.897,-1.392 9.388,-4.373 12.569,-8.572 6.449,-8.504 6.959,-19.602 6.264,-22.082 l -0.575,-0.275 z"
         id="path39"
         inkscape:connector-curvature="0"
         style="fill:#ffffff" /><path
         d="m 157.805,24.228 c 0.127,0.07 0.262,0.112 0.394,0.123 0.017,0.003 0.033,0.003 0.054,0.003 0.117,0 0.237,-0.032 0.361,-0.095 0.133,-0.07 0.27,-0.194 0.412,-0.369 0.141,-0.177 0.229,-0.335 0.271,-0.484 0.041,-0.147 0.043,-0.288 0.006,-0.417 -0.035,-0.131 -0.107,-0.249 -0.207,-0.359 -0.092,-0.1 -0.203,-0.206 -0.328,-0.304 l -0.33,-0.268 -1.327,1.656 0.325,0.257 c 0.124,0.098 0.246,0.186 0.369,0.257 m 0.789,-1.657 0.084,0.066 c 0.094,0.074 0.154,0.149 0.189,0.223 0.033,0.074 0.049,0.145 0.043,0.219 -0.01,0.075 -0.035,0.158 -0.078,0.238 -0.047,0.088 -0.107,0.181 -0.182,0.272 -0.172,0.215 -0.335,0.338 -0.486,0.362 -0.027,0.003 -0.049,0.008 -0.074,0.008 -0.125,0 -0.256,-0.057 -0.393,-0.164 l -0.05,-0.042 0.947,-1.182 z"
         id="path41"
         inkscape:connector-curvature="0"
         style="fill:#010202" /><polygon
         points="159.467,25.421 158.932,24.88 159.387,24.438 159.754,24.813 159.975,24.597 159.611,24.217 159.984,23.847 160.482,24.354 160.719,24.126 159.904,23.297 158.395,24.78 159.244,25.647 "
         id="polygon43"
         style="fill:#010202" /><polygon
         points="161.137,27.493 160.688,26.9 162.113,25.818 161.834,25.45 160.146,26.728 160.875,27.69 "
         id="polygon45"
         style="fill:#010202" /><path
         d="m 161.1,28.028 0.66,-0.158 0.338,0.515 -0.398,0.554 0.27,0.41 1.309,-1.864 -0.182,-0.275 -2.213,0.494 0.216,0.324 z m 1.511,-0.349 -0.318,0.449 -0.219,-0.328 0.537,-0.121 z"
         id="path47"
         inkscape:connector-curvature="0"
         style="fill:#010202" /><path
         d="m 162.922,31.079 0.83,-0.422 0.014,0.036 c 0.045,0.08 0.088,0.165 0.135,0.249 0.055,0.092 0.119,0.172 0.195,0.236 0.076,0.072 0.166,0.116 0.268,0.138 0.025,0.003 0.047,0.006 0.078,0.006 0.084,0 0.174,-0.023 0.277,-0.077 0.125,-0.064 0.217,-0.144 0.264,-0.24 0.047,-0.091 0.064,-0.187 0.059,-0.289 -0.012,-0.094 -0.037,-0.188 -0.078,-0.289 -0.039,-0.086 -0.08,-0.171 -0.121,-0.25 l -0.236,-0.461 -0.086,0.046 c 0,0 -0.229,0.117 -0.268,0.138 l -1.533,0.782 0.202,0.397 z m 1.619,-0.827 0.068,0.141 c 0.051,0.098 0.068,0.183 0.055,0.257 -0.01,0.063 -0.068,0.121 -0.164,0.168 -0.059,0.032 -0.111,0.05 -0.166,0.046 -0.043,0 -0.076,-0.014 -0.109,-0.039 -0.037,-0.024 -0.068,-0.063 -0.096,-0.11 -0.033,-0.052 -0.068,-0.108 -0.094,-0.167 l -0.016,-0.029 0.522,-0.267 z"
         id="path49"
         inkscape:connector-curvature="0"
         style="fill:#010202" /><polygon
         points="164.217,33.134 163.924,32.443 165.57,31.742 165.389,31.319 163.441,32.146 163.912,33.26 "
         id="polygon51"
         style="fill:#010202" /><path
         d="m 164.082,33.719 0.68,0.016 0.199,0.577 -0.527,0.442 0.16,0.464 1.734,-1.476 -0.105,-0.311 -2.264,-0.081 0.123,0.369 z m 1.553,0.048 -0.424,0.35 -0.127,-0.374 0.551,0.024 z"
         id="path53"
         inkscape:connector-curvature="0"
         style="fill:#010202" /><polygon
         points="164.66,35.525 164.771,35.955 166.518,35.518 166.67,36.113 166.977,36.029 166.561,34.401 166.258,34.479 166.404,35.081 "
         id="polygon55"
         style="fill:#010202" /><path
         d="m 164.936,36.674 0.668,0.131 0.096,0.602 -0.592,0.346 0.078,0.485 1.961,-1.154 -0.051,-0.33 -2.219,-0.463 0.059,0.383 z m 1.523,0.309 -0.477,0.275 -0.063,-0.392 0.54,0.117 z"
         id="path57"
         inkscape:connector-curvature="0"
         style="fill:#010202" /><path
         d="m 139.133,21.739 0.653,1.48 0.341,-0.15 -0.552,-1.25 1.293,0.921 0.368,-0.158 -0.821,-1.865 -0.34,0.153 0.503,1.146 -1.185,-0.847 -0.43,0.188 0.042,0.088 c -0.001,-0.001 0.106,0.245 0.128,0.294"
         id="path59"
         inkscape:connector-curvature="0"
         style="fill:#010202" /><path
         d="m 141.941,21.743 0.562,-0.144 0.382,0.535 0.464,-0.119 -1.287,-1.773 -0.311,0.081 -0.242,2.164 0.373,-0.091 0.059,-0.653 z m 0.095,-0.82 0.294,0.415 -0.354,0.092 0.06,-0.507 z"
         id="path61"
         inkscape:connector-curvature="0"
         style="fill:#010202" /><path
         d="m 143.366,21.36 c 0.052,0.134 0.125,0.244 0.213,0.335 0.085,0.091 0.193,0.159 0.311,0.204 0.092,0.039 0.194,0.053 0.299,0.053 0.029,0 0.056,0 0.091,-0.003 0.049,-0.008 0.101,-0.014 0.152,-0.025 0.053,-0.01 0.097,-0.022 0.138,-0.035 0.041,-0.012 0.079,-0.022 0.107,-0.028 0.036,-0.014 0.06,-0.021 0.075,-0.028 l 0.058,-0.029 -0.047,-0.426 -0.131,0.081 c -0.039,0.025 -0.09,0.055 -0.146,0.088 -0.058,0.027 -0.127,0.049 -0.213,0.063 -0.012,0 -0.027,0 -0.039,0 -0.062,0 -0.117,-0.01 -0.17,-0.038 -0.059,-0.032 -0.113,-0.078 -0.155,-0.142 -0.046,-0.067 -0.087,-0.148 -0.118,-0.243 -0.028,-0.098 -0.05,-0.209 -0.061,-0.327 -0.008,-0.11 -0.012,-0.213 -0.011,-0.3 0,-0.079 0.011,-0.144 0.029,-0.201 0.021,-0.046 0.049,-0.085 0.088,-0.112 0.042,-0.032 0.108,-0.051 0.194,-0.06 0.041,-0.004 0.086,-0.008 0.127,-0.004 0.045,0 0.087,0.007 0.127,0.01 0.04,0.007 0.076,0.015 0.104,0.022 0.036,0.006 0.063,0.013 0.085,0.02 l 0.135,0.039 -0.049,-0.405 -0.075,-0.01 c -0.045,-0.003 -0.104,-0.007 -0.182,-0.007 h -0.025 c -0.071,0 -0.149,0.004 -0.229,0.015 -0.305,0.029 -0.523,0.134 -0.645,0.321 -0.123,0.178 -0.167,0.428 -0.137,0.742 0.017,0.159 0.047,0.302 0.1,0.43"
         id="path63"
         inkscape:connector-curvature="0"
         style="fill:#010202" /><rect
         x="144.31799"
         y="20.604"
         transform="matrix(0.0634,0.998,-0.998,0.0634,156.9032,-125.5425)"
         width="2.0339999"
         height="0.43099999"
         id="rect65"
         style="fill:#010202" /><path
         d="m 146.199,21.525 c 0.064,0.099 0.151,0.18 0.261,0.235 0.107,0.058 0.242,0.085 0.4,0.089 h 0.066 c 0.126,-0.004 0.235,-0.028 0.327,-0.067 0.107,-0.05 0.197,-0.124 0.268,-0.219 0.061,-0.091 0.112,-0.2 0.142,-0.327 0.026,-0.127 0.044,-0.265 0.045,-0.416 0.003,-0.142 -0.006,-0.278 -0.03,-0.399 -0.024,-0.129 -0.065,-0.242 -0.126,-0.337 -0.063,-0.102 -0.149,-0.18 -0.256,-0.24 -0.104,-0.056 -0.24,-0.084 -0.396,-0.087 -0.154,-0.003 -0.289,0.017 -0.398,0.068 -0.108,0.048 -0.194,0.119 -0.262,0.218 -0.068,0.087 -0.12,0.2 -0.147,0.331 -0.032,0.119 -0.043,0.261 -0.048,0.415 0,0.141 0.009,0.275 0.031,0.399 0.017,0.126 0.063,0.238 0.123,0.337 m 0.316,-0.729 c 0,-0.096 0.007,-0.187 0.016,-0.282 0.007,-0.092 0.025,-0.175 0.056,-0.246 0.025,-0.068 0.063,-0.121 0.116,-0.163 0.042,-0.036 0.096,-0.054 0.168,-0.054 h 0.025 c 0.085,0 0.146,0.023 0.192,0.064 0.045,0.045 0.082,0.102 0.107,0.173 0.025,0.076 0.04,0.161 0.044,0.25 0.005,0.099 0.005,0.19 0.003,0.271 -0.003,0.091 -0.008,0.187 -0.018,0.283 -0.01,0.091 -0.026,0.172 -0.057,0.246 -0.025,0.067 -0.064,0.12 -0.112,0.163 -0.041,0.034 -0.092,0.048 -0.163,0.052 h -0.027 c -0.087,0 -0.153,-0.025 -0.194,-0.065 -0.051,-0.045 -0.085,-0.102 -0.112,-0.171 -0.022,-0.078 -0.039,-0.163 -0.043,-0.251 -0.005,-0.102 -0.006,-0.189 -0.001,-0.27"
         id="path67"
         inkscape:connector-curvature="0"
         style="fill:#010202" /><path
         d="m 148.533,20.584 0.594,1.477 0.396,0.06 0.309,-2.011 -0.37,-0.058 -0.19,1.24 -0.542,-1.353 -0.469,-0.073 -0.015,0.095 c 0,0 -0.035,0.264 -0.043,0.32 l -0.247,1.596 0.37,0.061 0.207,-1.354 z"
         id="path69"
         inkscape:connector-curvature="0"
         style="fill:#010202" /><path
         d="m 150.12,22.279 0.387,-0.525 0.557,0.167 0.057,0.65 0.455,0.138 -0.195,-2.181 -0.309,-0.092 -1.318,1.733 0.366,0.11 z m 0.888,-1.184 0.042,0.509 -0.35,-0.102 0.308,-0.407 z"
         id="path71"
         inkscape:connector-curvature="0"
         style="fill:#010202" /><polygon
         points="152.313,22.672 152.999,21.103 152.587,20.923 151.773,22.79 152.838,23.255 152.965,22.959 "
         id="polygon73"
         style="fill:#010202" /><path
         d="m 126.522,38.363 h 0.011 c 0.098,0 0.192,-0.02 0.271,-0.059 0.087,-0.041 0.162,-0.113 0.22,-0.212 0.056,-0.091 0.096,-0.218 0.119,-0.384 0.023,-0.172 0.02,-0.313 -0.014,-0.423 -0.033,-0.112 -0.091,-0.203 -0.166,-0.271 -0.072,-0.063 -0.157,-0.108 -0.252,-0.138 -0.087,-0.021 -0.174,-0.041 -0.262,-0.052 l -1.253,-0.18 -0.06,0.398 1.284,0.183 c 0.063,0.009 0.126,0.021 0.192,0.033 0.055,0.013 0.1,0.03 0.142,0.063 0.037,0.026 0.067,0.067 0.087,0.116 0.012,0.036 0.023,0.103 0.008,0.229 -0.01,0.081 -0.037,0.138 -0.072,0.172 -0.04,0.036 -0.081,0.062 -0.131,0.072 -0.056,0.018 -0.113,0.021 -0.172,0.018 -0.067,-0.005 -0.125,-0.012 -0.171,-0.018 l -1.268,-0.181 -0.061,0.443 1.253,0.166 c 0.106,0.019 0.205,0.025 0.295,0.025"
         id="path75"
         inkscape:connector-curvature="0"
         style="fill:#010202" /><path
         d="m 125.754,36.042 1.571,0.381 0.086,-0.359 -1.329,-0.326 1.521,-0.468 0.093,-0.387 -1.98,-0.477 -0.085,0.362 1.22,0.292 -1.395,0.431 -0.104,0.455 0.088,0.025 c 0,0.002 0.26,0.062 0.314,0.071"
         id="path77"
         inkscape:connector-curvature="0"
         style="fill:#010202" /><rect
         x="125.926"
         y="33.703999"
         transform="matrix(0.9537,0.3008,-0.3008,0.9537,16.0805,-36.6107)"
         width="2.0339999"
         height="0.43200001"
         id="rect79"
         style="fill:#010202" /><polygon
         points="126.785,31.347 126.654,31.692 127.745,32.661 126.292,32.65 126.124,33.102 128.333,33.09 128.437,32.816 "
         id="polygon81"
         style="fill:#010202" /><polygon
         points="128.983,30.699 128.682,31.357 128.14,31.112 128.35,30.649 128.073,30.527 127.86,30.981 127.409,30.772 127.692,30.153 127.4,30.019 126.931,31.036 128.782,31.89 129.268,30.83 "
         id="polygon83"
         style="fill:#010202" /><path
         d="m 129.628,30.146 -0.784,-0.435 1.057,-0.052 0.241,-0.438 -1.117,0.053 c 0.006,-0.017 0.011,-0.036 0.015,-0.056 0.013,-0.07 0.018,-0.138 0.006,-0.208 -0.01,-0.071 -0.036,-0.137 -0.078,-0.197 -0.04,-0.063 -0.102,-0.119 -0.186,-0.161 -0.096,-0.057 -0.191,-0.085 -0.286,-0.085 -0.083,0 -0.163,0.021 -0.236,0.06 -0.064,0.039 -0.128,0.095 -0.182,0.166 -0.051,0.063 -0.099,0.138 -0.144,0.215 l -0.297,0.532 1.782,0.987 0.209,-0.381 z m -0.985,-0.712 c -0.019,0.046 -0.044,0.091 -0.064,0.13 l -0.471,-0.26 0.051,-0.091 c 0.022,-0.043 0.049,-0.082 0.079,-0.116 0.026,-0.029 0.052,-0.05 0.087,-0.067 0.029,-0.015 0.057,-0.022 0.09,-0.022 h 0.001 c 0.034,0 0.072,0.015 0.113,0.039 0.069,0.035 0.113,0.074 0.13,0.112 0.02,0.042 0.027,0.085 0.027,0.13 -0.008,0.049 -0.02,0.096 -0.043,0.145"
         id="path85"
         inkscape:connector-curvature="0"
         style="fill:#010202" /><path
         d="m 128.976,28.258 c 0.091,0.06 0.187,0.09 0.276,0.09 h 0.016 c 0.087,-0.003 0.176,-0.021 0.263,-0.056 0.081,-0.031 0.159,-0.07 0.235,-0.12 0.068,-0.044 0.139,-0.081 0.206,-0.113 0.064,-0.031 0.124,-0.049 0.181,-0.055 0.043,-0.007 0.088,0.006 0.131,0.035 0.075,0.046 0.112,0.103 0.119,0.161 0.009,0.068 -0.018,0.146 -0.074,0.231 -0.021,0.035 -0.049,0.064 -0.078,0.098 -0.032,0.031 -0.062,0.063 -0.09,0.088 -0.035,0.028 -0.063,0.05 -0.094,0.074 -0.026,0.021 -0.056,0.04 -0.078,0.054 l -0.131,0.077 0.341,0.226 0.054,-0.046 c 0.01,-0.007 0.032,-0.025 0.056,-0.049 0.024,-0.026 0.047,-0.053 0.077,-0.085 0.031,-0.032 0.06,-0.067 0.091,-0.106 0.035,-0.042 0.065,-0.084 0.093,-0.126 0.055,-0.081 0.1,-0.166 0.13,-0.249 0.033,-0.093 0.051,-0.186 0.048,-0.27 -0.002,-0.09 -0.022,-0.179 -0.062,-0.261 -0.043,-0.079 -0.112,-0.155 -0.205,-0.218 -0.096,-0.064 -0.196,-0.095 -0.298,-0.095 -0.096,0 -0.187,0.021 -0.273,0.052 -0.086,0.036 -0.17,0.075 -0.248,0.127 -0.076,0.045 -0.144,0.084 -0.209,0.12 -0.064,0.032 -0.124,0.049 -0.18,0.06 -0.042,0.007 -0.081,0 -0.122,-0.028 -0.044,-0.028 -0.067,-0.067 -0.072,-0.118 -0.003,-0.059 0.015,-0.118 0.059,-0.187 0.027,-0.038 0.051,-0.07 0.081,-0.102 0.028,-0.031 0.062,-0.06 0.09,-0.084 0.029,-0.024 0.056,-0.05 0.082,-0.064 l 0.188,-0.13 -0.339,-0.225 -0.053,0.052 c -0.036,0.028 -0.076,0.074 -0.125,0.131 -0.055,0.06 -0.106,0.13 -0.157,0.208 -0.113,0.171 -0.171,0.341 -0.165,0.495 0.002,0.168 0.082,0.304 0.236,0.408"
         id="path87"
         inkscape:connector-curvature="0"
         style="fill:#010202" /><rect
         x="129.483"
         y="26.702999"
         transform="matrix(0.7946,0.6072,-0.6072,0.7946,43.1554,-73.7087)"
         width="2.0350001"
         height="0.43099999"
         id="rect89"
         style="fill:#010202" /><path
         d="m 131.997,26.686 c 0.104,-0.113 0.19,-0.224 0.263,-0.338 0.079,-0.12 0.128,-0.246 0.143,-0.37 0.02,-0.133 0,-0.268 -0.063,-0.404 -0.061,-0.134 -0.17,-0.271 -0.329,-0.417 -0.165,-0.148 -0.309,-0.239 -0.447,-0.289 -0.142,-0.045 -0.278,-0.055 -0.408,-0.027 -0.123,0.027 -0.239,0.084 -0.35,0.175 -0.105,0.084 -0.21,0.187 -0.31,0.299 l -0.276,0.304 1.513,1.363 0.264,-0.296 z m -1.203,-1.265 c 0.077,-0.08 0.148,-0.136 0.222,-0.165 0.069,-0.028 0.138,-0.035 0.207,-0.023 0.073,0.009 0.149,0.038 0.225,0.083 0.081,0.05 0.166,0.113 0.247,0.187 0.193,0.176 0.302,0.338 0.317,0.482 0.02,0.145 -0.038,0.286 -0.174,0.434 l -0.038,0.043 -1.068,-0.966 0.062,-0.075 z"
         id="path91"
         inkscape:connector-curvature="0"
         style="fill:#010202" /><path
         d="m 133.072,25.552 -0.23,-0.609 0.44,-0.38 0.579,0.305 0.36,-0.313 -1.938,-1.012 -0.245,0.212 0.746,2.044 0.288,-0.247 z m -0.512,-1.388 0.449,0.242 -0.275,0.241 -0.174,-0.483 z"
         id="path93"
         inkscape:connector-curvature="0"
         style="fill:#010202" /><path
         d="m 134.714,24.244 c 0.127,-0.08 0.244,-0.167 0.344,-0.253 0.109,-0.099 0.187,-0.205 0.239,-0.319 0.05,-0.121 0.066,-0.258 0.042,-0.406 -0.022,-0.146 -0.088,-0.306 -0.209,-0.494 -0.116,-0.182 -0.23,-0.313 -0.351,-0.394 -0.121,-0.084 -0.252,-0.13 -0.381,-0.138 -0.127,-0.004 -0.257,0.022 -0.387,0.078 -0.123,0.053 -0.252,0.12 -0.379,0.204 l -0.349,0.222 1.095,1.716 0.336,-0.216 z m -0.821,-1.535 c 0.094,-0.063 0.181,-0.095 0.258,-0.106 0.075,-0.006 0.144,0.003 0.205,0.032 0.068,0.028 0.132,0.077 0.193,0.145 0.066,0.07 0.131,0.151 0.188,0.247 0.142,0.222 0.202,0.406 0.179,0.549 -0.023,0.142 -0.116,0.261 -0.287,0.371 l -0.044,0.027 -0.775,-1.215 0.083,-0.05 z"
         id="path95"
         inkscape:connector-curvature="0"
         style="fill:#010202" /><path
         d="m 147.29,34.396 c 0.111,0.013 0.18,0.196 0.614,0.2 0.335,0.003 0.38,-0.205 0.423,-0.216 0.022,-0.007 0.045,-0.01 0.062,-0.039 -0.02,-0.035 -0.215,-0.109 -0.489,-0.12 -0.357,-0.01 -0.666,0.102 -0.7,0.134 0.025,0.018 0.045,0.033 0.09,0.041"
         id="path97"
         inkscape:connector-curvature="0"
         style="fill:#010202" /><path
         d="m 146.436,32.572 c 0.076,-0.013 0.153,-0.042 0.228,-0.049 0.101,-0.007 0.18,0 0.266,0.06 0.02,0.021 0.083,0.134 0.234,0.131 0.076,0.003 0.17,-0.028 0.202,-0.121 0.047,-0.031 0.153,0.036 0.18,0.014 0.063,-0.014 0.101,-0.069 0.131,-0.116 0.026,-0.042 0.069,-0.116 0.026,-0.166 -0.757,-0.42 -1.35,0.217 -1.35,0.217 -0.027,0.059 0.007,0.049 0.083,0.03"
         id="path99"
         inkscape:connector-curvature="0"
         style="fill:#010202" /><path
         d="m 153.854,48.426 c -0.024,0.058 0.01,0.046 0.088,0.021 0.073,-0.021 0.29,-0.067 0.428,-0.035 0.063,0.014 0.119,0.151 0.314,0.131 0.068,0 0.168,-0.104 0.197,-0.184 0.055,-0.051 0.242,-0.105 0.267,-0.113 0.062,-0.014 0.077,-0.108 -0.011,-0.159 -0.793,-0.316 -1.283,0.339 -1.283,0.339"
         id="path101"
         inkscape:connector-curvature="0"
         style="fill:#046062" /><path
         d="m 135.526,48.813 c -0.063,0.095 -0.092,0.209 -0.092,0.272 0.002,0.06 0.099,0.041 0.124,0.027 0.03,-0.019 0.051,-0.035 0.066,-0.043 0.027,-0.01 0.052,-0.006 0.052,-0.006 0,0 0.021,0.042 0.051,0.055 0.034,0.018 0.068,0.015 0.068,0.015 0,0 0.059,0.003 0.095,-0.021 0.022,-0.015 0.064,-0.064 0.074,-0.139 0.008,-0.077 0.083,-0.095 0.142,-0.176 0.069,-0.094 0.153,-0.271 0.122,-0.278 -0.323,-0.047 -0.531,0.044 -0.702,0.294"
         id="path103"
         inkscape:connector-curvature="0"
         style="fill:#046062" /><path
         d="m 154.979,50.082 c 0.104,0.011 0.179,0.18 0.591,0.161 0.315,-0.01 0.352,-0.207 0.391,-0.222 0.02,-0.007 0.043,-0.01 0.056,-0.035 -0.015,-0.032 -0.206,-0.1 -0.462,-0.092 -0.346,0 -0.629,0.123 -0.658,0.155 0.024,0.014 0.042,0.028 0.082,0.033"
         id="path105"
         inkscape:connector-curvature="0"
         style="fill:#046062" /><path
         d="m 173.193,47.645 c -0.061,-0.229 -0.299,-0.364 -0.527,-0.301 -0.016,0.005 -0.037,0.013 -0.057,0.02 -0.168,0.058 -2.762,0.872 -3.943,1.246 0.367,-2.275 0.48,-5.464 -0.477,-8.308 0.289,-0.054 0.553,-0.109 0.783,-0.163 0.184,-0.045 0.314,-0.199 0.33,-0.383 0.313,-3.582 -0.688,-7.81 -2.748,-11.594 -2.246,-4.132 -5.49,-7.229 -9.139,-8.723 -0.184,-0.078 -0.395,-0.018 -0.512,0.145 -0.207,0.282 -0.506,0.684 -0.847,1.131 -2.097,-1.403 -5.441,-2.921 -10.113,-2.921 -4.554,0 -7.778,1.409 -9.818,2.754 -0.287,-0.38 -0.538,-0.717 -0.719,-0.964 -0.118,-0.163 -0.333,-0.223 -0.515,-0.145 -3.646,1.493 -6.892,4.591 -9.137,8.723 -2.061,3.784 -3.064,8.012 -2.749,11.594 0.017,0.184 0.148,0.338 0.33,0.383 0.222,0.054 0.472,0.108 0.75,0.155 -0.983,2.823 -0.9,5.962 -0.555,8.195 -0.077,-0.021 -0.149,-0.04 -0.21,-0.057 -3.345,-0.852 -3.348,-0.852 -3.438,-0.852 -0.197,0 -0.365,0.13 -0.419,0.316 -0.84,3.1 -0.291,14.385 6.003,22.613 3.243,4.241 7.475,7.084 12.632,8.504 -0.313,0.648 -0.664,1.301 -0.949,1.807 -0.066,0.11 -0.066,0.246 -0.013,0.363 0.057,0.111 0.189,0.105 0.309,0.124 1.623,0.239 4.717,1.013 4.945,1.025 0.177,0.035 0.383,-0.035 0.514,-0.181 0.27,-0.297 0.571,-1.106 0.864,-2.174 0.877,0.068 1.773,0.103 2.691,0.103 h 0.015 c 0.757,0 1.494,-0.028 2.219,-0.074 0.293,1.055 0.595,1.854 0.861,2.146 0.131,0.146 0.336,0.216 0.51,0.181 0.232,-0.013 3.328,-0.786 4.95,-1.025 0.121,-0.019 0.25,-0.013 0.307,-0.124 0.058,-0.117 0.053,-0.253 -0.01,-0.363 -0.287,-0.499 -0.629,-1.141 -0.938,-1.782 4.984,-1.41 9.129,-4.27 12.367,-8.544 6.567,-8.651 7.16,-20.325 6.453,-22.85 m -4.679,1.878 c 0.08,0 0.133,0.026 0.176,0.086 0.098,0.128 -0.102,0.511 -0.279,0.849 -0.254,0.502 -0.521,1.016 -0.188,1.209 0.043,0.021 0.1,0.035 0.176,0.035 0.055,0 0.111,-0.004 0.172,-0.01 0.064,-0.007 0.129,-0.011 0.193,-0.011 0.219,0 0.326,0.069 0.367,0.242 0.064,0.293 -0.064,0.461 -0.289,0.708 -0.1,0.105 -0.248,0.227 -0.406,0.353 -0.398,0.32 -0.848,0.681 -0.738,1.046 0.049,0.157 0.154,0.233 0.25,0.304 0.098,0.066 0.178,0.122 0.193,0.253 0.016,0.12 -0.338,0.539 -0.73,0.97 -0.088,-0.146 -0.217,-0.262 -0.377,-0.342 -0.008,-0.004 -0.014,-0.008 -0.014,-0.008 l -0.098,-0.038 c -0.018,-0.008 -0.031,-0.012 -0.051,-0.018 0.252,-1.511 0.381,-3.106 0.244,-4.03 -0.006,-0.041 -0.012,-0.086 -0.02,-0.128 -0.029,-0.365 -0.314,-0.379 -0.348,-0.049 0,0.027 -0.006,0.06 -0.006,0.096 -0.064,0.865 -0.328,2.625 -0.631,4.209 -0.205,0.115 -0.389,0.293 -0.541,0.497 -0.635,-1.03 -0.748,-1.371 -0.717,-1.462 0.037,-0.123 0.125,-0.165 0.234,-0.214 0.104,-0.047 0.221,-0.104 0.297,-0.251 0.176,-0.339 -0.199,-0.774 -0.535,-1.163 -0.135,-0.151 -0.26,-0.294 -0.334,-0.418 -0.152,-0.244 -0.281,-0.456 -0.154,-0.752 0.057,-0.127 0.143,-0.183 0.275,-0.183 0.1,0 0.207,0.026 0.316,0.056 0.135,0.039 0.26,0.071 0.344,0.039 0.236,-0.084 0.248,-0.344 0.184,-0.665 -0.035,-0.177 -0.096,-0.367 -0.154,-0.557 -0.109,-0.363 -0.232,-0.775 -0.115,-0.887 0.123,-0.118 0.295,-0.022 0.48,0.094 0.141,0.088 0.287,0.177 0.436,0.177 0.059,0 0.113,-0.015 0.16,-0.039 0.193,-0.101 0.273,-0.496 0.334,-0.896 0.014,-0.063 0.02,-0.115 0.029,-0.151 0.076,-0.348 0.205,-0.527 0.385,-0.545 l 0.061,0.003 h 0.027 c 0.271,0.063 0.305,0.447 0.301,0.613 0,0.039 -0.006,0.099 -0.012,0.172 -0.035,0.392 -0.055,0.782 0.113,0.916 0.064,0.049 0.141,0.075 0.234,0.075 0.08,0 0.168,-0.022 0.256,-0.05 0.047,-0.014 0.1,-0.031 0.146,-0.045 0.127,-0.043 0.25,-0.09 0.354,-0.09 m -0.557,6.897 c 0.17,0 0.313,0.144 0.313,0.316 0,0.172 -0.143,0.316 -0.313,0.316 -0.176,0 -0.318,-0.144 -0.318,-0.316 0,-0.172 0.142,-0.316 0.318,-0.316 m -1.545,3.395 c 0.061,0.074 0.18,0.108 0.314,0.148 0.289,0.081 0.475,0.154 0.441,0.414 -0.045,0.314 -0.264,0.432 -0.518,0.562 -0.127,0.067 -0.313,0.127 -0.506,0.187 -0.482,0.159 -1.037,0.334 -1.061,0.718 -0.012,0.162 0.064,0.272 0.129,0.371 0.068,0.1 0.119,0.175 0.088,0.302 -0.025,0.113 -0.469,0.377 -1.32,0.794 0.018,-0.074 0.033,-0.153 0.035,-0.229 0.008,-0.174 -0.031,-0.331 -0.105,-0.476 0.789,-1.384 1.449,-2.903 1.605,-3.808 0.102,-0.357 -0.08,-0.48 -0.229,-0.177 -0.268,0.79 -1.053,2.201 -1.865,3.544 -0.109,-0.043 -0.225,-0.068 -0.35,-0.068 -0.221,0 -0.447,0.075 -0.66,0.182 -0.148,-0.859 -0.133,-1.139 -0.08,-1.201 0.082,-0.105 0.178,-0.11 0.297,-0.121 0.115,-0.009 0.246,-0.017 0.373,-0.125 0.281,-0.258 0.08,-0.801 -0.094,-1.279 -0.072,-0.191 -0.137,-0.372 -0.166,-0.512 -0.057,-0.282 -0.104,-0.524 0.121,-0.758 0.064,-0.063 0.133,-0.1 0.207,-0.1 0.127,0 0.264,0.104 0.391,0.192 0.111,0.085 0.211,0.154 0.32,0.158 0.375,0 0.412,-0.578 0.451,-1.131 0.025,-0.383 0.053,-0.814 0.201,-0.871 0.16,-0.069 0.287,0.086 0.42,0.255 0.137,0.183 0.283,0.366 0.506,0.342 0.217,-0.026 0.43,-0.37 0.629,-0.72 0.035,-0.056 0.061,-0.102 0.078,-0.134 0.199,-0.299 0.377,-0.427 0.555,-0.374 l 0.053,0.021 0.059,0.036 c 0.195,0.166 0.094,0.511 0.033,0.654 -0.012,0.04 -0.039,0.091 -0.07,0.159 -0.172,0.352 -0.326,0.715 -0.217,0.898 0.115,0.192 0.363,0.197 0.602,0.204 0.277,0.004 0.453,0.021 0.498,0.184 0.043,0.15 -0.277,0.443 -0.559,0.698 -0.418,0.378 -0.852,0.767 -0.606,1.061 m -2.103,4.428 c 0,0.173 -0.137,0.316 -0.311,0.316 -0.174,0 -0.318,-0.144 -0.318,-0.316 0,-0.172 0.145,-0.314 0.318,-0.314 0.173,0 0.311,0.141 0.311,0.314 m -2.713,2.262 c 0.031,0.092 0.131,0.166 0.244,0.251 0.244,0.173 0.395,0.307 0.271,0.535 -0.15,0.285 -0.396,0.313 -0.678,0.353 -0.125,0.014 -0.324,0.01 -0.541,0 -0.119,-0.005 -0.246,-0.008 -0.367,-0.008 -0.344,0 -0.748,0.036 -0.873,0.317 -0.068,0.151 -0.037,0.278 -0.008,0.391 0.031,0.118 0.049,0.209 -0.023,0.317 -0.072,0.11 -0.711,0.204 -1.342,0.272 0.021,-0.166 -0.005,-0.333 -0.071,-0.491 l -0.038,-0.083 c 1.26,-1.048 2.461,-2.298 2.936,-3.119 0.219,-0.296 0.088,-0.475 -0.156,-0.243 -0.57,0.702 -1.961,1.891 -3.289,2.932 -0.131,-0.046 -0.277,-0.071 -0.445,-0.071 -0.094,0 -0.199,0.007 -0.3,0.025 0.2,-1.212 0.335,-1.546 0.415,-1.596 0.101,-0.063 0.204,-0.045 0.317,-0.015 0.124,0.036 0.261,0.064 0.394,0.008 0.357,-0.138 0.354,-0.719 0.354,-1.229 0,-0.204 -0.004,-0.399 0.02,-0.536 0.045,-0.282 0.086,-0.529 0.375,-0.668 0.053,-0.025 0.102,-0.041 0.146,-0.041 0.164,0 0.281,0.177 0.383,0.326 0.082,0.122 0.148,0.225 0.24,0.26 0.037,0.014 0.072,0.021 0.113,0.021 0.297,0 0.506,-0.469 0.707,-0.927 0.152,-0.345 0.328,-0.743 0.498,-0.746 0.16,0 0.217,0.144 0.295,0.386 0.066,0.205 0.141,0.442 0.361,0.491 0.207,0.052 0.531,-0.198 0.84,-0.455 0.047,-0.042 0.086,-0.077 0.115,-0.099 0.307,-0.225 0.529,-0.268 0.668,-0.148 l 0.021,0.021 0.047,-0.037 -0.039,0.049 0.012,0.007 c 0.178,0.227 -0.057,0.544 -0.166,0.666 -0.027,0.027 -0.072,0.073 -0.123,0.121 -0.279,0.276 -0.551,0.56 -0.51,0.773 0.041,0.22 0.271,0.312 0.494,0.398 0.258,0.104 0.414,0.172 0.406,0.342 -0.016,0.161 -0.416,0.319 -0.77,0.461 -0.523,0.212 -1.062,0.427 -0.933,0.789 M 158.271,70 c 0,0.172 -0.142,0.314 -0.315,0.314 -0.178,0 -0.315,-0.143 -0.315,-0.314 0,-0.173 0.138,-0.313 0.315,-0.313 0.174,0 0.315,0.14 0.315,0.313 m -1.725,0.519 c 0.211,0.183 0.333,0.302 0.266,0.458 -0.063,0.147 -0.495,0.164 -0.873,0.184 -0.563,0.021 -1.146,0.044 -1.146,0.429 0,0.098 0.071,0.2 0.15,0.317 0.17,0.246 0.266,0.423 0.076,0.599 -0.115,0.104 -0.238,0.155 -0.394,0.155 -0.11,0 -0.228,-0.025 -0.364,-0.054 -0.139,-0.031 -0.318,-0.102 -0.506,-0.179 -0.307,-0.117 -0.65,-0.254 -0.918,-0.254 -0.153,0 -0.275,0.042 -0.358,0.129 -0.112,0.125 -0.127,0.255 -0.137,0.371 -0.012,0.12 -0.022,0.211 -0.126,0.29 -0.004,0.006 -0.033,0.021 -0.139,0.021 -0.465,0 -1.672,-0.317 -2.286,-0.479 0.159,-0.049 0.314,-0.098 0.472,-0.154 1.729,-0.575 3.614,-1.483 4.433,-2.182 0.306,-0.214 0.241,-0.423 -0.063,-0.282 -0.838,0.512 -2.775,1.243 -4.48,1.8 -0.147,0.054 -0.313,0.106 -0.467,0.155 -0.002,-0.021 -0.002,-0.039 -0.003,-0.063 0.768,-1.455 1.059,-1.796 1.165,-1.816 0.122,-0.028 0.209,0.027 0.303,0.096 0.094,0.063 0.195,0.136 0.35,0.136 h 0.02 c 0.38,-0.014 0.572,-0.559 0.74,-1.042 0.068,-0.191 0.131,-0.373 0.199,-0.497 0.139,-0.25 0.256,-0.473 0.576,-0.509 0.258,-0.026 0.33,0.167 0.402,0.454 0.034,0.136 0.063,0.254 0.14,0.318 0.056,0.047 0.122,0.074 0.194,0.074 0.264,0 0.577,-0.334 0.881,-0.651 0.272,-0.29 0.563,-0.591 0.711,-0.548 0.159,0.055 0.166,0.214 0.156,0.472 -0.004,0.214 -0.014,0.46 0.18,0.581 0.048,0.031 0.111,0.045 0.189,0.045 0.225,0 0.543,-0.116 0.752,-0.199 0.062,-0.021 0.111,-0.041 0.143,-0.047 0.35,-0.111 0.566,-0.085 0.665,0.057 l 0.026,0.045 c 0.002,0.006 0.002,0.01 0.006,0.015 l 0.006,0.021 c 0.091,0.268 -0.232,0.486 -0.379,0.567 -0.033,0.018 -0.086,0.042 -0.154,0.074 -0.357,0.164 -0.709,0.34 -0.74,0.556 -0.033,0.219 0.155,0.381 0.332,0.537 m -10.355,-1.368 c -1.267,0 -2.469,-1.172 -3.092,-2.78 0.449,-0.189 1.842,-0.76 2.01,-0.72 0.188,0.103 0.621,0.283 0.621,0.296 v 2.003 c 0,0.296 0.918,0.346 1.119,0.065 0.008,-0.009 0,-0.489 0,-0.489 -0.134,0.134 -0.504,0.166 -0.559,0.008 -0.005,-0.01 -0.008,-1.395 -0.008,-1.42 0,0 0.106,0.03 0.207,-0.033 0.071,-0.041 0.091,-0.094 0.147,-0.119 0.079,-0.024 0.131,0.03 0.23,-0.021 0.042,-0.023 0.104,-0.095 0.146,-0.112 0.062,-0.023 0.167,0.011 0.219,-0.013 0.051,-0.024 0.105,-0.085 0.153,-0.1 0.074,-0.027 0.17,0.043 0.323,-0.104 0.343,0.132 0.593,0.028 0.688,0.028 0.011,0 0.703,0.305 0.977,0.479 -0.604,1.803 -1.801,3.032 -3.181,3.032 m 0.665,5.047 c -0.447,0.016 -0.701,0.004 -1.151,0 -0.268,-0.532 -0.379,-2.877 -0.113,-3.751 0.604,0 0.766,-0.019 1.264,0 0.24,0.886 0.306,3.209 0,3.751 m -1.799,0.019 c -0.616,-0.022 -1.086,-0.068 -1.172,-0.14 -0.313,-0.279 -0.7,-2.542 0.017,-3.449 0.066,-0.086 0.482,-0.145 1.044,-0.176 -0.319,0.903 -0.414,2.772 0.111,3.765 m 0.314,-15.335 c 0.388,-0.246 1.124,-0.638 1.593,0.038 0.291,0.428 0.698,1.398 0.802,2.058 -1.069,-0.242 -2.151,-0.111 -2.796,0 -0.075,-0.235 0.801,-1.604 1.294,-2.117 -0.47,0 -0.846,0.487 -1.125,0.842 -0.154,0.02 -0.486,-0.282 0.232,-0.821 m -0.106,-1.612 c 0,-0.491 0.435,-0.886 0.977,-0.886 0.538,0 0.974,0.395 0.974,0.886 0,0.054 -0.004,0.1 -0.015,0.15 -0.305,-0.097 -0.623,-0.155 -0.952,-0.155 -0.332,0 -0.656,0.059 -0.968,0.16 -0.014,-0.051 -0.016,-0.102 -0.016,-0.155 m 3.127,6.607 c -0.387,-0.323 -0.942,-0.56 -1.287,-0.55 -0.328,0.007 -0.885,0.273 -0.885,0.273 l -0.001,-2.218 c 0,0 0.231,-0.169 0.439,0 -0.009,-0.004 -0.009,1.082 -0.002,1.082 0.713,0.03 2.407,0.113 3.121,0.366 0.027,0.355 -0.002,1.042 -0.012,1.239 -0.33,-0.04 -0.872,-0.117 -1.373,-0.192 m 1.329,0.651 c -0.045,0.356 -0.108,0.709 -0.191,1.04 -0.398,-0.152 -1.051,-0.381 -1.087,-0.373 -0.204,0.039 -0.321,0.039 -0.499,-0.05 -0.372,-0.223 -0.489,-0.631 -0.841,-0.926 -0.374,0 -0.851,0.238 -1.063,0.204 -0.213,-0.032 -0.181,-0.223 -0.181,-0.223 0.041,-0.021 0.266,-0.109 0.276,-0.115 0.192,-0.206 0.675,-0.374 0.957,-0.399 0,0 0.486,0.039 1.077,0.589 0.393,0.068 1.278,0.214 1.552,0.253 m -3.908,-2.029 -0.005,0.65 c 0,0 -0.7,0.136 -1.206,0.745 -0.163,0.128 -1.376,0.507 -1.932,0.68 -0.042,-0.354 -0.066,-0.724 -0.066,-1.104 0,-0.062 0.002,-0.47 0.003,-0.53 0.503,-0.209 2.259,-0.454 3.206,-0.441 m -0.922,1.71 c 0.313,-0.522 0.917,-0.655 0.917,-0.655 -0.008,0 0,0.313 0,0.304 0,0.003 -0.188,0.111 -0.271,0.237 0,0.209 0.093,0.49 0.306,0.575 0.283,0.112 0.715,0.007 1.016,-0.042 0.092,0.112 0.329,0.534 0.506,0.689 -0.146,0.105 -0.233,0.044 -0.289,0.056 -0.063,0.021 -0.068,0.072 -0.125,0.097 -0.052,0.024 -0.125,0.014 -0.18,0.032 -0.063,0.021 -0.069,0.079 -0.132,0.111 -0.096,0.048 -0.143,-0.013 -0.237,0.026 -0.074,0.026 -0.061,0.119 -0.227,0.069 -0.13,-0.043 -0.28,-0.108 -0.377,-0.161 -0.338,-0.177 -0.47,-0.335 -0.66,-0.347 -0.287,-0.014 -1.77,0.46 -2.213,0.645 -0.09,-0.296 -0.133,-0.525 -0.191,-0.845 0.434,-0.165 2.116,-0.728 2.157,-0.791 m 2.68,6.249 c 0.534,0.037 0.976,0.098 1.065,0.189 0.604,0.593 0.432,2.95 -0.056,3.393 -0.069,0.064 -0.49,0.113 -1.052,0.146 0.39,-0.973 0.458,-2.353 0.043,-3.728 m 0.021,-1.023 c 1.672,-0.858 2.87,-3.225 2.87,-6.012 0,-2.759 -1.159,-4.989 -2.795,-5.813 l 0.717,0.014 c 0,0 0.337,-0.021 0.36,-0.169 0.022,-0.149 -0.3,-0.237 -0.3,-0.237 l -0.79,-0.22 c -0.007,-0.029 -0.015,-0.063 -0.022,-0.093 l 0.678,-0.431 c 0,0 0.271,-0.2 0.209,-0.337 -0.063,-0.134 -0.382,-0.033 -0.382,-0.033 l -0.803,0.258 c -0.029,-0.028 -0.059,-0.06 -0.086,-0.084 l 0.383,-0.727 c 0,0 0.11,-0.263 -0.014,-0.347 -0.122,-0.086 -0.321,0.116 -0.321,0.116 l -0.583,0.64 c -0.046,-0.017 -0.094,-0.028 -0.14,-0.042 l -0.111,-0.849 c 0,0 -0.055,-0.289 -0.204,-0.289 -0.151,0 -0.201,0.289 -0.201,0.289 l -0.108,0.843 c -0.048,0.006 -0.098,0.02 -0.145,0.035 l -0.578,-0.627 c 0,0 -0.217,-0.206 -0.336,-0.121 -0.125,0.089 0.002,0.352 0.002,0.352 l 0.374,0.698 c -0.039,0.032 -0.072,0.063 -0.105,0.099 l -0.807,-0.257 c 0,0 -0.289,-0.07 -0.351,0.063 -0.061,0.138 0.178,0.308 0.178,0.308 l 0.672,0.423 c -0.007,0.038 -0.019,0.074 -0.025,0.108 l -0.808,0.225 c 0,0 -0.321,0.088 -0.3,0.237 0.021,0.147 0.359,0.169 0.359,0.169 l 0.749,-0.014 c -1.648,0.823 -2.843,3.054 -2.843,5.813 0,2.779 1.191,5.14 2.85,6 -0.636,0.104 -1.154,0.281 -1.453,0.5 -1.398,-1.241 -2.483,-3.456 -2.721,-6.12 0,0 0.74,-0.225 0.782,-1.355 0.032,-0.941 -0.782,-1.336 -0.782,-1.336 0.555,-3.551 2.792,-6.604 5.583,-6.604 2.812,0 4.888,2.888 5.473,6.58 0.02,-0.025 -0.698,0.313 -0.654,1.371 0.05,1.166 0.7,1.371 0.7,1.348 -0.223,2.754 -1.32,4.973 -2.694,6.167 -0.28,-0.237 -0.808,-0.429 -1.477,-0.539 m -9.975,0.734 c 0.823,0.698 2.705,1.606 4.43,2.182 0.132,0.045 0.259,0.083 0.384,0.128 -0.64,0.168 -1.71,0.438 -2.137,0.438 -0.108,0 -0.134,-0.015 -0.14,-0.021 -0.104,-0.078 -0.113,-0.174 -0.123,-0.291 -0.015,-0.115 -0.027,-0.245 -0.139,-0.364 -0.085,-0.09 -0.203,-0.137 -0.358,-0.137 -0.268,0 -0.615,0.137 -0.92,0.26 -0.188,0.075 -0.366,0.146 -0.504,0.178 -0.138,0.032 -0.252,0.052 -0.361,0.052 -0.159,0 -0.28,-0.05 -0.398,-0.159 -0.19,-0.177 -0.094,-0.348 0.078,-0.596 0.08,-0.119 0.146,-0.221 0.146,-0.317 0,-0.382 -0.579,-0.407 -1.141,-0.432 -0.381,-0.014 -0.811,-0.032 -0.875,-0.18 -0.067,-0.157 0.054,-0.275 0.265,-0.457 0.181,-0.157 0.368,-0.318 0.335,-0.54 -0.032,-0.216 -0.38,-0.392 -0.739,-0.557 -0.067,-0.03 -0.122,-0.058 -0.159,-0.074 -0.14,-0.08 -0.458,-0.297 -0.38,-0.559 l 0.04,-0.082 c 0.104,-0.151 0.317,-0.173 0.668,-0.067 0.032,0.011 0.082,0.027 0.141,0.053 0.211,0.077 0.525,0.196 0.753,0.196 0.081,0 0.144,-0.012 0.191,-0.041 0.188,-0.123 0.183,-0.369 0.177,-0.585 -0.01,-0.262 -0.005,-0.42 0.157,-0.47 0.147,-0.045 0.438,0.255 0.711,0.543 0.306,0.325 0.619,0.657 0.878,0.657 0.076,0 0.142,-0.029 0.197,-0.078 0.074,-0.063 0.106,-0.179 0.138,-0.318 0.076,-0.284 0.148,-0.479 0.405,-0.45 0.297,0.035 0.417,0.211 0.575,0.509 0.07,0.118 0.132,0.302 0.2,0.494 0.168,0.48 0.359,1.028 0.745,1.044 h 0.016 c 0.155,0 0.256,-0.073 0.347,-0.138 0.097,-0.066 0.18,-0.124 0.305,-0.096 0.11,0.022 0.416,0.389 1.26,1.994 -0.208,-0.06 -0.412,-0.126 -0.622,-0.201 -1.706,-0.557 -3.641,-1.288 -4.482,-1.8 -0.301,-0.141 -0.369,0.068 -0.064,0.282 M 134.616,67.9 c -1.317,-1.033 -2.685,-2.205 -3.253,-2.903 -0.239,-0.231 -0.37,-0.053 -0.152,0.243 0.478,0.824 1.686,2.082 2.955,3.135 -0.081,0.188 -0.099,0.377 -0.059,0.568 -0.655,-0.07 -1.34,-0.169 -1.416,-0.282 -0.073,-0.108 -0.051,-0.199 -0.021,-0.317 0.028,-0.112 0.057,-0.239 -0.006,-0.391 -0.124,-0.281 -0.534,-0.317 -0.872,-0.317 -0.124,0 -0.249,0.003 -0.371,0.008 -0.212,0.01 -0.414,0.014 -0.538,0 -0.285,-0.039 -0.53,-0.067 -0.679,-0.353 -0.125,-0.229 0.026,-0.362 0.269,-0.535 0.113,-0.085 0.214,-0.159 0.246,-0.251 0.129,-0.362 -0.411,-0.577 -0.934,-0.789 -0.353,-0.142 -0.754,-0.3 -0.764,-0.461 -0.015,-0.17 0.142,-0.237 0.403,-0.342 0.221,-0.087 0.452,-0.179 0.493,-0.398 0.042,-0.211 -0.228,-0.497 -0.509,-0.773 -0.055,-0.048 -0.096,-0.094 -0.123,-0.121 -0.112,-0.127 -0.347,-0.439 -0.167,-0.666 l 0.039,-0.039 c 0.15,-0.125 0.364,-0.074 0.668,0.148 0.029,0.021 0.068,0.057 0.117,0.099 0.279,0.231 0.572,0.462 0.783,0.462 0.02,0 0.036,-0.004 0.057,-0.007 0.22,-0.049 0.295,-0.286 0.361,-0.491 0.075,-0.242 0.135,-0.386 0.304,-0.386 l 0,0 c 0.161,0.003 0.333,0.401 0.489,0.746 0.201,0.458 0.41,0.927 0.709,0.927 h 0.002 c 0.036,0 0.074,-0.008 0.111,-0.021 0.087,-0.035 0.159,-0.138 0.238,-0.26 0.102,-0.149 0.22,-0.326 0.383,-0.326 0.043,0 0.094,0.016 0.145,0.041 0.291,0.139 0.329,0.386 0.377,0.668 0.019,0.137 0.019,0.332 0.019,0.536 0,0.511 -0.002,1.092 0.355,1.229 0.133,0.057 0.273,0.028 0.391,-0.008 0.117,-0.03 0.217,-0.049 0.318,0.015 0.081,0.046 0.21,0.369 0.398,1.52 -0.078,-0.014 -0.153,-0.02 -0.228,-0.02 -0.206,-10e-4 -0.385,0.043 -0.538,0.112 m 0.187,2.097 c 0,0.175 -0.143,0.317 -0.314,0.317 -0.171,0 -0.314,-0.143 -0.314,-0.317 0,-0.174 0.144,-0.313 0.314,-0.313 0.172,0 0.314,0.139 0.314,0.313 m -8.007,-11.199 c 0.16,0.904 0.818,2.424 1.609,3.808 -0.078,0.145 -0.115,0.302 -0.108,0.476 0.005,0.076 0.017,0.155 0.036,0.229 -0.849,-0.417 -1.295,-0.681 -1.321,-0.794 -0.032,-0.127 0.022,-0.202 0.091,-0.302 0.062,-0.099 0.134,-0.209 0.125,-0.371 -0.023,-0.384 -0.572,-0.559 -1.06,-0.718 -0.195,-0.06 -0.377,-0.119 -0.503,-0.187 -0.255,-0.13 -0.477,-0.247 -0.521,-0.562 -0.034,-0.26 0.152,-0.333 0.44,-0.414 0.138,-0.04 0.253,-0.074 0.316,-0.148 0.247,-0.295 -0.185,-0.684 -0.604,-1.06 -0.283,-0.255 -0.606,-0.548 -0.558,-0.698 0.046,-0.163 0.217,-0.18 0.495,-0.184 0.24,-0.007 0.482,-0.012 0.599,-0.204 0.112,-0.184 -0.045,-0.547 -0.212,-0.898 -0.035,-0.068 -0.061,-0.119 -0.075,-0.159 -0.054,-0.144 -0.158,-0.486 0.038,-0.654 v 0.003 l 0.064,-0.042 0.037,-0.019 c 0.181,-0.053 0.359,0.068 0.563,0.374 0.019,0.032 0.044,0.078 0.076,0.134 0.202,0.35 0.413,0.693 0.629,0.72 0.225,0.024 0.372,-0.159 0.509,-0.342 0.131,-0.169 0.256,-0.324 0.419,-0.255 0.15,0.057 0.179,0.488 0.203,0.871 0.035,0.553 0.074,1.131 0.458,1.131 l 0,0 c 0.098,-0.004 0.195,-0.073 0.311,-0.158 0.121,-0.089 0.259,-0.192 0.391,-0.192 0.075,0 0.141,0.037 0.206,0.1 0.224,0.233 0.177,0.476 0.124,0.758 -0.028,0.14 -0.096,0.32 -0.165,0.512 -0.179,0.479 -0.379,1.021 -0.094,1.279 0.123,0.108 0.256,0.116 0.37,0.125 0.121,0.011 0.215,0.016 0.293,0.121 0.053,0.063 0.069,0.342 -0.078,1.201 -0.211,-0.106 -0.439,-0.182 -0.662,-0.182 -0.123,0 -0.237,0.025 -0.344,0.068 -0.815,-1.343 -1.597,-2.754 -1.87,-3.544 -0.142,-0.304 -0.325,-0.181 -0.227,0.177 m 1.654,5.445 c 0,0.173 -0.14,0.316 -0.313,0.316 -0.173,0 -0.313,-0.144 -0.313,-0.316 0,-0.172 0.14,-0.314 0.313,-0.314 0.173,0 0.313,0.141 0.313,0.314 m -3.97,-7.19 c -0.172,0 -0.317,-0.144 -0.317,-0.316 0,-0.172 0.145,-0.316 0.317,-0.316 0.173,0 0.313,0.144 0.313,0.316 0,0.172 -0.139,0.316 -0.313,0.316 m 3.78,-2.977 c -0.049,-0.199 -0.337,-0.404 -0.495,-0.487 0.045,-0.055 0.091,-0.112 0.141,-0.166 0.423,-0.498 0.998,-1.182 0.941,-1.968 -0.013,-0.151 -0.045,-0.619 -0.473,-0.825 -0.032,-0.013 -0.063,-0.026 -0.096,-0.037 0.299,-0.075 0.624,-0.154 0.976,-0.247 0.322,-0.08 0.608,-0.31 0.778,-0.628 0.2,-0.369 0.231,-0.827 0.086,-1.257 -0.216,-0.63 -0.609,-2.022 -0.555,-3.671 1.58,-0.31 3.864,-0.472 5.651,-0.47 0.377,0 0.474,-0.438 0.093,-0.438 -0.346,0 -4.14,-0.005 -5.666,-0.008 0.032,-0.232 0.076,-0.472 0.131,-0.712 0.185,0.004 0.718,0 0.718,0 l 0,-0.415 h 1.542 l -0.001,0.362 0.699,0.005 c 0,0 0.189,-0.441 0.19,-0.804 0.003,-0.201 -0.087,-0.416 -0.087,-0.416 h 1.203 c 0,0 -0.093,0.176 -0.093,0.401 -0.001,0.374 0.194,0.821 0.194,0.821 l 0.675,-0.003 V 42.87 h 0.72 l 0.005,0.265 0.385,-0.004 0.004,-0.384 h 0.849 v 0.396 h 1.901 l 0.015,1.926 c 0,0 -1.622,-1.103 -3.466,0.039 -0.559,0.346 -1.096,0.899 -1.312,1.575 -0.29,0.909 -0.066,1.648 0.029,1.863 0.267,0.588 0.874,1.057 1.197,1.166 0.267,0.255 0.476,0.634 0.679,0.739 0.134,0.07 0.295,-0.073 0.439,-0.073 0.078,0 0.127,0.124 0.255,0.2 0.159,0.092 0.227,0.117 0.278,0.162 0.104,0.084 0.25,0.193 0.411,0.22 0.31,0.044 0.505,-0.177 0.668,-0.375 0.07,-0.08 0.245,0.261 0.228,0.268 -0.572,0.19 -0.913,0.782 -1.143,1.184 -0.23,0.399 -0.791,1.678 -0.791,1.678 0,0 -1.311,-0.621 -1.579,-0.593 -1.495,0.093 -2.215,0.902 -2.215,0.902 0,0 -0.793,-0.665 -1.896,-0.261 -0.914,0.334 -0.848,1.106 -0.848,1.106 l -0.583,0.656 0.133,1.771 -0.31,0.146 c -0.02,-0.455 -0.065,-1.023 -0.303,-1.442 -0.199,-0.354 -0.492,-0.449 -0.9,-0.297 -0.106,0.042 -0.213,0.113 -0.309,0.193 0.487,-0.706 0.982,-1.521 0.907,-1.82 m -0.328,-5.042 c -0.06,-0.397 -0.303,-0.591 -0.741,-0.591 -0.231,0 -0.505,0.126 -0.687,0.215 -0.03,0.01 -0.061,0.028 -0.089,0.038 -0.042,-0.569 -0.308,-1.337 -0.894,-1.521 l -0.243,-0.038 c -0.039,0 -0.074,0 -0.118,0.003 l 0,0 -0.023,0.004 c -0.261,0.028 -0.476,0.145 -0.638,0.349 -0.078,0.097 -0.13,0.204 -0.179,0.321 -0.26,-2.09 -0.262,-4.88 0.63,-7.362 1.478,0.241 3.155,0.443 3.587,0.474 0.013,0.005 0.022,0.005 0.033,0.005 0.109,0 0.215,-0.043 0.296,-0.117 0.086,-0.081 0.112,-0.18 0.176,-0.33 0.067,-0.163 0.412,-0.969 0.66,-1.23 0.215,-0.229 0.694,-0.161 0.806,0.223 0.018,0.065 0.015,0.133 -0.049,0.214 -2.721,3.544 -1.6,7.765 -1.159,9.054 0.069,0.202 0.059,0.409 -0.028,0.568 -0.055,0.102 -0.139,0.175 -0.23,0.196 -0.416,0.107 -0.795,0.205 -1.146,0.289 0.05,-0.255 0.074,-0.52 0.036,-0.764 m 8.929,-19.423 c 0.069,0.182 0.308,0.447 0.466,0.613 0.087,0.087 0.049,0.129 -0.092,0.107 -0.234,-0.035 -0.572,-0.07 -0.704,-0.032 -0.139,0.041 -0.392,0.286 -0.556,0.459 -0.094,0.098 -0.141,0.07 -0.121,-0.071 0.03,-0.222 0.059,-0.536 0.012,-0.666 -0.048,-0.145 -0.304,-0.431 -0.468,-0.603 -0.081,-0.092 -0.046,-0.131 0.088,-0.109 0.22,0.035 0.546,0.074 0.718,0.027 0.157,-0.045 0.37,-0.25 0.525,-0.415 0.11,-0.117 0.152,-0.095 0.131,0.06 -0.036,0.203 -0.063,0.472 10e-4,0.63 m 1.466,4.416 c 0.071,0.184 0.308,0.452 0.472,0.613 0.083,0.089 0.045,0.127 -0.093,0.109 -0.236,-0.03 -0.574,-0.07 -0.708,-0.03 -0.135,0.041 -0.389,0.284 -0.555,0.458 -0.093,0.098 -0.141,0.07 -0.121,-0.071 0.028,-0.221 0.059,-0.536 0.013,-0.665 -0.052,-0.141 -0.303,-0.426 -0.469,-0.603 -0.084,-0.092 -0.046,-0.131 0.086,-0.109 0.221,0.038 0.546,0.074 0.716,0.028 0.162,-0.046 0.373,-0.25 0.527,-0.412 0.109,-0.12 0.157,-0.098 0.127,0.057 -0.031,0.203 -0.056,0.467 0.005,0.625 m 3.84,-7.69 c 0.071,0.184 0.311,0.451 0.471,0.613 0.086,0.088 0.046,0.126 -0.092,0.11 -0.233,-0.036 -0.576,-0.07 -0.707,-0.032 -0.139,0.041 -0.394,0.286 -0.558,0.458 -0.093,0.099 -0.138,0.07 -0.123,-0.071 0.033,-0.221 0.06,-0.532 0.013,-0.665 -0.048,-0.146 -0.3,-0.43 -0.468,-0.603 -0.081,-0.089 -0.047,-0.131 0.089,-0.11 0.221,0.036 0.548,0.074 0.718,0.029 0.157,-0.047 0.373,-0.249 0.525,-0.415 0.11,-0.118 0.152,-0.095 0.13,0.059 -0.033,0.205 -0.058,0.47 0.002,0.627 m 0.581,6.206 c 0.073,0.185 0.31,0.452 0.472,0.618 0.084,0.086 0.044,0.126 -0.095,0.109 -0.233,-0.034 -0.573,-0.074 -0.708,-0.031 -0.136,0.039 -0.388,0.285 -0.555,0.458 -0.094,0.098 -0.136,0.067 -0.117,-0.071 0.028,-0.221 0.058,-0.536 0.009,-0.666 -0.051,-0.145 -0.304,-0.43 -0.47,-0.605 -0.081,-0.088 -0.046,-0.128 0.088,-0.108 0.221,0.038 0.548,0.077 0.718,0.026 0.158,-0.042 0.371,-0.246 0.525,-0.411 0.109,-0.12 0.157,-0.098 0.13,0.06 -0.033,0.2 -0.058,0.468 0.003,0.621 m 2.938,0.319 c -0.029,0.003 -0.431,-0.054 -0.915,0.581 -0.195,0.257 -0.112,0.711 0.009,0.68 0.123,-0.028 0.539,-0.377 0.534,-0.328 -0.013,0.091 -0.07,0.229 -0.14,0.335 -0.053,0.081 -0.398,0.278 -0.495,0.439 -0.123,0.205 -0.004,0.469 -0.026,0.505 -0.042,0.064 -0.15,0.102 -0.177,0.073 -0.137,-0.14 -0.179,-0.655 0.026,-0.911 0.081,-0.103 -0.299,-0.372 -0.227,-0.772 0.055,-0.303 0.196,-0.42 0.371,-0.539 0.29,-0.201 0.499,-0.232 0.804,-0.477 0.571,-0.451 0.772,-0.645 1.231,-0.689 0.145,-0.015 0.526,0.13 0.639,0.162 0.58,0.168 0.929,0.07 1.119,-0.011 0.108,-0.046 0.244,-0.135 0.391,-0.11 0.118,0.026 0.189,0.18 0.174,0.533 -0.197,-0.188 -0.932,-0.177 -0.985,0.07 -0.047,0.222 0.112,1.137 0.053,1.212 -0.106,0.136 -0.196,0.103 -0.391,0.035 -0.111,-0.035 -0.247,0.063 -0.245,0.091 0.008,0.056 0.18,0.078 0.245,0.109 0.103,0.054 0.222,0.107 0.304,0.103 0.084,-0.003 0.179,-0.089 0.263,-0.127 0.061,-0.032 0.107,-0.035 0.125,-0.063 0.032,-0.067 -0.057,-0.117 -0.061,-0.268 -0.011,-0.362 -0.029,-0.79 -0.021,-0.818 0.016,-0.014 0.04,-0.042 0.075,-0.021 0.046,0.032 0.075,0.096 0.193,0.104 0.068,0.002 0.121,-0.055 0.154,-0.098 0.021,-0.027 0.192,-0.123 0.239,-0.088 0.037,0.025 0,0.088 -0.008,0.201 0,0.06 0.053,0.416 0.047,0.486 -0.034,0.494 -0.257,1.009 -0.588,1.527 -0.087,0.132 -0.139,0.281 -0.248,0.387 -0.139,0.137 -0.567,0.362 -1.445,-0.335 -0.224,-0.178 -0.348,-0.415 -0.424,-0.415 -0.057,0 -0.075,0.158 -0.075,0.273 0,0.144 0.162,0.377 0.377,0.571 0.141,0.13 0.423,0.295 0.564,0.345 0.238,0.081 0.533,0.17 0.762,0.258 0.538,0.204 1.428,0.591 1.836,0.998 0.465,0.463 0.868,1.267 1.176,2.316 0.166,0.567 0.513,2.086 0.871,3.488 0.337,1.311 0.696,2.526 0.694,2.515 -1.168,0.929 -0.871,2.529 -0.906,2.814 -0.09,0.007 -1.012,-5.96 -1.686,-8.849 -0.013,-0.061 -0.044,-0.131 -0.152,-0.123 -0.108,0.003 -0.121,0.099 -0.125,0.151 0,0.048 0.871,8.729 0.946,10.012 -1.246,-0.127 -1.599,0.778 -1.998,0.68 0,0 -0.256,0.015 -0.265,-0.447 0,-0.067 -0.163,-5.38 -0.314,-8.535 -0.06,-1.287 -0.068,-2.666 -0.131,-3.964 -0.002,-0.119 -0.053,-0.262 -0.149,-0.124 -0.26,0.561 -0.88,0.653 -1.433,0.536 -0.17,-0.057 -0.626,-0.13 -1.282,-0.859 -0.11,-0.098 -0.238,-0.018 -0.211,0.088 0.206,0.746 0.892,1.19 1.366,1.403 0.376,0.146 0.576,0.164 0.874,0.179 0.041,0.616 0.065,1.204 0.065,1.972 -0.588,-0.58 -1.406,-0.618 -1.971,-0.954 -0.531,-0.317 -0.912,-0.853 -1.333,-1.563 0,0 -0.093,-0.177 -0.209,-0.109 -0.117,0.063 -0.043,0.25 -0.043,0.25 0.201,0.725 0.565,1.597 1.311,2.154 0.338,0.244 1.118,0.572 1.466,0.759 0.628,0.338 0.793,1.132 0.793,1.132 -0.441,0.981 -1.226,1.811 -2.057,2.722 -0.828,0.917 -3.504,3.023 -3.436,2.541 0.084,-0.62 0.096,-2.097 0.096,-2.505 0,-2.109 -0.118,-2.928 -0.084,-4.435 -0.406,0.731 -0.993,0.859 -1.177,0.981 0,0.038 0.057,6.563 0.056,6.75 -0.274,-0.072 -0.754,-0.855 -0.973,-1.473 -0.033,-0.041 0.017,-9.246 0.076,-9.271 l 0.753,-0.384 c 0.027,0.563 0.018,1.449 0.024,1.775 0.788,-0.981 1.298,-1.7 2.188,-2.169 0.654,-0.345 1.854,-0.55 2.345,-0.799 0.336,-0.295 0.751,-1.811 0.821,-2.282 0.031,-0.184 0.05,-0.389 -0.05,-0.381 m -0.976,-1.981 c 0.208,-0.854 0.928,-1.169 1.604,-1.518 0.17,-0.088 0.336,-0.256 0.448,-0.451 0.144,-0.242 0.078,-0.612 -0.136,-0.409 -0.13,0.12 -0.438,0.37 -0.804,0.514 -0.452,0.18 -0.567,0.262 -0.949,0.642 -0.041,-0.207 -0.055,-1.022 0.309,-1.621 0.108,-0.184 0.27,-0.331 0.444,-0.438 -0.114,-0.56 0.007,-0.866 0.075,-0.882 0.121,-0.022 0.407,0.365 0.578,0.517 0.171,0.147 0.358,-0.037 0.237,-0.163 -0.037,-0.039 -0.103,-0.128 -0.172,-0.2 0.041,-0.128 0.046,-0.252 0.107,-0.222 0.056,0.028 0.346,0.292 0.433,0.7 0.049,0.024 0.271,0.05 0.515,0.257 0.747,0.631 1.279,1.882 1.577,3.675 -0.039,-0.022 -0.118,-0.191 -0.283,-0.191 -0.124,0 -0.348,0.099 -0.402,0.122 -0.251,0.118 -0.654,0.094 -0.965,-0.026 -0.088,-0.032 -0.48,-0.148 -0.75,-0.116 -0.475,0.049 -0.832,0.212 -1.3,0.66 -0.335,0.316 -0.775,0.468 -0.775,0.468 -0.017,-0.127 -0.075,-0.208 -0.017,-0.342 0.043,-0.123 0.179,-0.282 0.181,-0.38 0.007,-0.225 -0.016,-0.331 0.045,-0.596 m 9.561,1.662 c 0.076,0.185 0.313,0.452 0.47,0.618 0.089,0.086 0.048,0.126 -0.089,0.109 -0.238,-0.034 -0.573,-0.074 -0.71,-0.031 -0.136,0.039 -0.391,0.285 -0.554,0.458 -0.096,0.098 -0.141,0.067 -0.121,-0.071 0.027,-0.221 0.061,-0.536 0.012,-0.666 -0.051,-0.145 -0.303,-0.43 -0.47,-0.605 -0.081,-0.088 -0.047,-0.128 0.085,-0.108 0.227,0.038 0.551,0.077 0.721,0.026 0.159,-0.042 0.373,-0.246 0.527,-0.411 0.105,-0.12 0.152,-0.098 0.126,0.06 -0.032,0.2 -0.059,0.468 0.003,0.621 m 1.79,9.71 0.547,0.004 0.005,0.896 h 0.532 l 0.006,-1.747 0.234,-0.641 0.211,0.641 0.004,0.873 0.299,-0.19 0.279,0.183 v -0.854 l 0.213,-0.66 0.201,0.662 0.002,1.732 h 0.395 c 0,-0.013 0,-0.065 0,-0.357 0,-0.402 0.416,-0.575 0.416,-0.575 0,0 0.42,0.209 0.42,0.575 v 0.357 h 0.504 v -0.285 h 0.408 V 42.5 l 0.531,-0.257 0.529,0.253 v 0.677 c 0,0 0.658,0 0.891,0 0.061,0.24 0.107,0.472 0.146,0.701 -1.461,0.003 -5.405,0.008 -5.76,0.008 -0.382,0 -0.285,0.438 0.092,0.438 1.824,-0.002 4.176,0.168 5.758,0.491 0.051,1.373 -0.25,2.642 -0.58,3.684 -0.189,0.607 -0.182,1.079 0.02,1.445 0.236,0.438 0.686,0.604 1,0.689 0.07,0.02 0.217,0.061 0.408,0.11 -0.268,0.229 -0.295,0.582 -0.303,0.715 -0.061,0.786 0.516,1.47 0.936,1.968 0.049,0.054 0.1,0.111 0.145,0.166 -0.156,0.083 -0.443,0.288 -0.492,0.487 -0.078,0.299 0.414,1.114 0.9,1.821 -0.094,-0.08 -0.199,-0.155 -0.305,-0.193 -0.414,-0.152 -0.705,-0.057 -0.904,0.297 -0.244,0.433 -0.283,1.03 -0.307,1.492 -0.135,-0.081 -0.369,-0.166 -0.59,-0.166 -0.025,0 -0.053,0.005 -0.08,0.007 -0.473,0.044 -0.67,0.463 -0.734,0.603 0,0.005 0,0.008 -0.008,0.014 -0.094,-0.064 -0.232,-0.133 -0.434,-0.174 -0.205,-0.048 -0.361,-0.057 -0.477,-0.061 1.563,-1.199 2.014,-3.406 0.973,-5.136 -1.045,-1.738 -3.223,-2.376 -5.018,-1.537 -0.34,0.043 -0.666,-0.138 -0.666,-0.138 0,0 0.192,-0.384 0.379,-0.807 0.128,-0.298 0.234,-0.647 0.279,-1.17 0.02,-0.271 -0.021,-0.573 -0.051,-0.901 -0.036,-0.45 0.006,-1.269 -0.242,-1.851 -0.647,-1.484 -1.877,-1.548 -1.877,-1.548 0,0 -0.139,-1.093 -0.229,-1.456 0,0 0.382,-0.004 0.98,-0.004 v -0.422 l 0.412,0.004 v -0.496 z m 3.156,-9.71 c 0.072,0.185 0.313,0.452 0.469,0.618 0.086,0.086 0.047,0.126 -0.094,0.109 -0.232,-0.034 -0.57,-0.074 -0.707,-0.031 -0.135,0.039 -0.389,0.285 -0.553,0.458 -0.096,0.098 -0.139,0.067 -0.121,-0.071 0.029,-0.221 0.061,-0.536 0.014,-0.666 -0.052,-0.145 -0.307,-0.43 -0.471,-0.605 -0.084,-0.088 -0.049,-0.128 0.085,-0.108 0.226,0.038 0.55,0.077 0.718,0.026 0.164,-0.042 0.375,-0.246 0.529,-0.411 0.107,-0.12 0.152,-0.098 0.127,0.06 -0.035,0.2 -0.059,0.468 0.004,0.621 m 5.252,17.488 c -0.309,-0.081 -0.609,-0.161 -0.879,-0.235 -0.342,-0.091 -0.432,-0.196 -0.471,-0.272 -0.08,-0.142 -0.063,-0.407 0.053,-0.767 0.434,-1.385 1.695,-5.407 -1.412,-9.185 0.123,-0.45 0.609,-0.569 0.844,-0.32 0.246,0.262 0.514,1.058 0.773,1.453 0.064,0.098 0.361,0.22 0.471,0.22 0.014,0 2.01,-0.229 3.477,-0.468 0.834,2.393 0.84,5.094 0.594,7.19 -0.029,-0.053 -0.066,-0.105 -0.102,-0.155 -0.166,-0.208 -0.383,-0.323 -0.645,-0.349 l -0.02,-0.004 c -0.844,-0.072 -1.203,0.878 -1.256,1.557 -0.025,-0.01 -0.057,-0.028 -0.088,-0.038 -0.18,-0.089 -0.453,-0.215 -0.688,-0.215 -0.436,0 -0.678,0.193 -0.738,0.591 -0.048,0.32 0.007,0.671 0.087,0.997 m -2.602,12.623 c -0.029,0.028 -0.061,0.057 -0.088,0.086 -0.014,-0.025 -0.027,-0.061 -0.041,-0.089 -0.082,-0.185 -0.207,-0.461 -0.383,-0.613 -0.334,-0.285 -0.637,-0.3 -0.947,-0.032 -0.381,0.32 -0.621,0.871 -0.803,1.3 -0.066,-0.088 -0.174,-0.186 -0.303,-0.263 -0.455,-0.5 -0.377,-1.152 -0.365,-1.386 0.006,-0.249 -0.193,-0.242 -0.381,0.109 -0.604,1.127 -0.865,1.564 -1.535,2.23 -0.469,0.472 -1.612,1.078 -1.84,0.976 -0.047,-0.019 1.147,-1.489 1.282,-2.741 -0.019,-0.286 -0.211,-0.26 -0.38,0 -1.281,2.01 -2.738,2.805 -3.507,3.101 0.107,-0.556 0.181,-1.123 0.218,-1.701 0.008,0.024 -0.924,-0.161 -0.924,-1.219 0,-0.97 0.774,-1.101 0.784,-1.079 -0.386,-2.893 -1.679,-5.314 -3.413,-6.633 0.055,-0.803 -0.063,-2.05 1.021,-3.255 0.258,-0.293 1.206,-0.867 1.7,-1.057 0.163,0.35 0.382,0.598 0.579,0.923 0.163,0.32 0.074,0.725 -0.109,1.288 -0.383,1.057 -0.517,1.497 -0.525,1.921 -0.005,0.226 0.17,0.616 0.336,0.533 0.424,-1.438 0.99,-3.184 0.91,-3.769 -0.112,-0.633 -0.692,-0.884 -0.738,-1.545 -0.029,-0.123 -0.029,-0.265 -0.016,-0.396 0.004,-0.008 0.005,-0.017 0.009,-0.023 0.048,-0.47 0.427,-0.997 0.506,-1.1 0.377,-0.177 0.914,-0.501 1.21,-0.761 0.295,-0.258 0.695,-0.605 0.82,-0.817 0.008,-0.015 0.014,-0.021 0.021,-0.032 0.022,-0.035 0.035,-0.065 0.049,-0.105 0.092,-0.304 -0.223,-0.729 -0.195,-0.761 0.035,-0.032 0.395,0.138 0.479,0.557 0.038,0.189 0.029,0.274 -0.017,0.354 0.191,0.107 0.524,0.209 0.911,0.573 0.17,0.153 0.242,0.457 0.212,0.673 -0.382,-0.075 -0.779,0.123 -0.809,0.257 -0.05,0.279 0.052,0.605 0.062,0.867 0.003,0.073 0.027,0.214 -0.002,0.246 -0.176,0.151 -0.509,-0.1 -0.527,0.105 -0.004,0.064 0.137,0.038 0.199,0.074 0.081,0.042 0.15,0.141 0.248,0.138 0.066,0 0.113,-0.076 0.216,-0.162 0.061,-0.054 0.097,-0.045 0.142,-0.09 0.038,-0.026 0.007,-0.143 -0.002,-0.213 -0.027,-0.204 -0.056,-0.536 -0.046,-0.687 0.003,-0.033 0.048,-0.037 0.078,-0.015 0.075,0.056 0.141,0.045 0.179,0.038 0.057,-0.012 0.105,-0.053 0.137,-0.099 0.025,-0.024 0.137,-0.221 0.13,-0.151 -0.005,0.098 0.013,0.16 0.026,0.232 0.013,0.089 0.066,0.307 0.049,0.477 -0.039,0.453 -0.109,0.78 -0.48,1.458 -0.081,0.136 -0.146,0.395 -0.362,0.45 -0.694,0.176 -1.47,-0.412 -1.882,-0.853 0,0 -0.268,-0.229 -0.325,-0.405 -0.029,-0.095 0.128,-0.482 0.187,-0.633 0.053,-0.128 -0.099,-0.139 -0.227,-0.031 -0.111,0.091 -0.191,0.333 -0.191,0.333 -0.119,0.289 -0.093,0.479 -0.043,0.612 0.262,0.61 0.885,1.108 0.71,1.853 -0.284,1.487 -0.386,4.98 -0.993,4.98 -0.705,0 -1.88,-2.548 -2.094,-2.884 -0.258,-0.397 -0.718,-0.212 -0.394,0.406 0.184,0.352 1.34,3.182 2.509,3.284 0.402,0.035 0.564,-0.244 0.727,-0.789 0.232,-0.786 0.462,-2.872 0.82,-5.145 0.033,-0.222 -0.061,-0.455 -0.092,-0.595 0.376,0.341 0.959,0.472 1.58,0.565 0.111,0.013 0.235,0.013 0.361,0 -1.27,1.006 -1.784,2.679 -1.328,4.199 l -0.008,-0.007 c 0,0 0.627,2.111 0.48,3.123 -0.121,0.622 -0.475,0.692 -0.559,0.746 -0.25,0.171 -0.172,0.385 -0.145,0.409 0.079,0.096 0.168,0.041 0.518,-0.093 0.742,-0.29 3.331,-1.486 5.723,-1.338 0.066,0.008 0.141,0.025 0.213,0.042 0.088,0.028 0.176,0.069 0.264,0.107 0.164,0.086 0.299,0.234 0.406,0.424 0.082,0.146 0.139,0.293 0.172,0.395 0.043,0.146 0.09,0.282 0.139,0.416 0.027,0.123 0.053,0.247 0.078,0.375 -0.172,0.027 -0.473,0.104 -0.586,0.27 -0.182,0.266 -0.006,1.227 0.205,2.062 m -5.459,-8.299 c -0.43,0.042 -0.773,-0.008 -1.028,-0.078 0.073,-0.747 0.394,-1.461 0.933,-2.016 -0.085,0.326 -0.204,1.076 0.095,2.094 m 3.854,-0.932 c -0.059,-0.096 -0.084,-0.156 -0.148,-0.243 -0.854,-1.198 -1.774,-1.654 -2.279,-1.82 1.234,-0.341 2.58,0.055 3.434,1.041 -0.092,0.672 -0.461,1.77 -2.082,2.757 -0.477,0.289 -0.916,0.487 -1.322,0.616 -0.068,-0.093 -0.132,-0.192 -0.196,-0.292 -0.084,-0.134 -0.166,-0.271 -0.243,-0.411 -0.029,-0.057 -0.06,-0.112 -0.086,-0.175 0.403,-0.099 0.859,-0.283 1.375,-0.594 0.141,-0.081 0.141,-0.084 0.266,-0.158 0.232,-0.135 -0.141,-0.754 -0.385,-0.624 -0.127,0.067 -0.127,0.069 -0.264,0.152 -0.459,0.271 -0.875,0.447 -1.251,0.554 -0.335,-1.15 -0.134,-2.16 -0.063,-2.453 0.511,0.148 1.781,0.631 2.568,1.824 0.074,0.117 0.135,0.227 0.215,0.339 0.162,0.234 0.627,-0.237 0.461,-0.513 m 0.927,2.869 c 0.572,-0.593 0.809,-1.197 0.902,-1.64 -0.016,0.813 -0.32,1.613 -0.885,2.225 0.007,-0.155 0.003,-0.352 -0.017,-0.585 m -0.097,-0.708 c -0.006,-0.049 -0.02,-0.098 -0.029,-0.148 -0.02,-0.096 -0.02,-0.056 -0.039,-0.154 -0.031,-0.172 -0.125,-0.134 -0.309,0.059 -0.107,0.109 -0.209,0.277 -0.184,0.386 0.018,0.098 -0.004,0.017 0.021,0.109 0.021,0.07 0.037,0.141 0.053,0.204 -0.195,0.158 -0.418,0.317 -0.672,0.472 -0.35,0.211 -0.678,0.366 -0.98,0.487 -0.211,-0.197 -0.434,-0.422 -0.652,-0.674 0.377,-0.122 0.787,-0.313 1.23,-0.589 1.611,-0.998 1.979,-2.249 2.053,-2.91 0.008,0.014 0.021,0.029 0.025,0.043 0.135,0.223 0.234,0.447 0.314,0.681 -0.025,0.251 0.026,1.096 -0.831,2.034 m -0.278,1.656 c -0.111,0.087 -0.229,0.169 -0.352,0.246 -0.186,0.108 -0.373,0.197 -0.564,0.271 -0.115,-0.08 -0.26,-0.186 -0.424,-0.314 0.244,-0.105 0.5,-0.235 0.771,-0.404 0.182,-0.109 0.346,-0.225 0.49,-0.341 0.046,0.238 0.07,0.425 0.079,0.542 m -1.904,0.397 c 0.154,0.104 0.293,0.191 0.418,0.267 -0.201,0.021 -0.396,0.038 -0.584,0.062 -0.436,0 -0.867,-0.079 -1.268,-0.243 0.384,0.066 0.863,0.07 1.434,-0.086 m -2.414,-0.517 c -0.248,-0.218 -0.469,-0.482 -0.652,-0.781 -0.007,-0.021 -0.019,-0.04 -0.03,-0.061 0.376,0.161 0.981,0.334 1.786,0.216 0.234,0.259 0.482,0.494 0.723,0.701 -0.861,0.2 -1.481,0.063 -1.827,-0.075 m 0.431,-1.55 c 0.071,0.127 0.147,0.251 0.233,0.37 -0.68,0.099 -1.211,0.004 -1.563,-0.117 -0.142,-0.353 -0.217,-0.717 -0.228,-1.086 0.179,0.093 0.609,0.293 1.276,0.27 0.047,0.108 0.099,0.219 0.156,0.333 0.038,0.079 0.082,0.153 0.126,0.23 m -3.392,-15.039 c 0.552,2.794 0.724,4.091 0.724,4.091 0,0 -0.351,0 -0.606,0.056 -0.037,0.035 -0.324,-2.248 -0.739,-3.925 -0.873,-3.506 -1.417,-4.234 -2.256,-4.383 -0.359,-0.063 -0.5,0.128 -0.561,0.149 -0.056,-0.057 -0.182,-0.129 -0.225,-0.173 0,0 0.16,-1.222 0.992,-1.2 0.995,0.027 2.023,2.143 2.671,5.385 m -12.836,21.884 c 0.023,0.842 -1.024,1.216 -1.024,1.216 -0.025,0.568 0.032,1.166 0.152,1.764 -0.695,-0.235 -2.297,-0.981 -3.687,-3.163 -0.167,-0.26 -0.361,-0.286 -0.379,0 0.134,1.252 1.329,2.723 1.282,2.741 -0.23,0.103 -1.372,-0.504 -1.846,-0.976 -0.667,-0.666 -0.928,-1.104 -1.53,-2.23 -0.188,-0.352 -0.388,-0.358 -0.38,-0.109 0.012,0.269 0.108,1.086 -0.602,1.594 -0.176,-0.42 -0.414,-0.935 -0.778,-1.245 -0.312,-0.268 -0.614,-0.253 -0.948,0.032 -0.176,0.152 -0.3,0.429 -0.379,0.613 -0.016,0.028 -0.033,0.063 -0.042,0.089 -0.029,-0.029 -0.058,-0.058 -0.089,-0.086 0.208,-0.835 0.388,-1.796 0.205,-2.058 -0.125,-0.183 -0.476,-0.257 -0.632,-0.278 0.023,-0.066 0.046,-0.136 0.075,-0.206 0.042,-0.135 0.094,-0.275 0.139,-0.423 0.313,-0.695 0.743,-1.191 1.475,-1.146 1.085,0.072 2.201,0.446 2.411,0.479 l 0,0 c 2.241,0.624 3.179,1.068 3.368,1.091 0.267,0.03 0.244,-0.16 0.166,-0.435 -0.108,-0.359 -0.241,-0.72 0.06,-1.497 0.123,-0.324 0.356,-0.816 0.558,-1.23 0.471,-0.819 0.973,-1.896 1.279,-2.468 0.234,-0.483 0.269,-0.801 0.058,-0.902 -0.267,-0.085 -0.599,0.521 -0.794,0.916 -0.373,0.661 -0.846,1.747 -1.492,2.47 -0.261,0.26 -0.348,0.229 -0.684,0.146 -1.381,-0.384 -4.309,-1.937 -4.776,-1.907 -0.498,0.022 -1.001,-0.124 -1.387,-0.448 -0.063,0.125 -0.257,0.145 -0.293,0.063 0.04,-0.113 0.04,-0.275 0.125,-0.338 0.105,-0.131 0.386,-0.269 0.652,-0.353 0.547,-0.04 0.828,0.245 1.473,0.586 0.713,0.097 2.637,0.429 3.962,0.836 0.375,0.075 0.456,-0.188 0.163,-0.364 l -0.247,-0.157 c 0.407,-1.18 0.819,-2.064 1.502,-3.116 0.457,-0.709 0.955,-0.508 1.718,-0.892 0.664,-0.272 1.012,-0.711 1.511,-1.11 1.563,1.396 2.019,3.604 2.313,4.756 -2.001,1.435 -3.56,4.114 -3.602,6.609 -0.001,0.031 0.914,0.15 0.944,1.136 m -7.949,-5.644 c -0.433,-0.187 -0.809,-0.348 -1.239,-0.533 -0.527,-0.22 -1.125,-0.449 -1.646,-0.688 0.122,-0.131 0.15,-0.227 0.522,-0.261 0.09,0.094 0.704,0.489 1.193,0.457 0.632,-0.047 1.896,0.688 2.294,0.866 0.627,0.282 1.31,0.593 1.925,0.982 -0.366,0.325 -0.608,0.914 -0.608,0.914 0,0 -1.882,-0.561 -2.959,-0.839 -0.911,-0.233 -1.667,-0.444 -2.401,-0.599 -0.039,-0.121 -0.158,-0.955 -0.075,-0.934 0.264,0.058 1.877,0.605 1.877,0.605 0,0 0.774,0.276 1.026,0.367 0.413,0.15 0.606,-0.12 0.091,-0.337 m 0.257,-2.487 c 0.21,-0.222 0.452,-0.37 0.676,-0.461 0.261,-0.089 0.407,-0.138 0.682,-0.176 0.575,0.212 0.972,0.348 1.54,0.57 -0.11,0.238 -0.176,0.435 -0.242,0.563 -0.896,-0.2 -1.659,-0.314 -2.656,-0.496 m 4.915,-5.667 c -0.133,0.051 -0.025,0.196 -0.076,0.708 -0.054,0.538 -0.201,0.964 -0.555,1.084 -0.188,0.053 -0.258,-0.134 -0.371,-0.218 -0.049,-0.037 -0.111,0.013 -0.167,-0.004 -0.039,-0.028 -0.027,-0.116 -0.063,-0.135 -0.047,-0.023 -0.141,0.021 -0.164,0.015 -0.025,-0.011 -0.055,-0.038 -0.061,-0.07 -0.012,-0.063 -0.048,-0.18 -0.08,-0.169 -0.048,0.042 -0.101,0.084 -0.131,0.105 -0.071,0.057 -0.1,0.07 -0.16,0.067 -0.064,-0.011 -0.083,-0.057 -0.147,-0.131 -0.093,-0.113 -0.229,-0.308 -0.306,-0.419 -0.063,-0.095 -0.154,-0.251 -0.285,-0.271 -0.206,-0.039 -0.636,-0.331 -0.743,-0.891 -0.014,-0.054 -0.025,-0.119 -0.035,-0.22 -0.041,-0.43 0.046,-0.834 0.208,-0.781 0.015,0 0.023,0.01 0.031,0.021 0,-0.005 0,-0.005 0,0 v 0.008 c 0.017,0.032 0.012,0.088 0.004,0.158 0.003,0.211 0.015,0.349 0.081,0.423 0.083,0.095 0.253,0.099 0.336,0.083 0.346,-0.051 0.718,0.008 1.105,0.055 0.234,0.045 0.4,-0.034 0.498,-0.188 0.088,-0.162 0.259,-0.324 0.444,-0.358 0.56,-0.04 0.935,0.4 1.349,0.714 0.551,0.423 1.767,1.351 1.767,1.351 -0.362,0.472 -1.07,0.918 -1.656,1.134 -0.228,-0.479 -0.406,-0.599 -0.525,-0.692 0.034,-0.263 0.102,-1.387 -0.298,-1.379 m 4.831,1.677 c 0,0 1.079,-0.209 1.802,-0.705 0.467,-0.321 1.344,-1.082 1.786,-2.403 0.144,-0.433 -0.067,-0.761 -0.366,-0.268 -0.735,1.22 -2.216,2.72 -3.68,2.604 -0.406,-0.036 -0.698,-0.358 -0.855,-0.581 2.211,-1.064 4.155,-3.117 5.875,-5.468 l -0.153,5.277 c -0.225,0.422 -0.5,0.901 -0.761,1.245 -0.79,1.045 -1.881,1.781 -2.662,1.222 -0.5,-0.364 -0.986,-0.923 -0.986,-0.923 m -2.06,-19.469 c 0.002,0.142 -0.509,0.611 -0.509,0.611 0,0 0.08,2.789 0.054,2.778 -0.164,0.039 -0.475,0.137 -0.609,0.226 0,0.01 0.074,-2.988 0.074,-2.988 0,0 -0.433,-0.436 -0.437,-0.582 -0.003,-0.144 0.583,-2.317 0.714,-2.317 0.131,0 0.709,2.132 0.713,2.272 m -0.142,3.854 c 0.126,-0.039 0.249,0.063 0.273,0.173 0,0.074 -0.059,0.166 -0.063,0.244 -0.006,0.084 0.042,0.158 0.032,0.242 -0.013,0.085 -0.091,0.197 -0.109,0.275 -0.046,0.189 -0.049,0.319 -0.132,0.383 -0.129,0.109 -0.943,0.625 -1.493,0.748 -0.101,0.024 -0.196,1.061 -0.205,1.158 -0.034,0.476 -0.007,0.959 -0.04,1.435 -0.045,0.62 -0.015,1.317 -0.131,1.923 -0.089,0.482 -0.816,0.825 -1.293,0.825 -0.285,0 0.199,-2.396 0.233,-2.578 0.233,-1.121 0.448,-2.221 0.958,-3.261 0.385,-0.784 1.109,-1.359 1.97,-1.567 M 157.396,20.37 c 7.131,3.134 11.49,12.358 11.066,18.995 -0.176,0.038 -0.377,0.077 -0.584,0.116 l -0.443,0.073 -0.439,0.074 c -1.039,0.17 -2.164,0.313 -2.836,0.391 -0.023,-0.665 -0.09,-1.335 -0.195,-2.008 l -0.076,-0.434 -0.078,-0.439 c -1.232,-6.018 -5.369,-11.873 -8.926,-13.447 0.324,-0.43 0.712,-0.937 1.087,-1.438 0.52,-0.679 1.049,-1.38 1.424,-1.883 m -11.452,-1.713 c 4.392,0 7.578,1.445 9.575,2.766 -0.079,0.103 -0.156,0.208 -0.237,0.31 -0.524,0.69 -1.069,1.405 -1.434,1.899 -0.084,0.113 -0.106,0.26 -0.063,0.392 0.033,0.108 0.29,0.524 0.397,0.662 0.368,0.469 1.063,0.997 0.782,1.429 -0.076,0.124 -0.186,0.181 -0.307,0.199 -1.025,-0.972 -4.136,-3.216 -8.433,-3.216 -3.815,0 -6.612,1.771 -7.941,2.804 -0.214,0.147 -0.362,0.281 -0.369,0.281 -0.048,0 -0.277,-0.168 -0.247,-0.397 0.028,-0.216 0.237,-0.36 0.376,-0.511 0.108,-0.117 0.221,-0.236 0.317,-0.36 0.273,-0.349 0.354,-0.944 0.097,-1.282 -0.371,-0.489 -0.906,-1.209 -1.434,-1.899 -0.122,-0.158 -0.243,-0.319 -0.361,-0.48 1.935,-1.261 4.996,-2.597 9.282,-2.597 m -22.101,20.708 c -0.42,-6.637 3.938,-15.861 11.066,-18.995 0.374,0.503 0.908,1.204 1.428,1.884 0.377,0.501 0.764,1.007 1.085,1.438 -3.554,1.574 -7.693,7.433 -8.923,13.45 l -0.158,0.874 c -0.101,0.669 -0.168,1.339 -0.192,2.004 -0.677,-0.077 -1.814,-0.225 -2.861,-0.395 l -0.882,-0.148 c -0.2,-0.039 -0.39,-0.074 -0.563,-0.112 m -0.291,12.317 c 0.063,0 0.129,0.004 0.19,0.011 0.156,0.012 0.279,0.012 0.348,-0.025 0.324,-0.188 0.083,-0.676 -0.168,-1.162 -0.008,-0.016 -0.015,-0.033 -0.023,-0.047 -0.175,-0.338 -0.374,-0.721 -0.277,-0.849 0.047,-0.06 0.1,-0.086 0.179,-0.086 0.104,0 0.229,0.047 0.354,0.091 0.133,0.045 0.273,0.095 0.404,0.095 0.088,0 0.166,-0.026 0.229,-0.075 0.171,-0.134 0.152,-0.524 0.117,-0.916 -0.008,-0.073 -0.01,-0.133 -0.01,-0.172 0,-0.162 0.023,-0.542 0.289,-0.61 l 0.103,-0.006 c 0.178,0.018 0.301,0.2 0.381,0.545 0.006,0.036 0.017,0.089 0.027,0.151 0.063,0.399 0.141,0.795 0.335,0.896 0.05,0.024 0.101,0.039 0.158,0.039 0.15,0 0.296,-0.089 0.435,-0.177 0.188,-0.116 0.358,-0.212 0.483,-0.094 0.119,0.111 -0.005,0.523 -0.117,0.887 -0.165,0.537 -0.333,1.097 0.03,1.222 0.081,0.032 0.209,0 0.345,-0.039 0.107,-0.029 0.213,-0.056 0.314,-0.056 0.136,0 0.222,0.056 0.278,0.183 0.126,0.296 -0.003,0.508 -0.155,0.752 -0.075,0.124 -0.199,0.267 -0.334,0.418 -0.334,0.389 -0.715,0.824 -0.536,1.163 0.073,0.147 0.195,0.204 0.299,0.251 0.107,0.049 0.197,0.091 0.234,0.214 0.025,0.079 -0.051,0.37 -0.718,1.462 -0.177,-0.232 -0.392,-0.433 -0.63,-0.541 -0.314,-1.625 -0.574,-3.372 -0.55,-4.261 -0.03,-0.33 -0.243,-0.281 -0.276,0.084 -0.167,0.903 -0.089,2.552 0.159,4.123 -0.049,0.015 -0.095,0.031 -0.142,0.056 l -0.017,0.008 c -0.166,0.08 -0.292,0.195 -0.384,0.342 -0.392,-0.431 -0.745,-0.85 -0.73,-0.97 0.018,-0.131 0.093,-0.187 0.192,-0.253 0.093,-0.07 0.2,-0.146 0.25,-0.304 0.116,-0.365 -0.342,-0.726 -0.737,-1.046 -0.161,-0.126 -0.312,-0.247 -0.404,-0.353 -0.226,-0.247 -0.356,-0.415 -0.289,-0.708 0.039,-0.174 0.144,-0.243 0.364,-0.243 m 14.299,29.091 c 0.254,-0.263 0.589,-0.898 0.91,-1.587 0.308,0.079 0.616,0.149 0.927,0.215 -0.236,0.544 -0.482,1.076 -0.712,1.503 -0.424,-0.062 -0.813,-0.107 -1.125,-0.131 m 2.792,0.415 c -0.328,-0.063 -0.662,-0.126 -0.994,-0.18 0.183,-0.328 0.396,-0.884 0.607,-1.49 0.352,0.065 0.701,0.127 1.057,0.182 -0.18,0.53 -0.4,1.051 -0.67,1.488 m 1.689,0.418 c -0.287,-0.093 -0.62,-0.182 -0.978,-0.267 0.225,-0.316 0.448,-0.894 0.624,-1.541 0.351,0.045 0.699,0.083 1.055,0.117 -0.184,0.657 -0.446,1.316 -0.701,1.691 m 7.796,0 c -0.255,-0.373 -0.51,-0.988 -0.699,-1.658 0.359,-0.035 0.712,-0.073 1.066,-0.116 0.176,0.635 0.391,1.197 0.61,1.508 -0.356,0.085 -0.69,0.174 -0.977,0.266 m 1.685,-0.418 c -0.261,-0.427 -0.479,-0.933 -0.655,-1.45 0.354,-0.054 0.702,-0.118 1.051,-0.185 0.197,0.6 0.414,1.134 0.599,1.455 -0.331,0.055 -0.667,0.118 -0.995,0.18 m 2.797,-0.415 c -0.315,0.023 -0.702,0.068 -1.124,0.131 -0.229,-0.417 -0.474,-0.932 -0.701,-1.467 0.313,-0.065 0.615,-0.138 0.922,-0.215 0.308,0.681 0.648,1.289 0.903,1.551 m 17.228,-24.117 c -0.736,3.565 -2.336,8.771 -5.783,13.316 -4.652,6.134 -11.239,9.242 -19.579,9.242 h -0.014 c -8.794,-0.002 -15.626,-3.108 -20.308,-9.232 -3.388,-4.428 -4.881,-9.483 -5.538,-12.943 -0.641,-3.35 -0.714,-6.439 -0.462,-8.184 0.016,-0.105 0.105,-0.307 0.393,-0.236 0.588,0.141 1.437,0.366 2.264,0.578 -0.034,0.089 -0.053,0.193 -0.051,0.31 0.017,0.5 0.292,1.033 0.513,1.44 -0.099,0 -0.401,0.021 -0.658,0.21 -0.381,0.277 -0.333,0.742 -0.314,0.895 0.086,0.785 0.776,1.352 1.279,1.765 0.061,0.049 0.117,0.098 0.17,0.142 -0.144,0.112 -0.385,0.368 -0.398,0.566 -0.016,0.254 0.434,0.782 0.956,1.297 -0.437,0.079 -0.761,0.461 -0.761,0.915 0,0.345 0.187,0.646 0.466,0.807 -0.197,0.198 -0.235,0.438 -0.115,0.726 0.188,0.461 0.632,0.863 0.988,1.161 -0.154,0.062 -0.395,0.199 -0.546,0.432 -0.26,0.398 -0.045,0.814 0.024,0.95 0.358,0.703 1.201,0.987 1.82,1.198 0.072,0.025 0.144,0.047 0.207,0.071 -0.049,0.084 -0.097,0.193 -0.099,0.201 -0.056,0.136 -0.114,0.328 -0.073,0.468 0.073,0.23 0.63,0.546 1.259,0.834 -0.171,0.171 -0.274,0.401 -0.274,0.659 0,0.509 0.405,0.916 0.904,0.935 -0.037,0.193 0.027,0.381 0.193,0.565 0.339,0.367 0.897,0.594 1.326,0.756 -0.126,0.111 -0.3,0.329 -0.358,0.582 -0.107,0.467 0.235,0.783 0.346,0.889 0.481,0.445 1.182,0.502 1.74,0.502 0.133,0 0.261,0 0.383,-0.009 0.077,0 0.149,0 0.219,-0.001 -0.003,0.013 -0.005,0.033 -0.009,0.052 -0.018,0.133 -0.047,0.468 0.08,0.638 0.158,0.207 0.899,0.313 1.666,0.361 -0.086,0.143 -0.139,0.308 -0.139,0.484 0,0.514 0.418,0.933 0.933,0.933 0.067,0 0.129,-0.008 0.191,-0.017 -0.05,0.306 0.067,0.536 0.365,0.695 0.441,0.233 1.041,0.257 1.503,0.27 -0.089,0.146 -0.175,0.419 -0.146,0.672 0.054,0.473 0.485,0.655 0.623,0.72 0.201,0.088 0.424,0.129 0.671,0.129 0.53,0 1.065,-0.199 1.498,-0.369 0.071,-0.026 0.139,-0.053 0.205,-0.073 0.002,0.011 0.002,0.025 0.007,0.042 0.026,0.134 0.107,0.465 0.288,0.581 0.069,0.045 0.173,0.067 0.333,0.067 0.681,0 2.124,-0.416 2.806,-0.634 0.112,0.771 0.416,1.466 0.954,1.807 0.324,0.205 4.524,0.19 4.837,0.021 0.161,-0.091 0.303,-0.222 0.428,-0.381 0.002,-0.003 0.006,-0.003 0.008,-0.01 0.262,-0.342 0.444,-0.82 0.548,-1.35 0.707,0.223 2.089,0.611 2.739,0.611 0.156,0 0.268,-0.018 0.332,-0.064 0.176,-0.116 0.261,-0.441 0.285,-0.571 0.006,-0.021 0.009,-0.037 0.012,-0.057 0.064,0.028 0.136,0.054 0.205,0.077 0.429,0.17 0.967,0.371 1.496,0.371 0.245,0 0.471,-0.044 0.67,-0.131 0.14,-0.061 0.57,-0.247 0.623,-0.716 0.029,-0.257 -0.059,-0.527 -0.146,-0.68 0.461,-0.006 1.063,-0.03 1.504,-0.262 0.324,-0.175 0.436,-0.437 0.35,-0.787 0.086,0.022 0.18,0.042 0.28,0.042 0.514,0 0.929,-0.418 0.929,-0.934 0,-0.185 -0.051,-0.349 -0.143,-0.494 0.723,-0.053 1.393,-0.154 1.543,-0.354 0.129,-0.174 0.1,-0.505 0.076,-0.646 -0.002,-0.013 -0.004,-0.031 -0.004,-0.044 0.066,10e-4 0.141,10e-4 0.217,10e-4 0.123,0.009 0.248,0.009 0.385,0.009 0.555,0 1.256,-0.057 1.738,-0.502 0.111,-0.105 0.455,-0.422 0.352,-0.889 -0.063,-0.253 -0.232,-0.471 -0.367,-0.582 0.436,-0.162 0.99,-0.389 1.332,-0.756 0.17,-0.188 0.232,-0.382 0.186,-0.591 0.416,-0.092 0.73,-0.461 0.73,-0.909 0,-0.229 -0.086,-0.438 -0.223,-0.602 0.682,-0.304 1.309,-0.642 1.389,-0.892 0.041,-0.14 -0.02,-0.332 -0.072,-0.468 -0.008,-0.008 -0.055,-0.117 -0.1,-0.201 0.064,-0.024 0.135,-0.046 0.205,-0.071 0.619,-0.211 1.467,-0.495 1.824,-1.198 0.068,-0.136 0.283,-0.552 0.02,-0.95 -0.148,-0.232 -0.389,-0.37 -0.543,-0.432 0.354,-0.298 0.797,-0.7 0.988,-1.161 0.107,-0.268 0.086,-0.492 -0.08,-0.683 0.324,-0.149 0.551,-0.474 0.551,-0.85 0,-0.489 -0.383,-0.89 -0.867,-0.93 0.514,-0.512 0.957,-1.028 0.939,-1.282 -0.014,-0.198 -0.254,-0.454 -0.396,-0.566 0.053,-0.044 0.111,-0.093 0.17,-0.142 0.504,-0.413 1.193,-0.979 1.279,-1.765 0.018,-0.152 0.068,-0.617 -0.313,-0.895 -0.258,-0.188 -0.561,-0.21 -0.66,-0.21 0.221,-0.407 0.496,-0.94 0.512,-1.44 0,-0.095 -0.01,-0.179 -0.033,-0.256 0.137,-0.042 0.266,-0.086 0.355,-0.114 0.76,-0.239 1.518,-0.476 2.086,-0.658 0.309,-0.099 0.527,0.096 0.541,0.239 0.149,1.504 0.077,4.34 -0.665,7.94"
         id="path107"
         inkscape:connector-curvature="0"
         style="fill:#010202" /><path
         d="m 179.861,30.093 v 6.337 c 0,0.257 0.012,0.566 0.037,0.93 0.023,0.365 0.102,0.708 0.227,1.034 0.133,0.325 0.336,0.601 0.619,0.831 0.283,0.231 0.756,0.34 1.426,0.329 0.57,0 1.02,-0.092 1.338,-0.271 0.324,-0.184 0.566,-0.423 0.734,-0.719 0.166,-0.296 0.262,-0.624 0.285,-0.979 0.023,-0.36 0.037,-0.712 0.037,-1.057 v -6.436 h 1.133 v 6.454 c 0,0.446 -0.029,0.895 -0.086,1.339 -0.057,0.442 -0.201,0.845 -0.43,1.205 -0.23,0.359 -0.576,0.648 -1.043,0.873 -0.463,0.227 -1.121,0.338 -1.969,0.338 -1.035,0 -1.771,-0.1 -2.215,-0.297 -0.443,-0.193 -0.77,-0.46 -0.973,-0.802 -0.209,-0.337 -0.332,-0.737 -0.375,-1.197 -0.043,-0.459 -0.064,-0.948 -0.064,-1.477 l -0.031,-6.436 h 1.35 z"
         id="path109"
         inkscape:connector-curvature="0"
         style="fill:#010202" /><polygon
         points="189.537,30.093 193.756,38.221 193.785,38.221 193.785,30.093 194.988,30.093 194.988,40.13 193.568,40.13 188.836,31.209 188.809,31.209 188.809,40.13 187.607,40.13 187.607,30.093 "
         id="polygon111"
         style="fill:#010202" /><rect
         x="197.02699"
         y="30.093"
         width="1.252"
         height="10.037"
         id="rect113"
         style="fill:#010202" /><polygon
         points="201.238,30.106 204.045,37.893 204.074,37.893 206.703,30.093 207.805,30.106 204.348,40.13 203.441,40.13 199.689,30.106 "
         id="polygon115"
         style="fill:#010202" /><polygon
         points="209.1,40.13 209.1,30.093 214.189,30.093 214.189,30.893 210.361,30.893 210.361,34.444 213.99,34.444 213.99,35.285 210.361,35.285 210.361,39.263 214.318,39.263 214.318,40.13 "
         id="polygon117"
         style="fill:#010202" /><path
         d="m 222.133,40.13 h -1.322 l -2.498,-4.763 h -0.938 v 4.763 h -1.334 V 30.093 h 2.697 c 0.439,0.006 0.852,0.049 1.238,0.117 0.391,0.067 0.729,0.186 1.018,0.363 0.295,0.179 0.523,0.425 0.688,0.753 0.17,0.324 0.254,0.747 0.254,1.261 -0.01,0.621 -0.145,1.111 -0.396,1.469 -0.262,0.359 -0.508,0.601 -0.875,0.803 -0.203,0.116 -0.75,0.343 -1.047,0.399 l 2.515,4.872 z m -4.758,-5.638 h 0.77 c 0.307,0 0.602,-0.014 0.889,-0.042 0.285,-0.032 0.547,-0.102 0.775,-0.218 0.227,-0.114 0.414,-0.293 0.551,-0.535 0.139,-0.244 0.213,-0.699 0.213,-1.111 0,-0.651 -0.172,-1.109 -0.51,-1.377 -0.332,-0.268 -0.787,-0.402 -1.355,-0.402 h -1.332 v 3.685 z"
         id="path119"
         inkscape:connector-curvature="0"
         style="fill:#010202" /><path
         d="m 228.711,31.199 c -0.836,-0.388 -1.514,-0.476 -2.252,-0.476 -0.512,0 -1.061,0.135 -1.387,0.402 -0.322,0.268 -0.488,0.632 -0.488,1.09 0,0.39 0.119,0.717 0.361,0.982 0.238,0.265 0.527,0.504 0.877,0.719 0.352,0.21 0.73,0.419 1.141,0.617 0.414,0.193 0.795,0.404 1.15,0.637 0.354,0.228 0.643,0.522 0.881,0.88 0.234,0.358 0.352,0.814 0.352,1.368 0,0.517 -0.098,0.953 -0.287,1.313 -0.197,0.36 -0.451,0.655 -0.773,0.888 -0.328,0.237 -0.697,0.405 -1.123,0.512 -0.42,0.102 -0.857,0.158 -1.314,0.158 -0.248,0 -0.502,-0.014 -0.752,-0.034 -0.256,-0.029 -0.488,-0.058 -0.697,-0.089 -0.209,-0.035 -0.395,-0.067 -0.545,-0.103 -0.15,-0.031 -0.26,-0.06 -0.316,-0.078 v -1.088 c 0.811,0.397 1.596,0.549 2.51,0.549 1.287,0 2.023,-0.689 2.023,-1.797 0,-0.411 -0.121,-0.742 -0.352,-0.996 -0.236,-0.252 -0.523,-0.493 -0.861,-0.711 -0.338,-0.218 -0.707,-0.427 -1.107,-0.624 -0.395,-0.194 -0.768,-0.42 -1.107,-0.672 -0.344,-0.254 -0.629,-0.55 -0.861,-0.888 -0.229,-0.339 -0.344,-0.771 -0.344,-1.297 0,-0.824 0.285,-1.451 0.854,-1.881 0.568,-0.429 1.328,-0.644 2.283,-0.644 0.475,0 0.893,0.028 1.262,0.081 0.375,0.053 0.668,0.105 0.875,0.166 v 1.016 z"
         id="path121"
         inkscape:connector-curvature="0"
         style="fill:#010202" /><rect
         x="230.871"
         y="30.093"
         width="1.2460001"
         height="10.037"
         id="rect123"
         style="fill:#010202" /><path
         d="m 233.924,30.093 h 1.602 c 0.76,0.006 1.457,0.065 2.104,0.172 0.645,0.102 1.201,0.328 1.67,0.667 0.467,0.342 0.834,0.828 1.098,1.462 0.264,0.634 0.393,1.486 0.393,2.542 0,1.315 -0.137,2.283 -0.406,2.921 -0.273,0.635 -0.65,1.119 -1.127,1.455 -0.48,0.335 -1.039,0.553 -1.693,0.658 -0.645,0.105 -1.346,0.159 -2.088,0.159 h -1.551 V 30.093 z m 1.262,9.261 h 0.746 c 1.137,0 1.986,-0.317 2.549,-0.944 0.566,-0.631 0.85,-1.776 0.85,-3.43 0,-0.582 -0.055,-1.118 -0.154,-1.61 -0.102,-0.495 -0.268,-0.934 -0.508,-1.326 -0.236,-0.395 -0.566,-0.691 -0.973,-0.891 -0.414,-0.2 -0.928,-0.3 -1.549,-0.3 h -0.961 v 8.501 z"
         id="path125"
         inkscape:connector-curvature="0"
         style="fill:#010202" /><path
         d="m 242.117,40.13 -1.104,-0.014 3.559,-10.023 h 0.84 l 3.65,10.023 h -1.48 c -0.096,-0.259 -0.207,-0.568 -0.34,-0.935 -0.129,-0.363 -0.252,-0.712 -0.377,-1.046 -0.145,-0.384 -0.291,-0.782 -0.443,-1.205 h -3.17 l -1.135,3.2 z m 4.106,-3.928 -1.352,-3.873 h -0.029 l -1.361,3.873 h 2.742 z"
         id="path127"
         inkscape:connector-curvature="0"
         style="fill:#010202" /><path
         d="m 250.211,30.093 h 1.607 c 0.756,0.006 1.459,0.065 2.104,0.172 0.645,0.102 1.199,0.328 1.67,0.667 0.465,0.342 0.832,0.828 1.094,1.462 0.266,0.634 0.396,1.486 0.396,2.542 0,1.315 -0.137,2.283 -0.41,2.921 -0.271,0.635 -0.646,1.119 -1.127,1.455 -0.473,0.335 -1.039,0.553 -1.689,0.658 -0.652,0.105 -1.35,0.159 -2.096,0.159 h -1.549 V 30.093 z m 1.268,9.261 h 0.744 c 1.137,0 1.99,-0.317 2.547,-0.944 0.564,-0.631 0.848,-1.776 0.848,-3.43 0,-0.582 -0.049,-1.118 -0.152,-1.61 -0.096,-0.495 -0.27,-0.934 -0.504,-1.326 -0.24,-0.395 -0.563,-0.691 -0.979,-0.891 -0.412,-0.2 -0.924,-0.3 -1.547,-0.3 h -0.957 v 8.501 z"
         id="path129"
         inkscape:connector-curvature="0"
         style="fill:#010202" /><polygon
         points="180.531,45.495 184.748,53.626 184.779,53.626 184.779,45.495 185.984,45.495 185.984,55.535 184.563,55.535 179.832,46.615 179.801,46.615 179.801,55.535 178.6,55.535 178.6,45.495 "
         id="polygon131"
         style="fill:#010202" /><polygon
         points="218.08,45.495 222.299,53.626 222.33,53.626 222.33,45.495 223.535,45.495 223.535,55.535 222.115,55.535 217.381,46.615 217.354,46.615 217.354,55.535 216.152,55.535 216.152,45.495 "
         id="polygon133"
         style="fill:#010202" /><path
         d="m 188.422,55.506 -1.105,-0.013 3.559,-10.023 h 0.838 l 3.654,10.023 h -1.484 c -0.094,-0.257 -0.207,-0.572 -0.338,-0.935 -0.125,-0.362 -0.254,-0.708 -0.379,-1.043 -0.143,-0.384 -0.293,-0.784 -0.443,-1.207 h -3.17 l -1.132,3.198 z m 4.101,-3.926 -1.35,-3.872 h -0.027 l -1.361,3.872 h 2.738 z"
         id="path135"
         inkscape:connector-curvature="0"
         style="fill:#010202" /><path
         d="m 225.98,55.506 -1.102,-0.013 3.553,-10.023 h 0.838 l 3.656,10.023 h -1.482 c -0.098,-0.257 -0.211,-0.572 -0.34,-0.935 -0.127,-0.362 -0.256,-0.708 -0.379,-1.043 -0.143,-0.384 -0.293,-0.784 -0.443,-1.207 h -3.168 l -1.133,3.198 z m 4.098,-3.926 -1.348,-3.872 h -0.027 l -1.361,3.872 h 2.736 z"
         id="path137"
         inkscape:connector-curvature="0"
         style="fill:#010202" /><path
         d="m 199.65,54.921 c 0.633,-0.017 1.115,-0.093 1.451,-0.23 0.332,-0.141 0.613,-0.27 0.842,-0.386 v 1.075 c -0.055,0.022 -0.16,0.046 -0.316,0.074 -0.15,0.027 -0.334,0.06 -0.539,0.096 -0.213,0.031 -0.441,0.061 -0.689,0.083 -0.25,0.026 -0.498,0.036 -0.748,0.036 -0.756,0 -1.381,-0.127 -1.871,-0.38 -0.49,-0.255 -0.883,-0.606 -1.17,-1.062 -0.297,-0.451 -0.498,-1.01 -0.619,-1.669 -0.119,-0.659 -0.18,-1.356 -0.18,-2.094 0,-0.785 0.064,-1.493 0.193,-2.125 0.129,-0.629 0.346,-1.165 0.635,-1.602 0.299,-0.44 0.689,-0.778 1.18,-1.019 0.486,-0.239 1.098,-0.362 1.832,-0.362 0.213,0.015 0.443,0.028 0.689,0.052 0.25,0.026 0.479,0.054 0.688,0.09 0.211,0.031 0.391,0.063 0.549,0.091 0.15,0.028 0.254,0.054 0.313,0.07 v 1.103 c -0.23,-0.112 -0.514,-0.238 -0.846,-0.378 -0.336,-0.141 -0.764,-0.217 -1.295,-0.235 -0.59,-0.017 -1.043,0.106 -1.355,0.381 -0.314,0.271 -0.553,0.616 -0.703,1.035 -0.154,0.423 -0.248,0.892 -0.287,1.406 -0.039,0.518 -0.059,1.023 -0.059,1.509 0,0.437 0.018,0.934 0.053,1.475 0.029,0.547 0.121,1.034 0.271,1.463 0.146,0.431 0.379,0.789 0.691,1.078 0.318,0.285 0.747,0.425 1.29,0.425"
         id="path139"
         inkscape:connector-curvature="0"
         style="fill:#010202" /><rect
         x="203.85001"
         y="45.473999"
         width="1.248"
         height="10.04"
         id="rect141"
         style="fill:#010202" /><path
         d="m 210.641,55.669 c -0.758,0 -1.377,-0.127 -1.873,-0.38 -0.492,-0.255 -0.885,-0.606 -1.176,-1.062 -0.289,-0.451 -0.494,-1.01 -0.615,-1.669 -0.119,-0.659 -0.18,-1.356 -0.18,-2.094 0,-0.785 0.064,-1.493 0.195,-2.125 0.125,-0.629 0.338,-1.165 0.639,-1.602 0.293,-0.44 0.688,-0.778 1.176,-1.019 0.486,-0.239 1.098,-0.362 1.834,-0.362 0.734,0 1.348,0.134 1.834,0.392 0.488,0.258 0.877,0.612 1.168,1.066 0.293,0.455 0.498,0.994 0.621,1.613 0.129,0.62 0.188,1.297 0.188,2.036 0,0.783 -0.064,1.507 -0.189,2.171 -0.131,0.664 -0.34,1.215 -0.631,1.659 -0.295,0.438 -0.684,0.775 -1.172,1.012 -0.487,0.245 -1.093,0.364 -1.819,0.364 m 0,-0.748 c 0.533,0 0.955,-0.133 1.262,-0.407 0.305,-0.271 0.537,-0.616 0.688,-1.039 0.154,-0.419 0.248,-0.905 0.287,-1.455 0.039,-0.546 0.059,-1.064 0.059,-1.539 0,-0.441 -0.02,-0.92 -0.053,-1.434 -0.033,-0.52 -0.127,-0.991 -0.281,-1.42 -0.152,-0.432 -0.381,-0.79 -0.688,-1.075 -0.307,-0.289 -0.73,-0.433 -1.273,-0.433 -0.527,0 -0.949,0.137 -1.262,0.411 -0.314,0.271 -0.551,0.616 -0.705,1.035 -0.152,0.423 -0.25,0.892 -0.285,1.406 -0.039,0.518 -0.057,1.023 -0.057,1.509 0,0.437 0.016,0.934 0.049,1.475 0.033,0.547 0.125,1.034 0.275,1.463 0.145,0.431 0.379,0.789 0.691,1.078 0.318,0.285 0.746,0.425 1.293,0.425"
         id="path143"
         inkscape:connector-curvature="0"
         style="fill:#010202" /><polygon
         points="235.6,54.676 239.098,54.676 239.098,55.514 234.309,55.514 234.309,45.474 235.6,45.474 "
         id="polygon145"
         style="fill:#010202" /><polygon
         points="186.754,70.892 186.754,60.858 191.844,60.858 191.844,61.655 188.018,61.655 188.018,65.208 191.645,65.208 191.645,66.052 188.018,66.052 188.018,70.025 191.975,70.025 191.975,70.892 "
         id="polygon147"
         style="fill:#010202" /><path
         d="m 204.127,70.892 -1.105,-0.011 3.557,-10.022 h 0.842 l 3.652,10.022 h -1.48 c -0.096,-0.262 -0.213,-0.566 -0.336,-0.934 -0.135,-0.362 -0.26,-0.711 -0.383,-1.048 -0.143,-0.379 -0.293,-0.78 -0.445,-1.203 h -3.168 l -1.134,3.196 z m 4.102,-3.929 -1.35,-3.869 h -0.027 l -1.363,3.869 h 2.74 z"
         id="path149"
         inkscape:connector-curvature="0"
         style="fill:#010202" /><path
         d="m 229.688,70.892 -1.104,-0.011 3.557,-10.022 h 0.84 l 3.654,10.022 h -1.482 c -0.1,-0.262 -0.213,-0.566 -0.34,-0.934 -0.129,-0.362 -0.256,-0.711 -0.381,-1.048 -0.145,-0.379 -0.293,-0.78 -0.443,-1.203 h -3.168 l -1.133,3.196 z m 4.097,-3.929 -1.346,-3.869 h -0.031 l -1.361,3.869 h 2.738 z"
         id="path151"
         inkscape:connector-curvature="0"
         style="fill:#010202" /><path
         d="m 242.982,70.892 -1.107,-0.011 3.559,-10.022 h 0.84 l 3.654,10.022 h -1.479 c -0.104,-0.262 -0.215,-0.566 -0.342,-0.934 -0.129,-0.362 -0.256,-0.711 -0.381,-1.048 -0.143,-0.379 -0.291,-0.78 -0.443,-1.203 h -3.17 l -1.131,3.196 z m 4.102,-3.929 -1.352,-3.869 h -0.027 l -1.361,3.869 h 2.74 z"
         id="path153"
         inkscape:connector-curvature="0"
         style="fill:#010202" /><polygon
         points="199.141,70.059 202.637,70.059 202.637,70.894 197.848,70.894 197.848,60.858 199.141,60.858 "
         id="polygon155"
         style="fill:#010202" /><polygon
         points="224.584,70.059 228.082,70.059 228.082,70.894 223.291,70.894 223.291,60.858 224.584,60.858 "
         id="polygon157"
         style="fill:#010202" /><path
         d="m 178.6,60.858 h 1.605 c 0.758,0.008 1.457,0.063 2.1,0.173 0.646,0.104 1.203,0.326 1.672,0.665 0.467,0.339 0.832,0.828 1.094,1.461 0.264,0.64 0.396,1.487 0.396,2.545 0,1.314 -0.137,2.286 -0.408,2.92 -0.275,0.631 -0.646,1.122 -1.123,1.456 -0.479,0.333 -1.045,0.553 -1.697,0.658 -0.648,0.105 -1.348,0.155 -2.092,0.155 H 178.6 V 60.858 z m 1.261,9.262 h 0.746 c 1.137,0 1.986,-0.318 2.551,-0.947 0.566,-0.632 0.848,-1.772 0.848,-3.426 0,-0.585 -0.053,-1.123 -0.15,-1.615 -0.1,-0.49 -0.271,-0.93 -0.514,-1.323 -0.234,-0.394 -0.559,-0.689 -0.975,-0.89 -0.408,-0.202 -0.926,-0.302 -1.545,-0.302 h -0.961 v 8.503 z"
         id="path159"
         inkscape:connector-curvature="0"
         style="fill:#010202" /><polygon
         points="239.891,61.738 239.891,70.892 238.559,70.892 238.559,61.738 235.633,61.738 235.633,60.858 242.891,60.858 242.891,61.738 "
         id="polygon161"
         style="fill:#010202" /><path
         d="m 217.42,66.642 v 4.239 h -1.334 V 60.858 h 1.979 c 0.514,0 0.885,0 1.387,0.028 1.805,0.085 2.678,1.29 2.678,2.863 0,1.574 -0.873,2.778 -2.678,2.864 -0.502,0.027 -0.873,0.027 -1.387,0.027 h -0.645 z m 0,-0.76 h 0.555 c 0.273,0 0.635,0 0.916,-0.028 1.336,-0.1 1.865,-0.945 1.865,-2.104 0,-1.159 -0.529,-2.004 -1.865,-2.105 -0.281,-0.029 -0.643,-0.029 -0.916,-0.029 h -0.555 v 4.266 z"
         id="path163"
         inkscape:connector-curvature="0"
         style="fill:#010202" /><path
         d="m 129.143,69.447 c 0.159,-0.127 0.219,-0.279 0.182,-0.444 -0.039,-0.157 -0.139,-0.342 -0.319,-0.561 l -0.336,-0.427 -1.408,1.128 0.303,0.382 0.582,-0.465 0.033,0.04 c 0.146,0.185 0.3,0.322 0.452,0.41 0.165,0.096 0.343,0.075 0.511,-0.063 m -0.519,-0.321 c -0.072,-0.027 -0.15,-0.091 -0.231,-0.192 l -0.034,-0.043 0.4,-0.321 0.034,0.041 c 0.087,0.114 0.139,0.206 0.148,0.272 0.008,0.064 -0.025,0.125 -0.097,0.185 -0.087,0.066 -0.161,0.086 -0.22,0.058"
         id="path165"
         inkscape:connector-curvature="0"
         style="fill:#010202" /><path
         d="m 130.182,71.096 c 0.2,-0.202 0.31,-0.412 0.319,-0.638 0.013,-0.226 -0.089,-0.448 -0.306,-0.663 -0.217,-0.219 -0.439,-0.327 -0.662,-0.313 -0.219,0.012 -0.434,0.117 -0.639,0.32 -0.204,0.202 -0.309,0.417 -0.323,0.64 -0.009,0.225 0.094,0.446 0.308,0.66 0.183,0.188 0.372,0.291 0.562,0.312 0.032,0 0.068,0.004 0.1,0 0.224,-0.012 0.438,-0.118 0.641,-0.318 m -0.072,-0.789 c -0.035,0.131 -0.133,0.274 -0.287,0.43 -0.157,0.155 -0.301,0.249 -0.429,0.289 -0.043,0.007 -0.083,0.014 -0.123,0.007 -0.074,-0.002 -0.144,-0.042 -0.211,-0.11 -0.098,-0.099 -0.127,-0.207 -0.093,-0.33 0.037,-0.134 0.132,-0.277 0.285,-0.431 0.159,-0.153 0.305,-0.253 0.434,-0.285 0.041,-0.013 0.079,-0.018 0.121,-0.013 0.073,0.01 0.14,0.045 0.209,0.112 0.097,0.098 0.13,0.209 0.094,0.331"
         id="path167"
         inkscape:connector-curvature="0"
         style="fill:#010202" /><path
         d="m 131.298,70.835 -0.384,-0.349 -1.205,1.342 0.363,0.324 0.501,-0.558 0.057,0.055 c 0.098,0.089 0.153,0.168 0.153,0.229 0,0.073 -0.042,0.182 -0.118,0.327 l -0.177,0.319 0.364,0.328 0.245,-0.47 c 0.063,-0.119 0.095,-0.22 0.103,-0.31 0.007,-0.052 -0.008,-0.107 -0.035,-0.168 0.084,0.032 0.161,0.041 0.229,0.037 0.106,-0.009 0.192,-0.053 0.261,-0.13 0.134,-0.147 0.158,-0.301 0.075,-0.472 -0.08,-0.149 -0.226,-0.32 -0.432,-0.504 m -0.021,0.673 c -0.069,0.074 -0.142,0.101 -0.21,0.085 -0.083,-0.023 -0.18,-0.08 -0.292,-0.18 l -0.02,-0.021 0.337,-0.374 0.026,0.021 c 0.107,0.1 0.179,0.184 0.216,0.261 0.03,0.063 0.012,0.13 -0.057,0.208"
         id="path169"
         inkscape:connector-curvature="0"
         style="fill:#010202" /><polygon
         points="132.991,72.236 132.605,71.943 131.516,73.377 132.524,74.144 132.701,73.906 132.084,73.438 "
         id="polygon171"
         style="fill:#010202" /><path
         d="m 132.59,74.186 0.386,0.231 0.415,-0.318 0.547,0.334 -0.098,0.51 0.445,0.269 0.284,-1.937 -0.396,-0.24 -1.583,1.151 z m 1.404,-0.039 -0.375,-0.226 0.491,-0.381 -0.116,0.607 z"
         id="path173"
         inkscape:connector-curvature="0"
         style="fill:#010202" /><rect
         x="135.911"
         y="75.171997"
         transform="matrix(0.331,-0.9436,0.9436,0.331,20.365,179.5563)"
         width="1.803"
         height="0.48699999"
         id="rect175"
         style="fill:#010202" /><polygon
         points="138.833,75.115 137.584,74.731 137.054,76.457 138.33,76.848 138.417,76.562 137.607,76.312 137.754,75.842 138.494,76.07 138.579,75.795 137.84,75.566 137.963,75.15 138.746,75.394 "
         id="polygon177"
         style="fill:#010202" /><polygon
         points="139.471,75.281 138.986,75.165 138.552,76.911 138.956,77.012 139.254,75.83 139.706,77.198 140.159,77.307 140.588,75.559 140.185,75.456 139.903,76.581 "
         id="polygon179"
         style="fill:#010202" /><rect
         x="142.31"
         y="75.916"
         transform="matrix(-0.9893,-0.1459,0.1459,-0.9893,272.3767,173.6101)"
         width="0.48899999"
         height="1.801"
         id="rect181"
         style="fill:#010202" /><path
         d="m 143.692,76.048 -0.934,1.721 0.452,0.046 0.234,-0.465 0.636,0.063 0.132,0.505 0.518,0.048 -0.581,-1.867 -0.457,-0.051 z m -0.12,1.04 0.278,-0.55 0.155,0.597 -0.433,-0.047 z"
         id="path183"
         inkscape:connector-curvature="0"
         style="fill:#010202" /><polygon
         points="146.495,76.802 146.079,76.211 145.512,76.211 146.204,77.184 146.204,78.014 146.688,78.014 146.688,77.184 147.416,76.211 146.92,76.211 "
         id="polygon185"
         style="fill:#010202" /><polygon
         points="154.543,74.737 154.086,74.903 154.703,76.599 155.889,76.165 155.785,75.883 155.057,76.15 "
         id="polygon187"
         style="fill:#010202" /><path
         d="m 155.863,74.202 0.041,1.952 0.416,-0.18 -0.025,-0.521 0.584,-0.263 0.364,0.375 0.472,-0.212 -1.425,-1.34 -0.427,0.189 z m 0.414,0.958 -0.029,-0.616 0.428,0.44 -0.399,0.176 z"
         id="path189"
         inkscape:connector-curvature="0"
         style="fill:#010202" /><path
         d="m 158.508,72.817 c -0.154,0.025 -0.348,0.114 -0.574,0.266 l -0.452,0.294 0.995,1.505 0.408,-0.268 -0.41,-0.622 0.045,-0.029 c 0.193,-0.131 0.344,-0.269 0.445,-0.415 0.105,-0.159 0.102,-0.327 -0.02,-0.514 -0.111,-0.171 -0.254,-0.243 -0.437,-0.217 m 0.077,0.709 c -0.036,0.066 -0.11,0.139 -0.22,0.211 l -0.043,0.029 -0.281,-0.427 0.043,-0.032 c 0.119,-0.077 0.211,-0.116 0.285,-0.119 0.061,-0.002 0.115,0.032 0.168,0.112 0.063,0.093 0.078,0.167 0.048,0.226"
         id="path191"
         inkscape:connector-curvature="0"
         style="fill:#010202" /><path
         d="m 159.123,72.297 0.434,1.901 0.367,-0.26 -0.129,-0.507 0.52,-0.371 0.432,0.29 0.422,-0.304 -1.67,-1.022 -0.376,0.273 z m 0.949,0.599 -0.354,0.255 -0.154,-0.601 0.508,0.346 z"
         id="path193"
         inkscape:connector-curvature="0"
         style="fill:#010202" /><polygon
         points="161.049,70.817 159.908,71.77 160.092,71.99 160.479,71.67 161.445,72.836 161.822,72.521 160.852,71.358 161.232,71.039 "
         id="polygon195"
         style="fill:#010202" /><path
         d="m 162.691,70.581 c -0.059,-0.008 -0.113,0 -0.18,0.024 0.039,-0.082 0.061,-0.158 0.059,-0.227 0,-0.104 -0.037,-0.194 -0.111,-0.268 -0.135,-0.144 -0.289,-0.178 -0.461,-0.107 -0.158,0.063 -0.342,0.193 -0.543,0.384 l -0.369,0.362 1.246,1.3 0.35,-0.334 -0.518,-0.545 0.059,-0.05 c 0.094,-0.091 0.172,-0.143 0.24,-0.136 0.07,0.009 0.174,0.054 0.313,0.141 l 0.311,0.199 0.354,-0.335 -0.451,-0.283 c -0.119,-0.069 -0.219,-0.111 -0.299,-0.125 m -0.494,0.096 c -0.025,0.084 -0.096,0.175 -0.199,0.277 l -0.021,0.022 -0.352,-0.367 0.023,-0.022 c 0.104,-0.101 0.195,-0.166 0.275,-0.196 0.064,-0.024 0.131,-0.003 0.203,0.073 0.071,0.071 0.093,0.141 0.071,0.213"
         id="path197"
         inkscape:connector-curvature="0"
         style="fill:#010202" /><polygon
         points="163.561,70.838 163.895,70.483 162.574,69.253 162.242,69.613 "
         id="polygon199"
         style="fill:#010202" /><path
         d="m 163.072,68.687 0.908,1.729 0.289,-0.349 -0.256,-0.454 0.412,-0.494 0.482,0.173 0.336,-0.401 -1.875,-0.563 -0.296,0.359 z m 1.074,0.336 -0.279,0.339 -0.299,-0.542 0.578,0.203 z"
         id="path201"
         inkscape:connector-curvature="0"
         style="fill:#010202" /><path
         d="m 141.856,75.761 c -0.068,-0.022 -0.146,-0.044 -0.229,-0.058 -0.283,-0.06 -0.504,-0.023 -0.666,0.106 -0.156,0.123 -0.266,0.328 -0.324,0.61 -0.03,0.142 -0.04,0.271 -0.026,0.398 0.015,0.124 0.049,0.241 0.106,0.344 0.053,0.106 0.131,0.198 0.223,0.269 0.094,0.069 0.204,0.122 0.339,0.146 0.033,0.008 0.068,0.014 0.104,0.018 l 0.033,0.005 c 0.048,0.003 0.092,0.006 0.13,0.006 0.038,0.004 0.072,0.004 0.101,0.004 0.036,0 0.062,0 0.074,-0.004 l 0.088,-0.011 0.083,-0.46 -0.187,0.049 c -0.04,0.011 -0.091,0.025 -0.149,0.033 -0.043,0.008 -0.096,0.008 -0.159,0 l -0.026,-0.002 c -0.063,-0.015 -0.109,-0.039 -0.147,-0.074 -0.04,-0.043 -0.071,-0.089 -0.09,-0.147 -0.022,-0.064 -0.037,-0.138 -0.037,-0.218 0,-0.09 0.012,-0.184 0.035,-0.278 0.014,-0.089 0.039,-0.173 0.061,-0.247 0.02,-0.064 0.044,-0.112 0.071,-0.148 0.023,-0.028 0.048,-0.047 0.083,-0.06 0.042,-0.011 0.098,-0.011 0.163,0 0.042,0.01 0.075,0.021 0.106,0.031 0.036,0.015 0.072,0.028 0.104,0.041 0.029,0.016 0.054,0.029 0.081,0.043 l 0.021,0.016 c 0.017,0.01 0.032,0.021 0.045,0.027 l 0.156,0.1 0.078,-0.444 -0.091,-0.039 c -0.035,-0.015 -0.09,-0.036 -0.154,-0.056"
         id="path203"
         inkscape:connector-curvature="0"
         style="fill:#010202" /><path
         d="m 135.699,74.555 c 0.032,-0.057 0.063,-0.099 0.099,-0.13 0.027,-0.021 0.057,-0.036 0.095,-0.039 0.042,-0.008 0.093,0.003 0.157,0.031 0.036,0.016 0.065,0.029 0.1,0.051 0.034,0.02 0.064,0.038 0.093,0.06 0.023,0.021 0.051,0.039 0.069,0.056 0.017,0.015 0.03,0.027 0.043,0.038 l 0.149,0.143 0.165,-0.421 -0.081,-0.052 c -0.038,-0.024 -0.084,-0.052 -0.142,-0.089 -0.063,-0.031 -0.134,-0.066 -0.215,-0.098 -0.263,-0.112 -0.491,-0.121 -0.672,-0.027 -0.18,0.094 -0.326,0.273 -0.436,0.537 -0.057,0.132 -0.092,0.262 -0.102,0.385 -0.011,0.129 0,0.25 0.03,0.363 0.038,0.113 0.095,0.216 0.171,0.303 0.079,0.089 0.182,0.161 0.301,0.211 0.043,0.018 0.089,0.035 0.134,0.05 0.046,0.011 0.089,0.026 0.127,0.031 0.028,0.006 0.054,0.01 0.078,0.018 l 0.052,0.011 c 0.022,0.004 0.034,0.004 0.042,0.008 h 0.09 l 0.169,-0.43 -0.189,0.009 c -0.046,0.006 -0.094,0.006 -0.155,0.006 -0.02,0 -0.04,0 -0.06,-0.01 -0.039,-0.005 -0.08,-0.016 -0.119,-0.028 -0.061,-0.026 -0.105,-0.063 -0.132,-0.103 -0.032,-0.047 -0.054,-0.101 -0.061,-0.16 -0.01,-0.066 -0.007,-0.143 0.01,-0.221 0.015,-0.09 0.042,-0.181 0.083,-0.272 0.032,-0.087 0.072,-0.165 0.107,-0.231"
         id="path205"
         inkscape:connector-curvature="0"
         style="fill:#010202" /><path
         d="m 149.975,76.497 c -0.024,-0.201 -0.124,-0.332 -0.284,-0.385 -0.153,-0.054 -0.364,-0.061 -0.646,-0.029 l -0.535,0.066 0.217,1.788 0.486,-0.057 -0.092,-0.74 0.053,-0.006 c 0.231,-0.025 0.428,-0.086 0.588,-0.171 0.165,-0.09 0.238,-0.248 0.213,-0.466 m -0.546,0.278 c -0.064,0.045 -0.159,0.072 -0.288,0.086 l -0.054,0.012 -0.059,-0.507 0.052,-0.007 c 0.143,-0.021 0.245,-0.015 0.309,0.016 0.055,0.027 0.088,0.082 0.099,0.177 0.014,0.109 -0.004,0.183 -0.059,0.223"
         id="path207"
         inkscape:connector-curvature="0"
         style="fill:#010202" /><path
         d="m 151.888,76.462 c -0.064,-0.279 -0.19,-0.484 -0.373,-0.61 -0.185,-0.131 -0.429,-0.157 -0.724,-0.088 -0.303,0.071 -0.507,0.203 -0.618,0.397 -0.103,0.194 -0.125,0.434 -0.064,0.712 0.069,0.281 0.194,0.482 0.378,0.614 0.187,0.126 0.429,0.153 0.723,0.083 0.253,-0.061 0.44,-0.166 0.558,-0.315 0.022,-0.026 0.04,-0.057 0.056,-0.086 0.106,-0.193 0.131,-0.434 0.064,-0.707 m -0.706,-0.356 c 0.09,0.098 0.162,0.257 0.213,0.467 0.049,0.216 0.056,0.391 0.02,0.521 -0.016,0.04 -0.03,0.074 -0.055,0.105 -0.049,0.06 -0.115,0.1 -0.207,0.121 -0.137,0.031 -0.245,0 -0.332,-0.09 -0.093,-0.104 -0.164,-0.264 -0.217,-0.475 -0.046,-0.21 -0.056,-0.387 -0.013,-0.515 0.007,-0.042 0.027,-0.077 0.052,-0.109 0.046,-0.06 0.114,-0.099 0.205,-0.119 0.136,-0.029 0.244,-0.002 0.334,0.094"
         id="path209"
         inkscape:connector-curvature="0"
         style="fill:#010202" /><path
         d="m 152.336,75.443 -0.498,0.144 0.518,1.729 0.467,-0.141 -0.219,-0.714 0.076,-0.025 c 0.128,-0.034 0.223,-0.039 0.279,-0.004 0.061,0.035 0.131,0.124 0.211,0.267 l 0.184,0.319 0.471,-0.142 -0.272,-0.451 c -0.071,-0.119 -0.138,-0.2 -0.212,-0.25 -0.039,-0.032 -0.096,-0.053 -0.166,-0.062 0.074,-0.056 0.127,-0.112 0.156,-0.176 0.049,-0.092 0.054,-0.189 0.023,-0.287 -0.056,-0.19 -0.178,-0.292 -0.361,-0.311 -0.171,-0.013 -0.394,0.023 -0.657,0.104 m 0.559,0.37 c 0.031,0.098 0.016,0.172 -0.036,0.221 -0.06,0.059 -0.159,0.115 -0.302,0.155 l -0.03,0.006 -0.145,-0.481 0.032,-0.011 c 0.139,-0.042 0.252,-0.06 0.334,-0.049 0.07,0.011 0.117,0.06 0.147,0.159"
         id="path211"
         inkscape:connector-curvature="0"
         style="fill:#010202" /></g><rect
       x="-309.651"
       y="123.05228"
       width="1.192"
       height="64.983002"
       id="rect213"
       style="fill:#010202" /></g></svg>