<?xml version="1.0" encoding="utf-8"?>
<!-- Generator: Adobe Illustrator 16.0.0, SVG Export Plug-In . SVG Version: 6.00 Build 0)  -->
<!DOCTYPE svg PUBLIC "-//W3C//DTD SVG 1.1//EN" "http://www.w3.org/Graphics/SVG/1.1/DTD/svg11.dtd">
<svg version="1.1" id="Capa_1" xmlns="http://www.w3.org/2000/svg" xmlns:xlink="http://www.w3.org/1999/xlink" x="0px" y="0px"
	 width="278px" height="100px" viewBox="0 0 278 100" enable-background="new 0 0 278 100" xml:space="preserve">
<g>
	<g>
		<path fill="#010202" d="M67.548,39.941c0,0.919-0.287,1.621-0.861,2.108c-0.574,0.486-1.391,0.729-2.45,0.729h-0.776v3.037H61.65
			v-8.538h2.728c1.035,0,1.822,0.224,2.362,0.669C67.279,38.393,67.548,39.058,67.548,39.941z M63.461,41.296h0.595
			c0.557,0,0.973-0.109,1.25-0.329c0.276-0.221,0.415-0.541,0.415-0.961c0-0.424-0.116-0.738-0.347-0.94
			c-0.232-0.202-0.595-0.304-1.089-0.304h-0.823V41.296z"/>
		<path fill="#010202" d="M69.16,45.816v-8.538h1.81v7.043h3.463v1.495H69.16z"/>
		<path fill="#010202" d="M81.143,45.816l-0.619-2.032h-3.112l-0.619,2.032h-1.95l3.013-8.572h2.213l3.025,8.572H81.143z
			 M80.092,42.266c-0.573-1.842-0.895-2.883-0.967-3.124c-0.072-0.241-0.124-0.433-0.155-0.572c-0.128,0.498-0.496,1.73-1.104,3.696
			H80.092z"/>
		<path fill="#010202" d="M91.742,45.816h-2.301l-3.714-6.459h-0.053c0.074,1.141,0.111,1.954,0.111,2.441v4.018h-1.618v-8.538
			h2.283l3.708,6.395H90.2c-0.058-1.109-0.087-1.894-0.087-2.354v-4.041h1.629V45.816z"/>
		<path fill="#010202" d="M19.068,60.168h-4.917V51.63h4.917v1.483h-3.107v1.874h2.891v1.484h-2.891v2.201h3.107V60.168z"/>
		<path fill="#010202" d="M25.888,57.797c0,0.771-0.277,1.378-0.832,1.821c-0.555,0.444-1.327,0.667-2.315,0.667
			c-0.911,0-1.717-0.172-2.417-0.515v-1.682c0.576,0.257,1.063,0.438,1.462,0.543c0.399,0.104,0.764,0.157,1.095,0.157
			c0.397,0,0.702-0.075,0.914-0.228c0.212-0.151,0.318-0.377,0.318-0.678c0-0.167-0.047-0.315-0.141-0.446
			c-0.093-0.13-0.23-0.256-0.412-0.376c-0.181-0.121-0.55-0.313-1.106-0.578c-0.522-0.245-0.913-0.481-1.174-0.707
			s-0.469-0.488-0.625-0.789c-0.156-0.299-0.233-0.649-0.233-1.051c0-0.755,0.256-1.349,0.768-1.781
			c0.512-0.432,1.22-0.648,2.123-0.648c0.444,0,0.867,0.053,1.27,0.158c0.403,0.105,0.825,0.253,1.264,0.444l-0.583,1.407
			c-0.456-0.188-0.833-0.317-1.13-0.392s-0.591-0.11-0.879-0.11c-0.342,0-0.605,0.079-0.788,0.238
			c-0.183,0.16-0.274,0.368-0.274,0.625c0,0.16,0.037,0.3,0.111,0.418c0.074,0.119,0.192,0.234,0.354,0.345
			c0.161,0.111,0.544,0.311,1.147,0.599c0.798,0.382,1.345,0.764,1.642,1.147C25.74,56.77,25.888,57.24,25.888,57.797z"/>
		<path fill="#010202" d="M30.729,60.168h-1.81v-7.031h-2.318V51.63h6.447v1.507h-2.319V60.168z"/>
		<path fill="#010202" d="M36.172,56.892v3.276h-1.81V51.63h2.487c1.16,0,2.019,0.211,2.576,0.634
			c0.556,0.423,0.835,1.063,0.835,1.924c0,0.502-0.138,0.949-0.415,1.341c-0.277,0.391-0.668,0.698-1.174,0.919
			c1.285,1.92,2.122,3.16,2.511,3.721h-2.009l-2.038-3.276H36.172z M36.172,55.42h0.584c0.572,0,0.995-0.095,1.267-0.286
			c0.272-0.19,0.409-0.49,0.409-0.899c0-0.404-0.139-0.692-0.417-0.864c-0.278-0.171-0.709-0.257-1.293-0.257h-0.549V55.42z"/>
		<path fill="#010202" d="M47.483,60.168l-0.619-2.032h-3.112l-0.619,2.032h-1.95l3.013-8.572h2.213l3.025,8.572H47.483z
			 M46.433,56.617c-0.573-1.842-0.895-2.883-0.967-3.124c-0.072-0.241-0.124-0.433-0.155-0.572c-0.128,0.498-0.496,1.73-1.104,3.696
			H46.433z"/>
		<path fill="#010202" d="M53.802,60.168h-1.81v-7.031h-2.318V51.63h6.447v1.507h-2.319V60.168z"/>
		<path fill="#010202" d="M62.351,60.168h-4.917V51.63h4.917v1.483h-3.106v1.874h2.891v1.484h-2.891v2.201h3.106V60.168z
			 M58.836,50.947v-0.158c0.669-0.778,1.127-1.364,1.372-1.758h1.997v0.123c-0.202,0.202-0.548,0.503-1.037,0.902
			c-0.489,0.398-0.871,0.695-1.147,0.891H58.836z"/>
		<path fill="#010202" d="M67.373,55.373h3.387V59.8c-0.549,0.179-1.066,0.305-1.55,0.377c-0.485,0.072-0.98,0.108-1.487,0.108
			c-1.289,0-2.272-0.379-2.952-1.137c-0.68-0.757-1.019-1.844-1.019-3.261c0-1.379,0.395-2.453,1.183-3.224
			c0.789-0.771,1.881-1.157,3.279-1.157c0.876,0,1.721,0.176,2.535,0.526l-0.602,1.448c-0.623-0.312-1.271-0.467-1.945-0.467
			c-0.783,0-1.409,0.263-1.88,0.788c-0.471,0.525-0.707,1.232-0.707,2.119c0,0.927,0.19,1.635,0.569,2.123
			c0.38,0.489,0.932,0.732,1.656,0.732c0.377,0,0.761-0.038,1.15-0.116V56.88h-1.618V55.373z"/>
		<path fill="#010202" d="M72.792,60.168V51.63h1.81v8.538H72.792z"/>
		<path fill="#010202" d="M80.378,53.015c-0.681,0-1.209,0.256-1.583,0.768c-0.374,0.512-0.561,1.226-0.561,2.14
			c0,1.904,0.714,2.855,2.143,2.855c0.599,0,1.326-0.149,2.178-0.449v1.519c-0.701,0.292-1.483,0.438-2.348,0.438
			c-1.242,0-2.192-0.377-2.85-1.131c-0.658-0.753-0.987-1.835-0.987-3.243c0-0.888,0.161-1.666,0.484-2.334
			c0.323-0.667,0.788-1.179,1.393-1.535c0.605-0.356,1.315-0.535,2.128-0.535c0.829,0,1.662,0.201,2.5,0.603l-0.584,1.471
			c-0.319-0.151-0.64-0.284-0.963-0.396C81.007,53.07,80.689,53.015,80.378,53.015z"/>
		<path fill="#010202" d="M92.121,55.888c0,1.413-0.35,2.499-1.051,3.259c-0.701,0.759-1.705,1.139-3.013,1.139
			s-2.313-0.38-3.013-1.139c-0.701-0.76-1.051-1.85-1.051-3.271c0-1.422,0.351-2.506,1.054-3.256
			c0.703-0.749,1.71-1.125,3.022-1.125s2.315,0.379,3.01,1.134C91.774,53.385,92.121,54.471,92.121,55.888z M85.891,55.888
			c0,0.953,0.181,1.672,0.543,2.154c0.362,0.482,0.903,0.724,1.624,0.724c1.444,0,2.167-0.959,2.167-2.878
			c0-1.924-0.718-2.885-2.155-2.885c-0.72,0-1.263,0.242-1.629,0.727S85.891,54.934,85.891,55.888z"/>
	</g>
	<g>
		<path fill="#FFFFFF" d="M172.107,47.81c-0.166,0.06-2.713,0.858-3.871,1.225c0.357-2.237,0.5-6.164-0.438-8.958
			c0.283-0.053,0.545-0.105,0.77-0.162c0.174-0.041,0.307-0.192,0.32-0.375c0.313-3.521-0.631-7.255-2.654-10.975
			c-2.209-4.058-5.074-7.275-8.657-8.747c-0.181-0.076-0.388-0.015-0.505,0.144c-0.203,0.278-0.498,0.673-0.832,1.113
			c-2.058-1.38-5.54-2.938-10.136-2.938c-4.477,0-8.099,1.614-10.103,2.938c-0.283-0.376-0.533-0.708-0.712-0.949
			c-0.112-0.161-0.321-0.22-0.503-0.146c-3.583,1.468-6.44,4.527-8.646,8.585c-2.023,3.72-2.973,7.479-2.666,11.001
			c0.02,0.181,0.147,0.332,0.326,0.377c0.215,0.054,0.467,0.102,0.736,0.155c-0.965,2.772-1.014,6.574-0.673,8.769
			c-0.078-0.018-0.149-0.035-0.208-0.053c-3.286-0.842-3.292-0.842-3.383-0.842c-0.19,0-0.357,0.13-0.406,0.313
			c-0.83,3.051-0.192,13.811,5.992,21.899c3.186,4.162,7.636,7.072,12.704,8.471c-0.306,0.639-0.783,1.537-1.066,2.029
			c-0.063,0.112-0.065,0.247-0.012,0.36c0.056,0.109,0.185,0.104,0.305,0.123c1.594,0.231,4.182,0.7,4.407,0.708
			c0.171,0.037,0.377-0.032,0.505-0.173c0.265-0.288,0.564-1.085,0.852-2.136c0.859,0.063,2.036,0.021,2.935,0.021h0.015
			c0.742,0,1.813,0.053,2.526,0.004c0.286,1.04,0.583,1.822,0.845,2.11c0.128,0.141,0.332,0.21,0.503,0.173
			c0.224-0.008,2.625-0.509,4.219-0.742c0.121-0.02,0.247-0.008,0.301-0.125c0.061-0.112,0.053-0.247-0.008-0.354
			c-0.278-0.49-0.738-1.291-1.04-1.914c4.897-1.392,9.388-4.373,12.569-8.572c6.449-8.504,6.959-19.602,6.264-22.082L172.107,47.81z
			"/>
		<path fill="#010202" d="M157.805,24.228c0.127,0.07,0.262,0.112,0.394,0.123c0.017,0.003,0.033,0.003,0.054,0.003
			c0.117,0,0.237-0.032,0.361-0.095c0.133-0.07,0.27-0.194,0.412-0.369c0.141-0.177,0.229-0.335,0.271-0.484
			c0.041-0.147,0.043-0.288,0.006-0.417c-0.035-0.131-0.107-0.249-0.207-0.359c-0.092-0.1-0.203-0.206-0.328-0.304l-0.33-0.268
			l-1.327,1.656l0.325,0.257C157.56,24.069,157.682,24.157,157.805,24.228 M158.594,22.571l0.084,0.066
			c0.094,0.074,0.154,0.149,0.189,0.223c0.033,0.074,0.049,0.145,0.043,0.219c-0.01,0.075-0.035,0.158-0.078,0.238
			c-0.047,0.088-0.107,0.181-0.182,0.272c-0.172,0.215-0.335,0.338-0.486,0.362c-0.027,0.003-0.049,0.008-0.074,0.008
			c-0.125,0-0.256-0.057-0.393-0.164l-0.05-0.042L158.594,22.571z"/>
		<polygon fill="#010202" points="159.244,25.647 159.467,25.421 158.932,24.88 159.387,24.438 159.754,24.813 159.975,24.597 
			159.611,24.217 159.984,23.847 160.482,24.354 160.719,24.126 159.904,23.297 158.395,24.78 		"/>
		<polygon fill="#010202" points="160.875,27.69 161.137,27.493 160.688,26.9 162.113,25.818 161.834,25.45 160.146,26.728 		"/>
		<path fill="#010202" d="M161.1,28.028l0.66-0.158l0.338,0.515l-0.398,0.554l0.27,0.41l1.309-1.864l-0.182-0.275l-2.213,0.494
			L161.1,28.028z M162.611,27.679l-0.318,0.449l-0.219-0.328L162.611,27.679z"/>
		<path fill="#010202" d="M162.922,31.079l0.83-0.422l0.014,0.036c0.045,0.08,0.088,0.165,0.135,0.249
			c0.055,0.092,0.119,0.172,0.195,0.236c0.076,0.072,0.166,0.116,0.268,0.138c0.025,0.003,0.047,0.006,0.078,0.006
			c0.084,0,0.174-0.023,0.277-0.077c0.125-0.064,0.217-0.144,0.264-0.24c0.047-0.091,0.064-0.187,0.059-0.289
			c-0.012-0.094-0.037-0.188-0.078-0.289c-0.039-0.086-0.08-0.171-0.121-0.25l-0.236-0.461l-0.086,0.046
			c0,0-0.229,0.117-0.268,0.138l-1.533,0.782L162.922,31.079z M164.541,30.252l0.068,0.141c0.051,0.098,0.068,0.183,0.055,0.257
			c-0.01,0.063-0.068,0.121-0.164,0.168c-0.059,0.032-0.111,0.05-0.166,0.046c-0.043,0-0.076-0.014-0.109-0.039
			c-0.037-0.024-0.068-0.063-0.096-0.11c-0.033-0.052-0.068-0.108-0.094-0.167l-0.016-0.029L164.541,30.252z"/>
		<polygon fill="#010202" points="163.912,33.26 164.217,33.134 163.924,32.443 165.57,31.742 165.389,31.319 163.441,32.146 		"/>
		<path fill="#010202" d="M164.082,33.719l0.68,0.016l0.199,0.577l-0.527,0.442l0.16,0.464l1.734-1.476l-0.105-0.311l-2.264-0.081
			L164.082,33.719z M165.635,33.767l-0.424,0.35l-0.127-0.374L165.635,33.767z"/>
		<polygon fill="#010202" points="166.404,35.081 164.66,35.525 164.771,35.955 166.518,35.518 166.67,36.113 166.977,36.029 
			166.561,34.401 166.258,34.479 		"/>
		<path fill="#010202" d="M164.936,36.674l0.668,0.131l0.096,0.602l-0.592,0.346l0.078,0.485l1.961-1.154l-0.051-0.33l-2.219-0.463
			L164.936,36.674z M166.459,36.983l-0.477,0.275l-0.063-0.392L166.459,36.983z"/>
		<path fill="#010202" d="M139.133,21.739l0.653,1.48l0.341-0.15l-0.552-1.25l1.293,0.921l0.368-0.158l-0.821-1.865l-0.34,0.153
			l0.503,1.146l-1.185-0.847l-0.43,0.188l0.042,0.088C139.004,21.444,139.111,21.69,139.133,21.739"/>
		<path fill="#010202" d="M141.941,21.743l0.562-0.144l0.382,0.535l0.464-0.119l-1.287-1.773l-0.311,0.081l-0.242,2.164l0.373-0.091
			L141.941,21.743z M142.036,20.923l0.294,0.415l-0.354,0.092L142.036,20.923z"/>
		<path fill="#010202" d="M143.366,21.36c0.052,0.134,0.125,0.244,0.213,0.335c0.085,0.091,0.193,0.159,0.311,0.204
			c0.092,0.039,0.194,0.053,0.299,0.053c0.029,0,0.056,0,0.091-0.003c0.049-0.008,0.101-0.014,0.152-0.025
			c0.053-0.01,0.097-0.022,0.138-0.035c0.041-0.012,0.079-0.022,0.107-0.028c0.036-0.014,0.06-0.021,0.075-0.028l0.058-0.029
			l-0.047-0.426l-0.131,0.081c-0.039,0.025-0.09,0.055-0.146,0.088c-0.058,0.027-0.127,0.049-0.213,0.063c-0.012,0-0.027,0-0.039,0
			c-0.062,0-0.117-0.01-0.17-0.038c-0.059-0.032-0.113-0.078-0.155-0.142c-0.046-0.067-0.087-0.148-0.118-0.243
			c-0.028-0.098-0.05-0.209-0.061-0.327c-0.008-0.11-0.012-0.213-0.011-0.3c0-0.079,0.011-0.144,0.029-0.201
			c0.021-0.046,0.049-0.085,0.088-0.112c0.042-0.032,0.108-0.051,0.194-0.06c0.041-0.004,0.086-0.008,0.127-0.004
			c0.045,0,0.087,0.007,0.127,0.01c0.04,0.007,0.076,0.015,0.104,0.022c0.036,0.006,0.063,0.013,0.085,0.02l0.135,0.039
			l-0.049-0.405l-0.075-0.01c-0.045-0.003-0.104-0.007-0.182-0.007h-0.025c-0.071,0-0.149,0.004-0.229,0.015
			c-0.305,0.029-0.523,0.134-0.645,0.321c-0.123,0.178-0.167,0.428-0.137,0.742C143.283,21.089,143.313,21.232,143.366,21.36"/>
		
			<rect x="144.318" y="20.604" transform="matrix(0.0634 0.998 -0.998 0.0634 156.9032 -125.5425)" fill="#010202" width="2.034" height="0.431"/>
		<path fill="#010202" d="M146.199,21.525c0.064,0.099,0.151,0.18,0.261,0.235c0.107,0.058,0.242,0.085,0.4,0.089h0.066
			c0.126-0.004,0.235-0.028,0.327-0.067c0.107-0.05,0.197-0.124,0.268-0.219c0.061-0.091,0.112-0.2,0.142-0.327
			c0.026-0.127,0.044-0.265,0.045-0.416c0.003-0.142-0.006-0.278-0.03-0.399c-0.024-0.129-0.065-0.242-0.126-0.337
			c-0.063-0.102-0.149-0.18-0.256-0.24c-0.104-0.056-0.24-0.084-0.396-0.087c-0.154-0.003-0.289,0.017-0.398,0.068
			c-0.108,0.048-0.194,0.119-0.262,0.218c-0.068,0.087-0.12,0.2-0.147,0.331c-0.032,0.119-0.043,0.261-0.048,0.415
			c0,0.141,0.009,0.275,0.031,0.399C146.093,21.314,146.139,21.426,146.199,21.525 M146.515,20.796c0-0.096,0.007-0.187,0.016-0.282
			c0.007-0.092,0.025-0.175,0.056-0.246c0.025-0.068,0.063-0.121,0.116-0.163c0.042-0.036,0.096-0.054,0.168-0.054h0.025
			c0.085,0,0.146,0.023,0.192,0.064c0.045,0.045,0.082,0.102,0.107,0.173c0.025,0.076,0.04,0.161,0.044,0.25
			c0.005,0.099,0.005,0.19,0.003,0.271c-0.003,0.091-0.008,0.187-0.018,0.283c-0.01,0.091-0.026,0.172-0.057,0.246
			c-0.025,0.067-0.064,0.12-0.112,0.163c-0.041,0.034-0.092,0.048-0.163,0.052h-0.027c-0.087,0-0.153-0.025-0.194-0.065
			c-0.051-0.045-0.085-0.102-0.112-0.171c-0.022-0.078-0.039-0.163-0.043-0.251C146.511,20.964,146.51,20.877,146.515,20.796"/>
		<path fill="#010202" d="M148.533,20.584l0.594,1.477l0.396,0.06l0.309-2.011l-0.37-0.058l-0.19,1.24l-0.542-1.353l-0.469-0.073
			l-0.015,0.095c0,0-0.035,0.264-0.043,0.32l-0.247,1.596l0.37,0.061L148.533,20.584z"/>
		<path fill="#010202" d="M150.12,22.279l0.387-0.525l0.557,0.167l0.057,0.65l0.455,0.138l-0.195-2.181l-0.309-0.092l-1.318,1.733
			L150.12,22.279z M151.008,21.095l0.042,0.509l-0.35-0.102L151.008,21.095z"/>
		<polygon fill="#010202" points="152.965,22.959 152.313,22.672 152.999,21.103 152.587,20.923 151.773,22.79 152.838,23.255 		"/>
		<path fill="#010202" d="M126.522,38.363h0.011c0.098,0,0.192-0.02,0.271-0.059c0.087-0.041,0.162-0.113,0.22-0.212
			c0.056-0.091,0.096-0.218,0.119-0.384c0.023-0.172,0.02-0.313-0.014-0.423c-0.033-0.112-0.091-0.203-0.166-0.271
			c-0.072-0.063-0.157-0.108-0.252-0.138c-0.087-0.021-0.174-0.041-0.262-0.052l-1.253-0.18l-0.06,0.398l1.284,0.183
			c0.063,0.009,0.126,0.021,0.192,0.033c0.055,0.013,0.1,0.03,0.142,0.063c0.037,0.026,0.067,0.067,0.087,0.116
			c0.012,0.036,0.023,0.103,0.008,0.229c-0.01,0.081-0.037,0.138-0.072,0.172c-0.04,0.036-0.081,0.062-0.131,0.072
			c-0.056,0.018-0.113,0.021-0.172,0.018c-0.067-0.005-0.125-0.012-0.171-0.018l-1.268-0.181l-0.061,0.443l1.253,0.166
			C126.333,38.357,126.432,38.363,126.522,38.363"/>
		<path fill="#010202" d="M125.754,36.042l1.571,0.381l0.086-0.359l-1.329-0.326l1.521-0.468l0.093-0.387l-1.98-0.477l-0.085,0.362
			l1.22,0.292l-1.395,0.431l-0.104,0.455l0.088,0.025C125.44,35.973,125.7,36.033,125.754,36.042"/>
		
			<rect x="125.926" y="33.704" transform="matrix(0.9537 0.3008 -0.3008 0.9537 16.0805 -36.6107)" fill="#010202" width="2.034" height="0.432"/>
		<polygon fill="#010202" points="128.437,32.816 126.785,31.347 126.654,31.692 127.745,32.661 126.292,32.65 126.124,33.102 
			128.333,33.09 		"/>
		<polygon fill="#010202" points="129.268,30.83 128.983,30.699 128.682,31.357 128.14,31.112 128.35,30.649 128.073,30.527 
			127.86,30.981 127.409,30.772 127.692,30.153 127.4,30.019 126.931,31.036 128.782,31.89 		"/>
		<path fill="#010202" d="M129.628,30.146l-0.784-0.435l1.057-0.052l0.241-0.438l-1.117,0.053c0.006-0.017,0.011-0.036,0.015-0.056
			c0.013-0.07,0.018-0.138,0.006-0.208c-0.01-0.071-0.036-0.137-0.078-0.197c-0.04-0.063-0.102-0.119-0.186-0.161
			c-0.096-0.057-0.191-0.085-0.286-0.085c-0.083,0-0.163,0.021-0.236,0.06c-0.064,0.039-0.128,0.095-0.182,0.166
			c-0.051,0.063-0.099,0.138-0.144,0.215l-0.297,0.532l1.782,0.987L129.628,30.146z M128.643,29.434
			c-0.019,0.046-0.044,0.091-0.064,0.13l-0.471-0.26l0.051-0.091c0.022-0.043,0.049-0.082,0.079-0.116
			c0.026-0.029,0.052-0.05,0.087-0.067c0.029-0.015,0.057-0.022,0.09-0.022h0.001c0.034,0,0.072,0.015,0.113,0.039
			c0.069,0.035,0.113,0.074,0.13,0.112c0.02,0.042,0.027,0.085,0.027,0.13C128.678,29.338,128.666,29.385,128.643,29.434"/>
		<path fill="#010202" d="M128.976,28.258c0.091,0.06,0.187,0.09,0.276,0.09h0.016c0.087-0.003,0.176-0.021,0.263-0.056
			c0.081-0.031,0.159-0.07,0.235-0.12c0.068-0.044,0.139-0.081,0.206-0.113c0.064-0.031,0.124-0.049,0.181-0.055
			c0.043-0.007,0.088,0.006,0.131,0.035c0.075,0.046,0.112,0.103,0.119,0.161c0.009,0.068-0.018,0.146-0.074,0.231
			c-0.021,0.035-0.049,0.064-0.078,0.098c-0.032,0.031-0.062,0.063-0.09,0.088c-0.035,0.028-0.063,0.05-0.094,0.074
			c-0.026,0.021-0.056,0.04-0.078,0.054l-0.131,0.077l0.341,0.226l0.054-0.046c0.01-0.007,0.032-0.025,0.056-0.049
			c0.024-0.026,0.047-0.053,0.077-0.085c0.031-0.032,0.06-0.067,0.091-0.106c0.035-0.042,0.065-0.084,0.093-0.126
			c0.055-0.081,0.1-0.166,0.13-0.249c0.033-0.093,0.051-0.186,0.048-0.27c-0.002-0.09-0.022-0.179-0.062-0.261
			c-0.043-0.079-0.112-0.155-0.205-0.218c-0.096-0.064-0.196-0.095-0.298-0.095c-0.096,0-0.187,0.021-0.273,0.052
			c-0.086,0.036-0.17,0.075-0.248,0.127c-0.076,0.045-0.144,0.084-0.209,0.12c-0.064,0.032-0.124,0.049-0.18,0.06
			c-0.042,0.007-0.081,0-0.122-0.028c-0.044-0.028-0.067-0.067-0.072-0.118c-0.003-0.059,0.015-0.118,0.059-0.187
			c0.027-0.038,0.051-0.07,0.081-0.102c0.028-0.031,0.062-0.06,0.09-0.084c0.029-0.024,0.056-0.05,0.082-0.064l0.188-0.13
			l-0.339-0.225l-0.053,0.052c-0.036,0.028-0.076,0.074-0.125,0.131c-0.055,0.06-0.106,0.13-0.157,0.208
			c-0.113,0.171-0.171,0.341-0.165,0.495C128.742,28.018,128.822,28.154,128.976,28.258"/>
		
			<rect x="129.483" y="26.703" transform="matrix(0.7946 0.6072 -0.6072 0.7946 43.1554 -73.7087)" fill="#010202" width="2.035" height="0.431"/>
		<path fill="#010202" d="M131.997,26.686c0.104-0.113,0.19-0.224,0.263-0.338c0.079-0.12,0.128-0.246,0.143-0.37
			c0.02-0.133,0-0.268-0.063-0.404c-0.061-0.134-0.17-0.271-0.329-0.417c-0.165-0.148-0.309-0.239-0.447-0.289
			c-0.142-0.045-0.278-0.055-0.408-0.027c-0.123,0.027-0.239,0.084-0.35,0.175c-0.105,0.084-0.21,0.187-0.31,0.299l-0.276,0.304
			l1.513,1.363L131.997,26.686z M130.794,25.421c0.077-0.08,0.148-0.136,0.222-0.165c0.069-0.028,0.138-0.035,0.207-0.023
			c0.073,0.009,0.149,0.038,0.225,0.083c0.081,0.05,0.166,0.113,0.247,0.187c0.193,0.176,0.302,0.338,0.317,0.482
			c0.02,0.145-0.038,0.286-0.174,0.434l-0.038,0.043l-1.068-0.966L130.794,25.421z"/>
		<path fill="#010202" d="M133.072,25.552l-0.23-0.609l0.44-0.38l0.579,0.305l0.36-0.313l-1.938-1.012l-0.245,0.212l0.746,2.044
			L133.072,25.552z M132.56,24.164l0.449,0.242l-0.275,0.241L132.56,24.164z"/>
		<path fill="#010202" d="M134.714,24.244c0.127-0.08,0.244-0.167,0.344-0.253c0.109-0.099,0.187-0.205,0.239-0.319
			c0.05-0.121,0.066-0.258,0.042-0.406c-0.022-0.146-0.088-0.306-0.209-0.494c-0.116-0.182-0.23-0.313-0.351-0.394
			c-0.121-0.084-0.252-0.13-0.381-0.138c-0.127-0.004-0.257,0.022-0.387,0.078c-0.123,0.053-0.252,0.12-0.379,0.204l-0.349,0.222
			l1.095,1.716L134.714,24.244z M133.893,22.709c0.094-0.063,0.181-0.095,0.258-0.106c0.075-0.006,0.144,0.003,0.205,0.032
			c0.068,0.028,0.132,0.077,0.193,0.145c0.066,0.07,0.131,0.151,0.188,0.247c0.142,0.222,0.202,0.406,0.179,0.549
			c-0.023,0.142-0.116,0.261-0.287,0.371l-0.044,0.027l-0.775-1.215L133.893,22.709z"/>
		<path fill="#010202" d="M147.29,34.396c0.111,0.013,0.18,0.196,0.614,0.2c0.335,0.003,0.38-0.205,0.423-0.216
			c0.022-0.007,0.045-0.01,0.062-0.039c-0.02-0.035-0.215-0.109-0.489-0.12c-0.357-0.01-0.666,0.102-0.7,0.134
			C147.225,34.373,147.245,34.388,147.29,34.396"/>
		<path fill="#010202" d="M146.436,32.572c0.076-0.013,0.153-0.042,0.228-0.049c0.101-0.007,0.18,0,0.266,0.06
			c0.02,0.021,0.083,0.134,0.234,0.131c0.076,0.003,0.17-0.028,0.202-0.121c0.047-0.031,0.153,0.036,0.18,0.014
			c0.063-0.014,0.101-0.069,0.131-0.116c0.026-0.042,0.069-0.116,0.026-0.166c-0.757-0.42-1.35,0.217-1.35,0.217
			C146.326,32.601,146.36,32.591,146.436,32.572"/>
		<path fill="#046062" d="M153.854,48.426c-0.024,0.058,0.01,0.046,0.088,0.021c0.073-0.021,0.29-0.067,0.428-0.035
			c0.063,0.014,0.119,0.151,0.314,0.131c0.068,0,0.168-0.104,0.197-0.184c0.055-0.051,0.242-0.105,0.267-0.113
			c0.062-0.014,0.077-0.108-0.011-0.159C154.344,47.771,153.854,48.426,153.854,48.426"/>
		<path fill="#046062" d="M135.526,48.813c-0.063,0.095-0.092,0.209-0.092,0.272c0.002,0.06,0.099,0.041,0.124,0.027
			c0.03-0.019,0.051-0.035,0.066-0.043c0.027-0.01,0.052-0.006,0.052-0.006s0.021,0.042,0.051,0.055
			c0.034,0.018,0.068,0.015,0.068,0.015s0.059,0.003,0.095-0.021c0.022-0.015,0.064-0.064,0.074-0.139
			c0.008-0.077,0.083-0.095,0.142-0.176c0.069-0.094,0.153-0.271,0.122-0.278C135.905,48.472,135.697,48.563,135.526,48.813"/>
		<path fill="#046062" d="M154.979,50.082c0.104,0.011,0.179,0.18,0.591,0.161c0.315-0.01,0.352-0.207,0.391-0.222
			c0.02-0.007,0.043-0.01,0.056-0.035c-0.015-0.032-0.206-0.1-0.462-0.092c-0.346,0-0.629,0.123-0.658,0.155
			C154.921,50.063,154.939,50.077,154.979,50.082"/>
		<path fill="#010202" d="M173.193,47.645c-0.061-0.229-0.299-0.364-0.527-0.301c-0.016,0.005-0.037,0.013-0.057,0.02
			c-0.168,0.058-2.762,0.872-3.943,1.246c0.367-2.275,0.48-5.464-0.477-8.308c0.289-0.054,0.553-0.109,0.783-0.163
			c0.184-0.045,0.314-0.199,0.33-0.383c0.313-3.582-0.688-7.81-2.748-11.594c-2.246-4.132-5.49-7.229-9.139-8.723
			c-0.184-0.078-0.395-0.018-0.512,0.145c-0.207,0.282-0.506,0.684-0.847,1.131c-2.097-1.403-5.441-2.921-10.113-2.921
			c-4.554,0-7.778,1.409-9.818,2.754c-0.287-0.38-0.538-0.717-0.719-0.964c-0.118-0.163-0.333-0.223-0.515-0.145
			c-3.646,1.493-6.892,4.591-9.137,8.723c-2.061,3.784-3.064,8.012-2.749,11.594c0.017,0.184,0.148,0.338,0.33,0.383
			c0.222,0.054,0.472,0.108,0.75,0.155c-0.983,2.823-0.9,5.962-0.555,8.195c-0.077-0.021-0.149-0.04-0.21-0.057
			c-3.345-0.852-3.348-0.852-3.438-0.852c-0.197,0-0.365,0.13-0.419,0.316c-0.84,3.1-0.291,14.385,6.003,22.613
			c3.243,4.241,7.475,7.084,12.632,8.504c-0.313,0.648-0.664,1.301-0.949,1.807c-0.066,0.11-0.066,0.246-0.013,0.363
			c0.057,0.111,0.189,0.105,0.309,0.124c1.623,0.239,4.717,1.013,4.945,1.025c0.177,0.035,0.383-0.035,0.514-0.181
			c0.27-0.297,0.571-1.106,0.864-2.174c0.877,0.068,1.773,0.103,2.691,0.103h0.015c0.757,0,1.494-0.028,2.219-0.074
			c0.293,1.055,0.595,1.854,0.861,2.146c0.131,0.146,0.336,0.216,0.51,0.181c0.232-0.013,3.328-0.786,4.95-1.025
			c0.121-0.019,0.25-0.013,0.307-0.124c0.058-0.117,0.053-0.253-0.01-0.363c-0.287-0.499-0.629-1.141-0.938-1.782
			c4.984-1.41,9.129-4.27,12.367-8.544C173.307,61.844,173.9,50.17,173.193,47.645 M168.514,49.523c0.08,0,0.133,0.026,0.176,0.086
			c0.098,0.128-0.102,0.511-0.279,0.849c-0.254,0.502-0.521,1.016-0.188,1.209c0.043,0.021,0.1,0.035,0.176,0.035
			c0.055,0,0.111-0.004,0.172-0.01c0.064-0.007,0.129-0.011,0.193-0.011c0.219,0,0.326,0.069,0.367,0.242
			c0.064,0.293-0.064,0.461-0.289,0.708c-0.1,0.105-0.248,0.227-0.406,0.353c-0.398,0.32-0.848,0.681-0.738,1.046
			c0.049,0.157,0.154,0.233,0.25,0.304c0.098,0.066,0.178,0.122,0.193,0.253c0.016,0.12-0.338,0.539-0.73,0.97
			c-0.088-0.146-0.217-0.262-0.377-0.342c-0.008-0.004-0.014-0.008-0.014-0.008l-0.098-0.038c-0.018-0.008-0.031-0.012-0.051-0.018
			c0.252-1.511,0.381-3.106,0.244-4.03c-0.006-0.041-0.012-0.086-0.02-0.128c-0.029-0.365-0.314-0.379-0.348-0.049
			c0,0.027-0.006,0.06-0.006,0.096c-0.064,0.865-0.328,2.625-0.631,4.209c-0.205,0.115-0.389,0.293-0.541,0.497
			c-0.635-1.03-0.748-1.371-0.717-1.462c0.037-0.123,0.125-0.165,0.234-0.214c0.104-0.047,0.221-0.104,0.297-0.251
			c0.176-0.339-0.199-0.774-0.535-1.163c-0.135-0.151-0.26-0.294-0.334-0.418c-0.152-0.244-0.281-0.456-0.154-0.752
			c0.057-0.127,0.143-0.183,0.275-0.183c0.1,0,0.207,0.026,0.316,0.056c0.135,0.039,0.26,0.071,0.344,0.039
			c0.236-0.084,0.248-0.344,0.184-0.665c-0.035-0.177-0.096-0.367-0.154-0.557c-0.109-0.363-0.232-0.775-0.115-0.887
			c0.123-0.118,0.295-0.022,0.48,0.094c0.141,0.088,0.287,0.177,0.436,0.177c0.059,0,0.113-0.015,0.16-0.039
			c0.193-0.101,0.273-0.496,0.334-0.896c0.014-0.063,0.02-0.115,0.029-0.151c0.076-0.348,0.205-0.527,0.385-0.545l0.061,0.003h0.027
			c0.271,0.063,0.305,0.447,0.301,0.613c0,0.039-0.006,0.099-0.012,0.172c-0.035,0.392-0.055,0.782,0.113,0.916
			c0.064,0.049,0.141,0.075,0.234,0.075c0.08,0,0.168-0.022,0.256-0.05c0.047-0.014,0.1-0.031,0.146-0.045
			C168.287,49.57,168.41,49.523,168.514,49.523 M167.957,56.42c0.17,0,0.313,0.144,0.313,0.316s-0.143,0.316-0.313,0.316
			c-0.176,0-0.318-0.144-0.318-0.316S167.781,56.42,167.957,56.42 M166.412,59.815c0.061,0.074,0.18,0.108,0.314,0.148
			c0.289,0.081,0.475,0.154,0.441,0.414c-0.045,0.314-0.264,0.432-0.518,0.562c-0.127,0.067-0.313,0.127-0.506,0.187
			c-0.482,0.159-1.037,0.334-1.061,0.718c-0.012,0.162,0.064,0.272,0.129,0.371c0.068,0.1,0.119,0.175,0.088,0.302
			c-0.025,0.113-0.469,0.377-1.32,0.794c0.018-0.074,0.033-0.153,0.035-0.229c0.008-0.174-0.031-0.331-0.105-0.476
			c0.789-1.384,1.449-2.903,1.605-3.808c0.102-0.357-0.08-0.48-0.229-0.177c-0.268,0.79-1.053,2.201-1.865,3.544
			c-0.109-0.043-0.225-0.068-0.35-0.068c-0.221,0-0.447,0.075-0.66,0.182c-0.148-0.859-0.133-1.139-0.08-1.201
			c0.082-0.105,0.178-0.11,0.297-0.121c0.115-0.009,0.246-0.017,0.373-0.125c0.281-0.258,0.08-0.801-0.094-1.279
			c-0.072-0.191-0.137-0.372-0.166-0.512c-0.057-0.282-0.104-0.524,0.121-0.758c0.064-0.063,0.133-0.1,0.207-0.1
			c0.127,0,0.264,0.104,0.391,0.192c0.111,0.085,0.211,0.154,0.32,0.158c0.375,0,0.412-0.578,0.451-1.131
			c0.025-0.383,0.053-0.814,0.201-0.871c0.16-0.069,0.287,0.086,0.42,0.255c0.137,0.183,0.283,0.366,0.506,0.342
			c0.217-0.026,0.43-0.37,0.629-0.72c0.035-0.056,0.061-0.102,0.078-0.134c0.199-0.299,0.377-0.427,0.555-0.374l0.053,0.021
			l0.059,0.036c0.195,0.166,0.094,0.511,0.033,0.654c-0.012,0.04-0.039,0.091-0.07,0.159c-0.172,0.352-0.326,0.715-0.217,0.898
			c0.115,0.192,0.363,0.197,0.602,0.204c0.277,0.004,0.453,0.021,0.498,0.184c0.043,0.15-0.277,0.443-0.559,0.698
			C166.6,59.132,166.166,59.521,166.412,59.815 M164.309,64.243c0,0.173-0.137,0.316-0.311,0.316s-0.318-0.144-0.318-0.316
			s0.145-0.314,0.318-0.314S164.309,64.07,164.309,64.243 M161.596,66.505c0.031,0.092,0.131,0.166,0.244,0.251
			c0.244,0.173,0.395,0.307,0.271,0.535c-0.15,0.285-0.396,0.313-0.678,0.353c-0.125,0.014-0.324,0.01-0.541,0
			c-0.119-0.005-0.246-0.008-0.367-0.008c-0.344,0-0.748,0.036-0.873,0.317c-0.068,0.151-0.037,0.278-0.008,0.391
			c0.031,0.118,0.049,0.209-0.023,0.317c-0.072,0.11-0.711,0.204-1.342,0.272c0.021-0.166-0.005-0.333-0.071-0.491l-0.038-0.083
			c1.26-1.048,2.461-2.298,2.936-3.119c0.219-0.296,0.088-0.475-0.156-0.243c-0.57,0.702-1.961,1.891-3.289,2.932
			c-0.131-0.046-0.277-0.071-0.445-0.071c-0.094,0-0.199,0.007-0.3,0.025c0.2-1.212,0.335-1.546,0.415-1.596
			c0.101-0.063,0.204-0.045,0.317-0.015c0.124,0.036,0.261,0.064,0.394,0.008c0.357-0.138,0.354-0.719,0.354-1.229
			c0-0.204-0.004-0.399,0.02-0.536c0.045-0.282,0.086-0.529,0.375-0.668c0.053-0.025,0.102-0.041,0.146-0.041
			c0.164,0,0.281,0.177,0.383,0.326c0.082,0.122,0.148,0.225,0.24,0.26c0.037,0.014,0.072,0.021,0.113,0.021
			c0.297,0,0.506-0.469,0.707-0.927c0.152-0.345,0.328-0.743,0.498-0.746c0.16,0,0.217,0.144,0.295,0.386
			c0.066,0.205,0.141,0.442,0.361,0.491c0.207,0.052,0.531-0.198,0.84-0.455c0.047-0.042,0.086-0.077,0.115-0.099
			c0.307-0.225,0.529-0.268,0.668-0.148l0.021,0.021l0.047-0.037l-0.039,0.049l0.012,0.007c0.178,0.227-0.057,0.544-0.166,0.666
			c-0.027,0.027-0.072,0.073-0.123,0.121c-0.279,0.276-0.551,0.56-0.51,0.773c0.041,0.22,0.271,0.312,0.494,0.398
			c0.258,0.104,0.414,0.172,0.406,0.342c-0.016,0.161-0.416,0.319-0.77,0.461C162.006,65.928,161.467,66.143,161.596,66.505
			 M158.271,70c0,0.172-0.142,0.314-0.315,0.314c-0.178,0-0.315-0.143-0.315-0.314c0-0.173,0.138-0.313,0.315-0.313
			C158.13,69.687,158.271,69.827,158.271,70 M156.546,70.519c0.211,0.183,0.333,0.302,0.266,0.458
			c-0.063,0.147-0.495,0.164-0.873,0.184c-0.563,0.021-1.146,0.044-1.146,0.429c0,0.098,0.071,0.2,0.15,0.317
			c0.17,0.246,0.266,0.423,0.076,0.599c-0.115,0.104-0.238,0.155-0.394,0.155c-0.11,0-0.228-0.025-0.364-0.054
			c-0.139-0.031-0.318-0.102-0.506-0.179c-0.307-0.117-0.65-0.254-0.918-0.254c-0.153,0-0.275,0.042-0.358,0.129
			c-0.112,0.125-0.127,0.255-0.137,0.371c-0.012,0.12-0.022,0.211-0.126,0.29c-0.004,0.006-0.033,0.021-0.139,0.021
			c-0.465,0-1.672-0.317-2.286-0.479c0.159-0.049,0.314-0.098,0.472-0.154c1.729-0.575,3.614-1.483,4.433-2.182
			c0.306-0.214,0.241-0.423-0.063-0.282c-0.838,0.512-2.775,1.243-4.48,1.8c-0.147,0.054-0.313,0.106-0.467,0.155
			c-0.002-0.021-0.002-0.039-0.003-0.063c0.768-1.455,1.059-1.796,1.165-1.816c0.122-0.028,0.209,0.027,0.303,0.096
			c0.094,0.063,0.195,0.136,0.35,0.136h0.02c0.38-0.014,0.572-0.559,0.74-1.042c0.068-0.191,0.131-0.373,0.199-0.497
			c0.139-0.25,0.256-0.473,0.576-0.509c0.258-0.026,0.33,0.167,0.402,0.454c0.034,0.136,0.063,0.254,0.14,0.318
			c0.056,0.047,0.122,0.074,0.194,0.074c0.264,0,0.577-0.334,0.881-0.651c0.272-0.29,0.563-0.591,0.711-0.548
			c0.159,0.055,0.166,0.214,0.156,0.472c-0.004,0.214-0.014,0.46,0.18,0.581c0.048,0.031,0.111,0.045,0.189,0.045
			c0.225,0,0.543-0.116,0.752-0.199c0.062-0.021,0.111-0.041,0.143-0.047c0.35-0.111,0.566-0.085,0.665,0.057l0.026,0.045
			c0.002,0.006,0.002,0.01,0.006,0.015l0.006,0.021c0.091,0.268-0.232,0.486-0.379,0.567c-0.033,0.018-0.086,0.042-0.154,0.074
			c-0.357,0.164-0.709,0.34-0.74,0.556C156.181,70.201,156.369,70.363,156.546,70.519 M146.191,69.151
			c-1.267,0-2.469-1.172-3.092-2.78c0.449-0.189,1.842-0.76,2.01-0.72c0.188,0.103,0.621,0.283,0.621,0.296v2.003
			c0,0.296,0.918,0.346,1.119,0.065c0.008-0.009,0-0.489,0-0.489c-0.134,0.134-0.504,0.166-0.559,0.008
			c-0.005-0.01-0.008-1.395-0.008-1.42c0,0,0.106,0.03,0.207-0.033c0.071-0.041,0.091-0.094,0.147-0.119
			c0.079-0.024,0.131,0.03,0.23-0.021c0.042-0.023,0.104-0.095,0.146-0.112c0.062-0.023,0.167,0.011,0.219-0.013
			c0.051-0.024,0.105-0.085,0.153-0.1c0.074-0.027,0.17,0.043,0.323-0.104c0.343,0.132,0.593,0.028,0.688,0.028
			c0.011,0,0.703,0.305,0.977,0.479C148.768,67.922,147.571,69.151,146.191,69.151 M146.856,74.198
			c-0.447,0.016-0.701,0.004-1.151,0c-0.268-0.532-0.379-2.877-0.113-3.751c0.604,0,0.766-0.019,1.264,0
			C147.096,71.333,147.162,73.656,146.856,74.198 M145.057,74.217c-0.616-0.022-1.086-0.068-1.172-0.14
			c-0.313-0.279-0.7-2.542,0.017-3.449c0.066-0.086,0.482-0.145,1.044-0.176C144.627,71.355,144.532,73.224,145.057,74.217
			 M145.371,58.882c0.388-0.246,1.124-0.638,1.593,0.038c0.291,0.428,0.698,1.398,0.802,2.058c-1.069-0.242-2.151-0.111-2.796,0
			c-0.075-0.235,0.801-1.604,1.294-2.117c-0.47,0-0.846,0.487-1.125,0.842C144.985,59.723,144.653,59.421,145.371,58.882
			 M145.265,57.27c0-0.491,0.435-0.886,0.977-0.886c0.538,0,0.974,0.395,0.974,0.886c0,0.054-0.004,0.1-0.015,0.15
			c-0.305-0.097-0.623-0.155-0.952-0.155c-0.332,0-0.656,0.059-0.968,0.16C145.267,57.374,145.265,57.323,145.265,57.27
			 M148.392,63.877c-0.387-0.323-0.942-0.56-1.287-0.55c-0.328,0.007-0.885,0.273-0.885,0.273l-0.001-2.218c0,0,0.231-0.169,0.439,0
			c-0.009-0.004-0.009,1.082-0.002,1.082c0.713,0.03,2.407,0.113,3.121,0.366c0.027,0.355-0.002,1.042-0.012,1.239
			C149.435,64.029,148.893,63.952,148.392,63.877 M149.721,64.528c-0.045,0.356-0.108,0.709-0.191,1.04
			c-0.398-0.152-1.051-0.381-1.087-0.373c-0.204,0.039-0.321,0.039-0.499-0.05c-0.372-0.223-0.489-0.631-0.841-0.926
			c-0.374,0-0.851,0.238-1.063,0.204c-0.213-0.032-0.181-0.223-0.181-0.223c0.041-0.021,0.266-0.109,0.276-0.115
			c0.192-0.206,0.675-0.374,0.957-0.399c0,0,0.486,0.039,1.077,0.589C148.562,64.343,149.447,64.489,149.721,64.528 M145.813,62.499
			l-0.005,0.65c0,0-0.7,0.136-1.206,0.745c-0.163,0.128-1.376,0.507-1.932,0.68c-0.042-0.354-0.066-0.724-0.066-1.104
			c0-0.062,0.002-0.47,0.003-0.53C143.11,62.731,144.866,62.486,145.813,62.499 M144.891,64.209
			c0.313-0.522,0.917-0.655,0.917-0.655c-0.008,0,0,0.313,0,0.304c0,0.003-0.188,0.111-0.271,0.237c0,0.209,0.093,0.49,0.306,0.575
			c0.283,0.112,0.715,0.007,1.016-0.042c0.092,0.112,0.329,0.534,0.506,0.689c-0.146,0.105-0.233,0.044-0.289,0.056
			c-0.063,0.021-0.068,0.072-0.125,0.097c-0.052,0.024-0.125,0.014-0.18,0.032c-0.063,0.021-0.069,0.079-0.132,0.111
			c-0.096,0.048-0.143-0.013-0.237,0.026c-0.074,0.026-0.061,0.119-0.227,0.069c-0.13-0.043-0.28-0.108-0.377-0.161
			c-0.338-0.177-0.47-0.335-0.66-0.347c-0.287-0.014-1.77,0.46-2.213,0.645c-0.09-0.296-0.133-0.525-0.191-0.845
			C143.168,64.835,144.85,64.272,144.891,64.209 M147.571,70.458c0.534,0.037,0.976,0.098,1.065,0.189
			c0.604,0.593,0.432,2.95-0.056,3.393c-0.069,0.064-0.49,0.113-1.052,0.146C147.918,73.213,147.986,71.833,147.571,70.458
			 M147.592,69.435c1.672-0.858,2.87-3.225,2.87-6.012c0-2.759-1.159-4.989-2.795-5.813l0.717,0.014c0,0,0.337-0.021,0.36-0.169
			c0.022-0.149-0.3-0.237-0.3-0.237l-0.79-0.22c-0.007-0.029-0.015-0.063-0.022-0.093l0.678-0.431c0,0,0.271-0.2,0.209-0.337
			c-0.063-0.134-0.382-0.033-0.382-0.033l-0.803,0.258c-0.029-0.028-0.059-0.06-0.086-0.084l0.383-0.727c0,0,0.11-0.263-0.014-0.347
			c-0.122-0.086-0.321,0.116-0.321,0.116l-0.583,0.64c-0.046-0.017-0.094-0.028-0.14-0.042l-0.111-0.849
			c0,0-0.055-0.289-0.204-0.289c-0.151,0-0.201,0.289-0.201,0.289l-0.108,0.843c-0.048,0.006-0.098,0.02-0.145,0.035l-0.578-0.627
			c0,0-0.217-0.206-0.336-0.121c-0.125,0.089,0.002,0.352,0.002,0.352l0.374,0.698c-0.039,0.032-0.072,0.063-0.105,0.099
			l-0.807-0.257c0,0-0.289-0.07-0.351,0.063c-0.061,0.138,0.178,0.308,0.178,0.308l0.672,0.423
			c-0.007,0.038-0.019,0.074-0.025,0.108l-0.808,0.225c0,0-0.321,0.088-0.3,0.237c0.021,0.147,0.359,0.169,0.359,0.169l0.749-0.014
			c-1.648,0.823-2.843,3.054-2.843,5.813c0,2.779,1.191,5.14,2.85,6c-0.636,0.104-1.154,0.281-1.453,0.5
			c-1.398-1.241-2.483-3.456-2.721-6.12c0,0,0.74-0.225,0.782-1.355c0.032-0.941-0.782-1.336-0.782-1.336
			c0.555-3.551,2.792-6.604,5.583-6.604c2.812,0,4.888,2.888,5.473,6.58c0.02-0.025-0.698,0.313-0.654,1.371
			c0.05,1.166,0.7,1.371,0.7,1.348c-0.223,2.754-1.32,4.973-2.694,6.167C148.789,69.737,148.261,69.545,147.592,69.435
			 M137.617,70.169c0.823,0.698,2.705,1.606,4.43,2.182c0.132,0.045,0.259,0.083,0.384,0.128c-0.64,0.168-1.71,0.438-2.137,0.438
			c-0.108,0-0.134-0.015-0.14-0.021c-0.104-0.078-0.113-0.174-0.123-0.291c-0.015-0.115-0.027-0.245-0.139-0.364
			c-0.085-0.09-0.203-0.137-0.358-0.137c-0.268,0-0.615,0.137-0.92,0.26c-0.188,0.075-0.366,0.146-0.504,0.178
			c-0.138,0.032-0.252,0.052-0.361,0.052c-0.159,0-0.28-0.05-0.398-0.159c-0.19-0.177-0.094-0.348,0.078-0.596
			c0.08-0.119,0.146-0.221,0.146-0.317c0-0.382-0.579-0.407-1.141-0.432c-0.381-0.014-0.811-0.032-0.875-0.18
			c-0.067-0.157,0.054-0.275,0.265-0.457c0.181-0.157,0.368-0.318,0.335-0.54c-0.032-0.216-0.38-0.392-0.739-0.557
			c-0.067-0.03-0.122-0.058-0.159-0.074c-0.14-0.08-0.458-0.297-0.38-0.559l0.04-0.082c0.104-0.151,0.317-0.173,0.668-0.067
			c0.032,0.011,0.082,0.027,0.141,0.053c0.211,0.077,0.525,0.196,0.753,0.196c0.081,0,0.144-0.012,0.191-0.041
			c0.188-0.123,0.183-0.369,0.177-0.585c-0.01-0.262-0.005-0.42,0.157-0.47c0.147-0.045,0.438,0.255,0.711,0.543
			c0.306,0.325,0.619,0.657,0.878,0.657c0.076,0,0.142-0.029,0.197-0.078c0.074-0.063,0.106-0.179,0.138-0.318
			c0.076-0.284,0.148-0.479,0.405-0.45c0.297,0.035,0.417,0.211,0.575,0.509c0.07,0.118,0.132,0.302,0.2,0.494
			c0.168,0.48,0.359,1.028,0.745,1.044h0.016c0.155,0,0.256-0.073,0.347-0.138c0.097-0.066,0.18-0.124,0.305-0.096
			c0.11,0.022,0.416,0.389,1.26,1.994c-0.208-0.06-0.412-0.126-0.622-0.201c-1.706-0.557-3.641-1.288-4.482-1.8
			C137.38,69.746,137.312,69.955,137.617,70.169 M134.616,67.9c-1.317-1.033-2.685-2.205-3.253-2.903
			c-0.239-0.231-0.37-0.053-0.152,0.243c0.478,0.824,1.686,2.082,2.955,3.135c-0.081,0.188-0.099,0.377-0.059,0.568
			c-0.655-0.07-1.34-0.169-1.416-0.282c-0.073-0.108-0.051-0.199-0.021-0.317c0.028-0.112,0.057-0.239-0.006-0.391
			c-0.124-0.281-0.534-0.317-0.872-0.317c-0.124,0-0.249,0.003-0.371,0.008c-0.212,0.01-0.414,0.014-0.538,0
			c-0.285-0.039-0.53-0.067-0.679-0.353c-0.125-0.229,0.026-0.362,0.269-0.535c0.113-0.085,0.214-0.159,0.246-0.251
			c0.129-0.362-0.411-0.577-0.934-0.789c-0.353-0.142-0.754-0.3-0.764-0.461c-0.015-0.17,0.142-0.237,0.403-0.342
			c0.221-0.087,0.452-0.179,0.493-0.398c0.042-0.211-0.228-0.497-0.509-0.773c-0.055-0.048-0.096-0.094-0.123-0.121
			c-0.112-0.127-0.347-0.439-0.167-0.666l0.039-0.039c0.15-0.125,0.364-0.074,0.668,0.148c0.029,0.021,0.068,0.057,0.117,0.099
			c0.279,0.231,0.572,0.462,0.783,0.462c0.02,0,0.036-0.004,0.057-0.007c0.22-0.049,0.295-0.286,0.361-0.491
			c0.075-0.242,0.135-0.386,0.304-0.386l0,0c0.161,0.003,0.333,0.401,0.489,0.746c0.201,0.458,0.41,0.927,0.709,0.927h0.002
			c0.036,0,0.074-0.008,0.111-0.021c0.087-0.035,0.159-0.138,0.238-0.26c0.102-0.149,0.22-0.326,0.383-0.326
			c0.043,0,0.094,0.016,0.145,0.041c0.291,0.139,0.329,0.386,0.377,0.668c0.019,0.137,0.019,0.332,0.019,0.536
			c0,0.511-0.002,1.092,0.355,1.229c0.133,0.057,0.273,0.028,0.391-0.008c0.117-0.03,0.217-0.049,0.318,0.015
			c0.081,0.046,0.21,0.369,0.398,1.52c-0.078-0.014-0.153-0.02-0.228-0.02C134.948,67.787,134.769,67.831,134.616,67.9
			 M134.803,69.997c0,0.175-0.143,0.317-0.314,0.317c-0.171,0-0.314-0.143-0.314-0.317c0-0.174,0.144-0.313,0.314-0.313
			C134.661,69.684,134.803,69.823,134.803,69.997 M126.796,58.798c0.16,0.904,0.818,2.424,1.609,3.808
			c-0.078,0.145-0.115,0.302-0.108,0.476c0.005,0.076,0.017,0.155,0.036,0.229c-0.849-0.417-1.295-0.681-1.321-0.794
			c-0.032-0.127,0.022-0.202,0.091-0.302c0.062-0.099,0.134-0.209,0.125-0.371c-0.023-0.384-0.572-0.559-1.06-0.718
			c-0.195-0.06-0.377-0.119-0.503-0.187c-0.255-0.13-0.477-0.247-0.521-0.562c-0.034-0.26,0.152-0.333,0.44-0.414
			c0.138-0.04,0.253-0.074,0.316-0.148c0.247-0.295-0.185-0.684-0.604-1.06c-0.283-0.255-0.606-0.548-0.558-0.698
			c0.046-0.163,0.217-0.18,0.495-0.184c0.24-0.007,0.482-0.012,0.599-0.204c0.112-0.184-0.045-0.547-0.212-0.898
			c-0.035-0.068-0.061-0.119-0.075-0.159c-0.054-0.144-0.158-0.486,0.038-0.654v0.003l0.064-0.042l0.037-0.019
			c0.181-0.053,0.359,0.068,0.563,0.374c0.019,0.032,0.044,0.078,0.076,0.134c0.202,0.35,0.413,0.693,0.629,0.72
			c0.225,0.024,0.372-0.159,0.509-0.342c0.131-0.169,0.256-0.324,0.419-0.255c0.15,0.057,0.179,0.488,0.203,0.871
			c0.035,0.553,0.074,1.131,0.458,1.131l0,0c0.098-0.004,0.195-0.073,0.311-0.158c0.121-0.089,0.259-0.192,0.391-0.192
			c0.075,0,0.141,0.037,0.206,0.1c0.224,0.233,0.177,0.476,0.124,0.758c-0.028,0.14-0.096,0.32-0.165,0.512
			c-0.179,0.479-0.379,1.021-0.094,1.279c0.123,0.108,0.256,0.116,0.37,0.125c0.121,0.011,0.215,0.016,0.293,0.121
			c0.053,0.063,0.069,0.342-0.078,1.201c-0.211-0.106-0.439-0.182-0.662-0.182c-0.123,0-0.237,0.025-0.344,0.068
			c-0.815-1.343-1.597-2.754-1.87-3.544C126.881,58.317,126.698,58.44,126.796,58.798 M128.45,64.243
			c0,0.173-0.14,0.316-0.313,0.316c-0.173,0-0.313-0.144-0.313-0.316s0.14-0.314,0.313-0.314
			C128.31,63.929,128.45,64.07,128.45,64.243 M124.48,57.053c-0.172,0-0.317-0.144-0.317-0.316s0.145-0.316,0.317-0.316
			c0.173,0,0.313,0.144,0.313,0.316S124.654,57.053,124.48,57.053 M128.26,54.076c-0.049-0.199-0.337-0.404-0.495-0.487
			c0.045-0.055,0.091-0.112,0.141-0.166c0.423-0.498,0.998-1.182,0.941-1.968c-0.013-0.151-0.045-0.619-0.473-0.825
			c-0.032-0.013-0.063-0.026-0.096-0.037c0.299-0.075,0.624-0.154,0.976-0.247c0.322-0.08,0.608-0.31,0.778-0.628
			c0.2-0.369,0.231-0.827,0.086-1.257c-0.216-0.63-0.609-2.022-0.555-3.671c1.58-0.31,3.864-0.472,5.651-0.47
			c0.377,0,0.474-0.438,0.093-0.438c-0.346,0-4.14-0.005-5.666-0.008c0.032-0.232,0.076-0.472,0.131-0.712
			c0.185,0.004,0.718,0,0.718,0l0-0.415h1.542l-0.001,0.362l0.699,0.005c0,0,0.189-0.441,0.19-0.804
			c0.003-0.201-0.087-0.416-0.087-0.416h1.203c0,0-0.093,0.176-0.093,0.401c-0.001,0.374,0.194,0.821,0.194,0.821l0.675-0.003V42.87
			h0.72l0.005,0.265l0.385-0.004l0.004-0.384h0.849v0.396h1.901l0.015,1.926c0,0-1.622-1.103-3.466,0.039
			c-0.559,0.346-1.096,0.899-1.312,1.575c-0.29,0.909-0.066,1.648,0.029,1.863c0.267,0.588,0.874,1.057,1.197,1.166
			c0.267,0.255,0.476,0.634,0.679,0.739c0.134,0.07,0.295-0.073,0.439-0.073c0.078,0,0.127,0.124,0.255,0.2
			c0.159,0.092,0.227,0.117,0.278,0.162c0.104,0.084,0.25,0.193,0.411,0.22c0.31,0.044,0.505-0.177,0.668-0.375
			c0.07-0.08,0.245,0.261,0.228,0.268c-0.572,0.19-0.913,0.782-1.143,1.184c-0.23,0.399-0.791,1.678-0.791,1.678
			s-1.311-0.621-1.579-0.593c-1.495,0.093-2.215,0.902-2.215,0.902s-0.793-0.665-1.896-0.261c-0.914,0.334-0.848,1.106-0.848,1.106
			l-0.583,0.656l0.133,1.771l-0.31,0.146c-0.02-0.455-0.065-1.023-0.303-1.442c-0.199-0.354-0.492-0.449-0.9-0.297
			c-0.106,0.042-0.213,0.113-0.309,0.193C127.84,55.19,128.335,54.375,128.26,54.076 M127.932,49.034
			c-0.06-0.397-0.303-0.591-0.741-0.591c-0.231,0-0.505,0.126-0.687,0.215c-0.03,0.01-0.061,0.028-0.089,0.038
			c-0.042-0.569-0.308-1.337-0.894-1.521l-0.243-0.038c-0.039,0-0.074,0-0.118,0.003l0,0l-0.023,0.004
			c-0.261,0.028-0.476,0.145-0.638,0.349c-0.078,0.097-0.13,0.204-0.179,0.321c-0.26-2.09-0.262-4.88,0.63-7.362
			c1.478,0.241,3.155,0.443,3.587,0.474c0.013,0.005,0.022,0.005,0.033,0.005c0.109,0,0.215-0.043,0.296-0.117
			c0.086-0.081,0.112-0.18,0.176-0.33c0.067-0.163,0.412-0.969,0.66-1.23c0.215-0.229,0.694-0.161,0.806,0.223
			c0.018,0.065,0.015,0.133-0.049,0.214c-2.721,3.544-1.6,7.765-1.159,9.054c0.069,0.202,0.059,0.409-0.028,0.568
			c-0.055,0.102-0.139,0.175-0.23,0.196c-0.416,0.107-0.795,0.205-1.146,0.289C127.946,49.543,127.97,49.278,127.932,49.034
			 M136.861,29.611c0.069,0.182,0.308,0.447,0.466,0.613c0.087,0.087,0.049,0.129-0.092,0.107c-0.234-0.035-0.572-0.07-0.704-0.032
			c-0.139,0.041-0.392,0.286-0.556,0.459c-0.094,0.098-0.141,0.07-0.121-0.071c0.03-0.222,0.059-0.536,0.012-0.666
			c-0.048-0.145-0.304-0.431-0.468-0.603c-0.081-0.092-0.046-0.131,0.088-0.109c0.22,0.035,0.546,0.074,0.718,0.027
			c0.157-0.045,0.37-0.25,0.525-0.415c0.11-0.117,0.152-0.095,0.131,0.06C136.824,29.184,136.797,29.453,136.861,29.611
			 M138.327,34.027c0.071,0.184,0.308,0.452,0.472,0.613c0.083,0.089,0.045,0.127-0.093,0.109c-0.236-0.03-0.574-0.07-0.708-0.03
			c-0.135,0.041-0.389,0.284-0.555,0.458c-0.093,0.098-0.141,0.07-0.121-0.071c0.028-0.221,0.059-0.536,0.013-0.665
			c-0.052-0.141-0.303-0.426-0.469-0.603c-0.084-0.092-0.046-0.131,0.086-0.109c0.221,0.038,0.546,0.074,0.716,0.028
			c0.162-0.046,0.373-0.25,0.527-0.412c0.109-0.12,0.157-0.098,0.127,0.057C138.291,33.605,138.266,33.869,138.327,34.027
			 M142.167,26.337c0.071,0.184,0.311,0.451,0.471,0.613c0.086,0.088,0.046,0.126-0.092,0.11c-0.233-0.036-0.576-0.07-0.707-0.032
			c-0.139,0.041-0.394,0.286-0.558,0.458c-0.093,0.099-0.138,0.07-0.123-0.071c0.033-0.221,0.06-0.532,0.013-0.665
			c-0.048-0.146-0.3-0.43-0.468-0.603c-0.081-0.089-0.047-0.131,0.089-0.11c0.221,0.036,0.548,0.074,0.718,0.029
			c0.157-0.047,0.373-0.249,0.525-0.415c0.11-0.118,0.152-0.095,0.13,0.059C142.132,25.915,142.107,26.18,142.167,26.337
			 M142.748,32.543c0.073,0.185,0.31,0.452,0.472,0.618c0.084,0.086,0.044,0.126-0.095,0.109c-0.233-0.034-0.573-0.074-0.708-0.031
			c-0.136,0.039-0.388,0.285-0.555,0.458c-0.094,0.098-0.136,0.067-0.117-0.071c0.028-0.221,0.058-0.536,0.009-0.666
			c-0.051-0.145-0.304-0.43-0.47-0.605c-0.081-0.088-0.046-0.128,0.088-0.108c0.221,0.038,0.548,0.077,0.718,0.026
			c0.158-0.042,0.371-0.246,0.525-0.411c0.109-0.12,0.157-0.098,0.13,0.06C142.712,32.122,142.687,32.39,142.748,32.543
			 M145.686,32.862c-0.029,0.003-0.431-0.054-0.915,0.581c-0.195,0.257-0.112,0.711,0.009,0.68c0.123-0.028,0.539-0.377,0.534-0.328
			c-0.013,0.091-0.07,0.229-0.14,0.335c-0.053,0.081-0.398,0.278-0.495,0.439c-0.123,0.205-0.004,0.469-0.026,0.505
			c-0.042,0.064-0.15,0.102-0.177,0.073c-0.137-0.14-0.179-0.655,0.026-0.911c0.081-0.103-0.299-0.372-0.227-0.772
			c0.055-0.303,0.196-0.42,0.371-0.539c0.29-0.201,0.499-0.232,0.804-0.477c0.571-0.451,0.772-0.645,1.231-0.689
			c0.145-0.015,0.526,0.13,0.639,0.162c0.58,0.168,0.929,0.07,1.119-0.011c0.108-0.046,0.244-0.135,0.391-0.11
			c0.118,0.026,0.189,0.18,0.174,0.533c-0.197-0.188-0.932-0.177-0.985,0.07c-0.047,0.222,0.112,1.137,0.053,1.212
			c-0.106,0.136-0.196,0.103-0.391,0.035c-0.111-0.035-0.247,0.063-0.245,0.091c0.008,0.056,0.18,0.078,0.245,0.109
			c0.103,0.054,0.222,0.107,0.304,0.103c0.084-0.003,0.179-0.089,0.263-0.127c0.061-0.032,0.107-0.035,0.125-0.063
			c0.032-0.067-0.057-0.117-0.061-0.268c-0.011-0.362-0.029-0.79-0.021-0.818c0.016-0.014,0.04-0.042,0.075-0.021
			c0.046,0.032,0.075,0.096,0.193,0.104c0.068,0.002,0.121-0.055,0.154-0.098c0.021-0.027,0.192-0.123,0.239-0.088
			c0.037,0.025,0,0.088-0.008,0.201c0,0.06,0.053,0.416,0.047,0.486c-0.034,0.494-0.257,1.009-0.588,1.527
			c-0.087,0.132-0.139,0.281-0.248,0.387c-0.139,0.137-0.567,0.362-1.445-0.335c-0.224-0.178-0.348-0.415-0.424-0.415
			c-0.057,0-0.075,0.158-0.075,0.273c0,0.144,0.162,0.377,0.377,0.571c0.141,0.13,0.423,0.295,0.564,0.345
			c0.238,0.081,0.533,0.17,0.762,0.258c0.538,0.204,1.428,0.591,1.836,0.998c0.465,0.463,0.868,1.267,1.176,2.316
			c0.166,0.567,0.513,2.086,0.871,3.488c0.337,1.311,0.696,2.526,0.694,2.515c-1.168,0.929-0.871,2.529-0.906,2.814
			c-0.09,0.007-1.012-5.96-1.686-8.849c-0.013-0.061-0.044-0.131-0.152-0.123c-0.108,0.003-0.121,0.099-0.125,0.151
			c0,0.048,0.871,8.729,0.946,10.012c-1.246-0.127-1.599,0.778-1.998,0.68c0,0-0.256,0.015-0.265-0.447
			c0-0.067-0.163-5.38-0.314-8.535c-0.06-1.287-0.068-2.666-0.131-3.964c-0.002-0.119-0.053-0.262-0.149-0.124
			c-0.26,0.561-0.88,0.653-1.433,0.536c-0.17-0.057-0.626-0.13-1.282-0.859c-0.11-0.098-0.238-0.018-0.211,0.088
			c0.206,0.746,0.892,1.19,1.366,1.403c0.376,0.146,0.576,0.164,0.874,0.179c0.041,0.616,0.065,1.204,0.065,1.972
			c-0.588-0.58-1.406-0.618-1.971-0.954c-0.531-0.317-0.912-0.853-1.333-1.563c0,0-0.093-0.177-0.209-0.109
			c-0.117,0.063-0.043,0.25-0.043,0.25c0.201,0.725,0.565,1.597,1.311,2.154c0.338,0.244,1.118,0.572,1.466,0.759
			c0.628,0.338,0.793,1.132,0.793,1.132c-0.441,0.981-1.226,1.811-2.057,2.722c-0.828,0.917-3.504,3.023-3.436,2.541
			c0.084-0.62,0.096-2.097,0.096-2.505c0-2.109-0.118-2.928-0.084-4.435c-0.406,0.731-0.993,0.859-1.177,0.981
			c0,0.038,0.057,6.563,0.056,6.75c-0.274-0.072-0.754-0.855-0.973-1.473c-0.033-0.041,0.017-9.246,0.076-9.271l0.753-0.384
			c0.027,0.563,0.018,1.449,0.024,1.775c0.788-0.981,1.298-1.7,2.188-2.169c0.654-0.345,1.854-0.55,2.345-0.799
			c0.336-0.295,0.751-1.811,0.821-2.282C145.767,33.059,145.786,32.854,145.686,32.862 M144.71,30.881
			c0.208-0.854,0.928-1.169,1.604-1.518c0.17-0.088,0.336-0.256,0.448-0.451c0.144-0.242,0.078-0.612-0.136-0.409
			c-0.13,0.12-0.438,0.37-0.804,0.514c-0.452,0.18-0.567,0.262-0.949,0.642c-0.041-0.207-0.055-1.022,0.309-1.621
			c0.108-0.184,0.27-0.331,0.444-0.438c-0.114-0.56,0.007-0.866,0.075-0.882c0.121-0.022,0.407,0.365,0.578,0.517
			c0.171,0.147,0.358-0.037,0.237-0.163c-0.037-0.039-0.103-0.128-0.172-0.2c0.041-0.128,0.046-0.252,0.107-0.222
			c0.056,0.028,0.346,0.292,0.433,0.7c0.049,0.024,0.271,0.05,0.515,0.257c0.747,0.631,1.279,1.882,1.577,3.675
			c-0.039-0.022-0.118-0.191-0.283-0.191c-0.124,0-0.348,0.099-0.402,0.122c-0.251,0.118-0.654,0.094-0.965-0.026
			c-0.088-0.032-0.48-0.148-0.75-0.116c-0.475,0.049-0.832,0.212-1.3,0.66c-0.335,0.316-0.775,0.468-0.775,0.468
			c-0.017-0.127-0.075-0.208-0.017-0.342c0.043-0.123,0.179-0.282,0.181-0.38C144.672,31.252,144.649,31.146,144.71,30.881
			 M154.271,32.543c0.076,0.185,0.313,0.452,0.47,0.618c0.089,0.086,0.048,0.126-0.089,0.109c-0.238-0.034-0.573-0.074-0.71-0.031
			c-0.136,0.039-0.391,0.285-0.554,0.458c-0.096,0.098-0.141,0.067-0.121-0.071c0.027-0.221,0.061-0.536,0.012-0.666
			c-0.051-0.145-0.303-0.43-0.47-0.605c-0.081-0.088-0.047-0.128,0.085-0.108c0.227,0.038,0.551,0.077,0.721,0.026
			c0.159-0.042,0.373-0.246,0.527-0.411c0.105-0.12,0.152-0.098,0.126,0.06C154.236,32.122,154.209,32.39,154.271,32.543
			 M156.061,42.253l0.547,0.004l0.005,0.896h0.532l0.006-1.747l0.234-0.641l0.211,0.641l0.004,0.873l0.299-0.19l0.279,0.183v-0.854
			l0.213-0.66l0.201,0.662l0.002,1.732h0.395c0-0.013,0-0.065,0-0.357c0-0.402,0.416-0.575,0.416-0.575s0.42,0.209,0.42,0.575v0.357
			h0.504v-0.285h0.408V42.5l0.531-0.257l0.529,0.253v0.677c0,0,0.658,0,0.891,0c0.061,0.24,0.107,0.472,0.146,0.701
			c-1.461,0.003-5.405,0.008-5.76,0.008c-0.382,0-0.285,0.438,0.092,0.438c1.824-0.002,4.176,0.168,5.758,0.491
			c0.051,1.373-0.25,2.642-0.58,3.684c-0.189,0.607-0.182,1.079,0.02,1.445c0.236,0.438,0.686,0.604,1,0.689
			c0.07,0.02,0.217,0.061,0.408,0.11c-0.268,0.229-0.295,0.582-0.303,0.715c-0.061,0.786,0.516,1.47,0.936,1.968
			c0.049,0.054,0.1,0.111,0.145,0.166c-0.156,0.083-0.443,0.288-0.492,0.487c-0.078,0.299,0.414,1.114,0.9,1.821
			c-0.094-0.08-0.199-0.155-0.305-0.193c-0.414-0.152-0.705-0.057-0.904,0.297c-0.244,0.433-0.283,1.03-0.307,1.492
			c-0.135-0.081-0.369-0.166-0.59-0.166c-0.025,0-0.053,0.005-0.08,0.007c-0.473,0.044-0.67,0.463-0.734,0.603
			c0,0.005,0,0.008-0.008,0.014c-0.094-0.064-0.232-0.133-0.434-0.174c-0.205-0.048-0.361-0.057-0.477-0.061
			c1.563-1.199,2.014-3.406,0.973-5.136c-1.045-1.738-3.223-2.376-5.018-1.537c-0.34,0.043-0.666-0.138-0.666-0.138
			s0.192-0.384,0.379-0.807c0.128-0.298,0.234-0.647,0.279-1.17c0.02-0.271-0.021-0.573-0.051-0.901
			c-0.036-0.45,0.006-1.269-0.242-1.851c-0.647-1.484-1.877-1.548-1.877-1.548s-0.139-1.093-0.229-1.456c0,0,0.382-0.004,0.98-0.004
			v-0.422l0.412,0.004V42.253z M159.217,32.543c0.072,0.185,0.313,0.452,0.469,0.618c0.086,0.086,0.047,0.126-0.094,0.109
			c-0.232-0.034-0.57-0.074-0.707-0.031c-0.135,0.039-0.389,0.285-0.553,0.458c-0.096,0.098-0.139,0.067-0.121-0.071
			c0.029-0.221,0.061-0.536,0.014-0.666c-0.052-0.145-0.307-0.43-0.471-0.605c-0.084-0.088-0.049-0.128,0.085-0.108
			c0.226,0.038,0.55,0.077,0.718,0.026c0.164-0.042,0.375-0.246,0.529-0.411c0.107-0.12,0.152-0.098,0.127,0.06
			C159.178,32.122,159.154,32.39,159.217,32.543 M164.469,50.031c-0.309-0.081-0.609-0.161-0.879-0.235
			c-0.342-0.091-0.432-0.196-0.471-0.272c-0.08-0.142-0.063-0.407,0.053-0.767c0.434-1.385,1.695-5.407-1.412-9.185
			c0.123-0.45,0.609-0.569,0.844-0.32c0.246,0.262,0.514,1.058,0.773,1.453c0.064,0.098,0.361,0.22,0.471,0.22
			c0.014,0,2.01-0.229,3.477-0.468c0.834,2.393,0.84,5.094,0.594,7.19c-0.029-0.053-0.066-0.105-0.102-0.155
			c-0.166-0.208-0.383-0.323-0.645-0.349l-0.02-0.004c-0.844-0.072-1.203,0.878-1.256,1.557c-0.025-0.01-0.057-0.028-0.088-0.038
			c-0.18-0.089-0.453-0.215-0.688-0.215c-0.436,0-0.678,0.193-0.738,0.591C164.334,49.354,164.389,49.705,164.469,50.031
			 M161.867,62.654c-0.029,0.028-0.061,0.057-0.088,0.086c-0.014-0.025-0.027-0.061-0.041-0.089
			c-0.082-0.185-0.207-0.461-0.383-0.613c-0.334-0.285-0.637-0.3-0.947-0.032c-0.381,0.32-0.621,0.871-0.803,1.3
			c-0.066-0.088-0.174-0.186-0.303-0.263c-0.455-0.5-0.377-1.152-0.365-1.386c0.006-0.249-0.193-0.242-0.381,0.109
			c-0.604,1.127-0.865,1.564-1.535,2.23c-0.469,0.472-1.612,1.078-1.84,0.976c-0.047-0.019,1.147-1.489,1.282-2.741
			c-0.019-0.286-0.211-0.26-0.38,0c-1.281,2.01-2.738,2.805-3.507,3.101c0.107-0.556,0.181-1.123,0.218-1.701
			c0.008,0.024-0.924-0.161-0.924-1.219c0-0.97,0.774-1.101,0.784-1.079c-0.386-2.893-1.679-5.314-3.413-6.633
			c0.055-0.803-0.063-2.05,1.021-3.255c0.258-0.293,1.206-0.867,1.7-1.057c0.163,0.35,0.382,0.598,0.579,0.923
			c0.163,0.32,0.074,0.725-0.109,1.288c-0.383,1.057-0.517,1.497-0.525,1.921c-0.005,0.226,0.17,0.616,0.336,0.533
			c0.424-1.438,0.99-3.184,0.91-3.769c-0.112-0.633-0.692-0.884-0.738-1.545c-0.029-0.123-0.029-0.265-0.016-0.396
			c0.004-0.008,0.005-0.017,0.009-0.023c0.048-0.47,0.427-0.997,0.506-1.1c0.377-0.177,0.914-0.501,1.21-0.761
			c0.295-0.258,0.695-0.605,0.82-0.817c0.008-0.015,0.014-0.021,0.021-0.032c0.022-0.035,0.035-0.065,0.049-0.105
			c0.092-0.304-0.223-0.729-0.195-0.761c0.035-0.032,0.395,0.138,0.479,0.557c0.038,0.189,0.029,0.274-0.017,0.354
			c0.191,0.107,0.524,0.209,0.911,0.573c0.17,0.153,0.242,0.457,0.212,0.673c-0.382-0.075-0.779,0.123-0.809,0.257
			c-0.05,0.279,0.052,0.605,0.062,0.867c0.003,0.073,0.027,0.214-0.002,0.246c-0.176,0.151-0.509-0.1-0.527,0.105
			c-0.004,0.064,0.137,0.038,0.199,0.074c0.081,0.042,0.15,0.141,0.248,0.138c0.066,0,0.113-0.076,0.216-0.162
			c0.061-0.054,0.097-0.045,0.142-0.09c0.038-0.026,0.007-0.143-0.002-0.213c-0.027-0.204-0.056-0.536-0.046-0.687
			c0.003-0.033,0.048-0.037,0.078-0.015c0.075,0.056,0.141,0.045,0.179,0.038c0.057-0.012,0.105-0.053,0.137-0.099
			c0.025-0.024,0.137-0.221,0.13-0.151c-0.005,0.098,0.013,0.16,0.026,0.232c0.013,0.089,0.066,0.307,0.049,0.477
			c-0.039,0.453-0.109,0.78-0.48,1.458c-0.081,0.136-0.146,0.395-0.362,0.45c-0.694,0.176-1.47-0.412-1.882-0.853
			c0,0-0.268-0.229-0.325-0.405c-0.029-0.095,0.128-0.482,0.187-0.633c0.053-0.128-0.099-0.139-0.227-0.031
			c-0.111,0.091-0.191,0.333-0.191,0.333c-0.119,0.289-0.093,0.479-0.043,0.612c0.262,0.61,0.885,1.108,0.71,1.853
			c-0.284,1.487-0.386,4.98-0.993,4.98c-0.705,0-1.88-2.548-2.094-2.884c-0.258-0.397-0.718-0.212-0.394,0.406
			c0.184,0.352,1.34,3.182,2.509,3.284c0.402,0.035,0.564-0.244,0.727-0.789c0.232-0.786,0.462-2.872,0.82-5.145
			c0.033-0.222-0.061-0.455-0.092-0.595c0.376,0.341,0.959,0.472,1.58,0.565c0.111,0.013,0.235,0.013,0.361,0
			c-1.27,1.006-1.784,2.679-1.328,4.199l-0.008-0.007c0,0,0.627,2.111,0.48,3.123c-0.121,0.622-0.475,0.692-0.559,0.746
			c-0.25,0.171-0.172,0.385-0.145,0.409c0.079,0.096,0.168,0.041,0.518-0.093c0.742-0.29,3.331-1.486,5.723-1.338
			c0.066,0.008,0.141,0.025,0.213,0.042c0.088,0.028,0.176,0.069,0.264,0.107c0.164,0.086,0.299,0.234,0.406,0.424
			c0.082,0.146,0.139,0.293,0.172,0.395c0.043,0.146,0.09,0.282,0.139,0.416c0.027,0.123,0.053,0.247,0.078,0.375
			c-0.172,0.027-0.473,0.104-0.586,0.27C161.48,60.858,161.656,61.819,161.867,62.654 M156.408,54.355
			c-0.43,0.042-0.773-0.008-1.028-0.078c0.073-0.747,0.394-1.461,0.933-2.016C156.228,52.587,156.109,53.337,156.408,54.355
			 M160.262,53.423c-0.059-0.096-0.084-0.156-0.148-0.243c-0.854-1.198-1.774-1.654-2.279-1.82c1.234-0.341,2.58,0.055,3.434,1.041
			c-0.092,0.672-0.461,1.77-2.082,2.757c-0.477,0.289-0.916,0.487-1.322,0.616c-0.068-0.093-0.132-0.192-0.196-0.292
			c-0.084-0.134-0.166-0.271-0.243-0.411c-0.029-0.057-0.06-0.112-0.086-0.175c0.403-0.099,0.859-0.283,1.375-0.594
			c0.141-0.081,0.141-0.084,0.266-0.158c0.232-0.135-0.141-0.754-0.385-0.624c-0.127,0.067-0.127,0.069-0.264,0.152
			c-0.459,0.271-0.875,0.447-1.251,0.554c-0.335-1.15-0.134-2.16-0.063-2.453c0.511,0.148,1.781,0.631,2.568,1.824
			c0.074,0.117,0.135,0.227,0.215,0.339C159.963,54.17,160.428,53.699,160.262,53.423 M161.189,56.292
			c0.572-0.593,0.809-1.197,0.902-1.64c-0.016,0.813-0.32,1.613-0.885,2.225C161.213,56.722,161.209,56.525,161.189,56.292
			 M161.092,55.584c-0.006-0.049-0.02-0.098-0.029-0.148c-0.02-0.096-0.02-0.056-0.039-0.154c-0.031-0.172-0.125-0.134-0.309,0.059
			c-0.107,0.109-0.209,0.277-0.184,0.386c0.018,0.098-0.004,0.017,0.021,0.109c0.021,0.07,0.037,0.141,0.053,0.204
			c-0.195,0.158-0.418,0.317-0.672,0.472c-0.35,0.211-0.678,0.366-0.98,0.487c-0.211-0.197-0.434-0.422-0.652-0.674
			c0.377-0.122,0.787-0.313,1.23-0.589c1.611-0.998,1.979-2.249,2.053-2.91c0.008,0.014,0.021,0.029,0.025,0.043
			c0.135,0.223,0.234,0.447,0.314,0.681C161.898,53.801,161.949,54.646,161.092,55.584 M160.814,57.24
			c-0.111,0.087-0.229,0.169-0.352,0.246c-0.186,0.108-0.373,0.197-0.564,0.271c-0.115-0.08-0.26-0.186-0.424-0.314
			c0.244-0.105,0.5-0.235,0.771-0.404c0.182-0.109,0.346-0.225,0.49-0.341C160.781,56.936,160.805,57.123,160.814,57.24
			 M158.91,57.637c0.154,0.104,0.293,0.191,0.418,0.267c-0.201,0.021-0.396,0.038-0.584,0.062c-0.436,0-0.867-0.079-1.268-0.243
			C157.86,57.789,158.339,57.793,158.91,57.637 M156.496,57.12c-0.248-0.218-0.469-0.482-0.652-0.781
			c-0.007-0.021-0.019-0.04-0.03-0.061c0.376,0.161,0.981,0.334,1.786,0.216c0.234,0.259,0.482,0.494,0.723,0.701
			C157.462,57.395,156.842,57.258,156.496,57.12 M156.927,55.57c0.071,0.127,0.147,0.251,0.233,0.37
			c-0.68,0.099-1.211,0.004-1.563-0.117c-0.142-0.353-0.217-0.717-0.228-1.086c0.179,0.093,0.609,0.293,1.276,0.27
			c0.047,0.108,0.099,0.219,0.156,0.333C156.839,55.419,156.883,55.493,156.927,55.57 M153.535,40.531
			c0.552,2.794,0.724,4.091,0.724,4.091s-0.351,0-0.606,0.056c-0.037,0.035-0.324-2.248-0.739-3.925
			c-0.873-3.506-1.417-4.234-2.256-4.383c-0.359-0.063-0.5,0.128-0.561,0.149c-0.056-0.057-0.182-0.129-0.225-0.173
			c0,0,0.16-1.222,0.992-1.2C151.859,35.173,152.887,37.289,153.535,40.531 M140.699,62.415c0.023,0.842-1.024,1.216-1.024,1.216
			c-0.025,0.568,0.032,1.166,0.152,1.764c-0.695-0.235-2.297-0.981-3.687-3.163c-0.167-0.26-0.361-0.286-0.379,0
			c0.134,1.252,1.329,2.723,1.282,2.741c-0.23,0.103-1.372-0.504-1.846-0.976c-0.667-0.666-0.928-1.104-1.53-2.23
			c-0.188-0.352-0.388-0.358-0.38-0.109c0.012,0.269,0.108,1.086-0.602,1.594c-0.176-0.42-0.414-0.935-0.778-1.245
			c-0.312-0.268-0.614-0.253-0.948,0.032c-0.176,0.152-0.3,0.429-0.379,0.613c-0.016,0.028-0.033,0.063-0.042,0.089
			c-0.029-0.029-0.058-0.058-0.089-0.086c0.208-0.835,0.388-1.796,0.205-2.058c-0.125-0.183-0.476-0.257-0.632-0.278
			c0.023-0.066,0.046-0.136,0.075-0.206c0.042-0.135,0.094-0.275,0.139-0.423c0.313-0.695,0.743-1.191,1.475-1.146
			c1.085,0.072,2.201,0.446,2.411,0.479l0,0c2.241,0.624,3.179,1.068,3.368,1.091c0.267,0.03,0.244-0.16,0.166-0.435
			c-0.108-0.359-0.241-0.72,0.06-1.497c0.123-0.324,0.356-0.816,0.558-1.23c0.471-0.819,0.973-1.896,1.279-2.468
			c0.234-0.483,0.269-0.801,0.058-0.902c-0.267-0.085-0.599,0.521-0.794,0.916c-0.373,0.661-0.846,1.747-1.492,2.47
			c-0.261,0.26-0.348,0.229-0.684,0.146c-1.381-0.384-4.309-1.937-4.776-1.907c-0.498,0.022-1.001-0.124-1.387-0.448
			c-0.063,0.125-0.257,0.145-0.293,0.063c0.04-0.113,0.04-0.275,0.125-0.338c0.105-0.131,0.386-0.269,0.652-0.353
			c0.547-0.04,0.828,0.245,1.473,0.586c0.713,0.097,2.637,0.429,3.962,0.836c0.375,0.075,0.456-0.188,0.163-0.364l-0.247-0.157
			c0.407-1.18,0.819-2.064,1.502-3.116c0.457-0.709,0.955-0.508,1.718-0.892c0.664-0.272,1.012-0.711,1.511-1.11
			c1.563,1.396,2.019,3.604,2.313,4.756c-2.001,1.435-3.56,4.114-3.602,6.609C139.754,61.31,140.669,61.429,140.699,62.415
			 M132.75,56.771c-0.433-0.187-0.809-0.348-1.239-0.533c-0.527-0.22-1.125-0.449-1.646-0.688c0.122-0.131,0.15-0.227,0.522-0.261
			c0.09,0.094,0.704,0.489,1.193,0.457c0.632-0.047,1.896,0.688,2.294,0.866c0.627,0.282,1.31,0.593,1.925,0.982
			c-0.366,0.325-0.608,0.914-0.608,0.914s-1.882-0.561-2.959-0.839c-0.911-0.233-1.667-0.444-2.401-0.599
			c-0.039-0.121-0.158-0.955-0.075-0.934c0.264,0.058,1.877,0.605,1.877,0.605s0.774,0.276,1.026,0.367
			C133.072,57.258,133.265,56.988,132.75,56.771 M133.007,54.284c0.21-0.222,0.452-0.37,0.676-0.461
			c0.261-0.089,0.407-0.138,0.682-0.176c0.575,0.212,0.972,0.348,1.54,0.57c-0.11,0.238-0.176,0.435-0.242,0.563
			C134.767,54.58,134.004,54.466,133.007,54.284 M137.922,48.617c-0.133,0.051-0.025,0.196-0.076,0.708
			c-0.054,0.538-0.201,0.964-0.555,1.084c-0.188,0.053-0.258-0.134-0.371-0.218c-0.049-0.037-0.111,0.013-0.167-0.004
			c-0.039-0.028-0.027-0.116-0.063-0.135c-0.047-0.023-0.141,0.021-0.164,0.015c-0.025-0.011-0.055-0.038-0.061-0.07
			c-0.012-0.063-0.048-0.18-0.08-0.169c-0.048,0.042-0.101,0.084-0.131,0.105c-0.071,0.057-0.1,0.07-0.16,0.067
			c-0.064-0.011-0.083-0.057-0.147-0.131c-0.093-0.113-0.229-0.308-0.306-0.419c-0.063-0.095-0.154-0.251-0.285-0.271
			c-0.206-0.039-0.636-0.331-0.743-0.891c-0.014-0.054-0.025-0.119-0.035-0.22c-0.041-0.43,0.046-0.834,0.208-0.781
			c0.015,0,0.023,0.01,0.031,0.021c0-0.005,0-0.005,0,0v0.008c0.017,0.032,0.012,0.088,0.004,0.158
			c0.003,0.211,0.015,0.349,0.081,0.423c0.083,0.095,0.253,0.099,0.336,0.083c0.346-0.051,0.718,0.008,1.105,0.055
			c0.234,0.045,0.4-0.034,0.498-0.188c0.088-0.162,0.259-0.324,0.444-0.358c0.56-0.04,0.935,0.4,1.349,0.714
			c0.551,0.423,1.767,1.351,1.767,1.351c-0.362,0.472-1.07,0.918-1.656,1.134c-0.228-0.479-0.406-0.599-0.525-0.692
			C138.254,49.733,138.322,48.609,137.922,48.617 M142.753,50.294c0,0,1.079-0.209,1.802-0.705c0.467-0.321,1.344-1.082,1.786-2.403
			c0.144-0.433-0.067-0.761-0.366-0.268c-0.735,1.22-2.216,2.72-3.68,2.604c-0.406-0.036-0.698-0.358-0.855-0.581
			c2.211-1.064,4.155-3.117,5.875-5.468l-0.153,5.277c-0.225,0.422-0.5,0.901-0.761,1.245c-0.79,1.045-1.881,1.781-2.662,1.222
			C143.239,50.853,142.753,50.294,142.753,50.294 M140.693,30.825c0.002,0.142-0.509,0.611-0.509,0.611s0.08,2.789,0.054,2.778
			c-0.164,0.039-0.475,0.137-0.609,0.226c0,0.01,0.074-2.988,0.074-2.988s-0.433-0.436-0.437-0.582
			c-0.003-0.144,0.583-2.317,0.714-2.317C140.111,28.553,140.689,30.685,140.693,30.825 M140.551,34.679
			c0.126-0.039,0.249,0.063,0.273,0.173c0,0.074-0.059,0.166-0.063,0.244c-0.006,0.084,0.042,0.158,0.032,0.242
			c-0.013,0.085-0.091,0.197-0.109,0.275c-0.046,0.189-0.049,0.319-0.132,0.383c-0.129,0.109-0.943,0.625-1.493,0.748
			c-0.101,0.024-0.196,1.061-0.205,1.158c-0.034,0.476-0.007,0.959-0.04,1.435c-0.045,0.62-0.015,1.317-0.131,1.923
			c-0.089,0.482-0.816,0.825-1.293,0.825c-0.285,0,0.199-2.396,0.233-2.578c0.233-1.121,0.448-2.221,0.958-3.261
			C138.966,35.462,139.69,34.887,140.551,34.679 M157.396,20.37c7.131,3.134,11.49,12.358,11.066,18.995
			c-0.176,0.038-0.377,0.077-0.584,0.116l-0.443,0.073l-0.439,0.074c-1.039,0.17-2.164,0.313-2.836,0.391
			c-0.023-0.665-0.09-1.335-0.195-2.008l-0.076-0.434l-0.078-0.439c-1.232-6.018-5.369-11.873-8.926-13.447
			c0.324-0.43,0.712-0.937,1.087-1.438C156.492,21.574,157.021,20.873,157.396,20.37 M145.944,18.657
			c4.392,0,7.578,1.445,9.575,2.766c-0.079,0.103-0.156,0.208-0.237,0.31c-0.524,0.69-1.069,1.405-1.434,1.899
			c-0.084,0.113-0.106,0.26-0.063,0.392c0.033,0.108,0.29,0.524,0.397,0.662c0.368,0.469,1.063,0.997,0.782,1.429
			c-0.076,0.124-0.186,0.181-0.307,0.199c-1.025-0.972-4.136-3.216-8.433-3.216c-3.815,0-6.612,1.771-7.941,2.804
			c-0.214,0.147-0.362,0.281-0.369,0.281c-0.048,0-0.277-0.168-0.247-0.397c0.028-0.216,0.237-0.36,0.376-0.511
			c0.108-0.117,0.221-0.236,0.317-0.36c0.273-0.349,0.354-0.944,0.097-1.282c-0.371-0.489-0.906-1.209-1.434-1.899
			c-0.122-0.158-0.243-0.319-0.361-0.48C138.597,19.993,141.658,18.657,145.944,18.657 M123.843,39.365
			c-0.42-6.637,3.938-15.861,11.066-18.995c0.374,0.503,0.908,1.204,1.428,1.884c0.377,0.501,0.764,1.007,1.085,1.438
			c-3.554,1.574-7.693,7.433-8.923,13.45l-0.158,0.874c-0.101,0.669-0.168,1.339-0.192,2.004c-0.677-0.077-1.814-0.225-2.861-0.395
			l-0.882-0.148C124.206,39.438,124.016,39.403,123.843,39.365 M123.552,51.682c0.063,0,0.129,0.004,0.19,0.011
			c0.156,0.012,0.279,0.012,0.348-0.025c0.324-0.188,0.083-0.676-0.168-1.162c-0.008-0.016-0.015-0.033-0.023-0.047
			c-0.175-0.338-0.374-0.721-0.277-0.849c0.047-0.06,0.1-0.086,0.179-0.086c0.104,0,0.229,0.047,0.354,0.091
			c0.133,0.045,0.273,0.095,0.404,0.095c0.088,0,0.166-0.026,0.229-0.075c0.171-0.134,0.152-0.524,0.117-0.916
			c-0.008-0.073-0.01-0.133-0.01-0.172c0-0.162,0.023-0.542,0.289-0.61l0.103-0.006c0.178,0.018,0.301,0.2,0.381,0.545
			c0.006,0.036,0.017,0.089,0.027,0.151c0.063,0.399,0.141,0.795,0.335,0.896c0.05,0.024,0.101,0.039,0.158,0.039
			c0.15,0,0.296-0.089,0.435-0.177c0.188-0.116,0.358-0.212,0.483-0.094c0.119,0.111-0.005,0.523-0.117,0.887
			c-0.165,0.537-0.333,1.097,0.03,1.222c0.081,0.032,0.209,0,0.345-0.039c0.107-0.029,0.213-0.056,0.314-0.056
			c0.136,0,0.222,0.056,0.278,0.183c0.126,0.296-0.003,0.508-0.155,0.752c-0.075,0.124-0.199,0.267-0.334,0.418
			c-0.334,0.389-0.715,0.824-0.536,1.163c0.073,0.147,0.195,0.204,0.299,0.251c0.107,0.049,0.197,0.091,0.234,0.214
			c0.025,0.079-0.051,0.37-0.718,1.462c-0.177-0.232-0.392-0.433-0.63-0.541c-0.314-1.625-0.574-3.372-0.55-4.261
			c-0.03-0.33-0.243-0.281-0.276,0.084c-0.167,0.903-0.089,2.552,0.159,4.123c-0.049,0.015-0.095,0.031-0.142,0.056l-0.017,0.008
			c-0.166,0.08-0.292,0.195-0.384,0.342c-0.392-0.431-0.745-0.85-0.73-0.97c0.018-0.131,0.093-0.187,0.192-0.253
			c0.093-0.07,0.2-0.146,0.25-0.304c0.116-0.365-0.342-0.726-0.737-1.046c-0.161-0.126-0.312-0.247-0.404-0.353
			c-0.226-0.247-0.356-0.415-0.289-0.708C123.227,51.751,123.332,51.682,123.552,51.682 M137.851,80.773
			c0.254-0.263,0.589-0.898,0.91-1.587c0.308,0.079,0.616,0.149,0.927,0.215c-0.236,0.544-0.482,1.076-0.712,1.503
			C138.552,80.842,138.163,80.797,137.851,80.773 M140.643,81.188c-0.328-0.063-0.662-0.126-0.994-0.18
			c0.183-0.328,0.396-0.884,0.607-1.49c0.352,0.065,0.701,0.127,1.057,0.182C141.133,80.23,140.913,80.751,140.643,81.188
			 M142.332,81.606c-0.287-0.093-0.62-0.182-0.978-0.267c0.225-0.316,0.448-0.894,0.624-1.541c0.351,0.045,0.699,0.083,1.055,0.117
			C142.849,80.572,142.587,81.231,142.332,81.606 M150.128,81.606c-0.255-0.373-0.51-0.988-0.699-1.658
			c0.359-0.035,0.712-0.073,1.066-0.116c0.176,0.635,0.391,1.197,0.61,1.508C150.749,81.425,150.415,81.514,150.128,81.606
			 M151.813,81.188c-0.261-0.427-0.479-0.933-0.655-1.45c0.354-0.054,0.702-0.118,1.051-0.185c0.197,0.6,0.414,1.134,0.599,1.455
			C152.477,81.063,152.141,81.126,151.813,81.188 M154.61,80.773c-0.315,0.023-0.702,0.068-1.124,0.131
			c-0.229-0.417-0.474-0.932-0.701-1.467c0.313-0.065,0.615-0.138,0.922-0.215C154.015,79.903,154.355,80.511,154.61,80.773
			 M171.838,56.656c-0.736,3.565-2.336,8.771-5.783,13.316c-4.652,6.134-11.239,9.242-19.579,9.242h-0.014
			c-8.794-0.002-15.626-3.108-20.308-9.232c-3.388-4.428-4.881-9.483-5.538-12.943c-0.641-3.35-0.714-6.439-0.462-8.184
			c0.016-0.105,0.105-0.307,0.393-0.236c0.588,0.141,1.437,0.366,2.264,0.578c-0.034,0.089-0.053,0.193-0.051,0.31
			c0.017,0.5,0.292,1.033,0.513,1.44c-0.099,0-0.401,0.021-0.658,0.21c-0.381,0.277-0.333,0.742-0.314,0.895
			c0.086,0.785,0.776,1.352,1.279,1.765c0.061,0.049,0.117,0.098,0.17,0.142c-0.144,0.112-0.385,0.368-0.398,0.566
			c-0.016,0.254,0.434,0.782,0.956,1.297c-0.437,0.079-0.761,0.461-0.761,0.915c0,0.345,0.187,0.646,0.466,0.807
			c-0.197,0.198-0.235,0.438-0.115,0.726c0.188,0.461,0.632,0.863,0.988,1.161c-0.154,0.062-0.395,0.199-0.546,0.432
			c-0.26,0.398-0.045,0.814,0.024,0.95c0.358,0.703,1.201,0.987,1.82,1.198c0.072,0.025,0.144,0.047,0.207,0.071
			c-0.049,0.084-0.097,0.193-0.099,0.201c-0.056,0.136-0.114,0.328-0.073,0.468c0.073,0.23,0.63,0.546,1.259,0.834
			c-0.171,0.171-0.274,0.401-0.274,0.659c0,0.509,0.405,0.916,0.904,0.935c-0.037,0.193,0.027,0.381,0.193,0.565
			c0.339,0.367,0.897,0.594,1.326,0.756c-0.126,0.111-0.3,0.329-0.358,0.582c-0.107,0.467,0.235,0.783,0.346,0.889
			c0.481,0.445,1.182,0.502,1.74,0.502c0.133,0,0.261,0,0.383-0.009c0.077,0,0.149,0,0.219-0.001
			c-0.003,0.013-0.005,0.033-0.009,0.052c-0.018,0.133-0.047,0.468,0.08,0.638c0.158,0.207,0.899,0.313,1.666,0.361
			c-0.086,0.143-0.139,0.308-0.139,0.484c0,0.514,0.418,0.933,0.933,0.933c0.067,0,0.129-0.008,0.191-0.017
			c-0.05,0.306,0.067,0.536,0.365,0.695c0.441,0.233,1.041,0.257,1.503,0.27c-0.089,0.146-0.175,0.419-0.146,0.672
			c0.054,0.473,0.485,0.655,0.623,0.72c0.201,0.088,0.424,0.129,0.671,0.129c0.53,0,1.065-0.199,1.498-0.369
			c0.071-0.026,0.139-0.053,0.205-0.073c0.002,0.011,0.002,0.025,0.007,0.042c0.026,0.134,0.107,0.465,0.288,0.581
			c0.069,0.045,0.173,0.067,0.333,0.067c0.681,0,2.124-0.416,2.806-0.634c0.112,0.771,0.416,1.466,0.954,1.807
			c0.324,0.205,4.524,0.19,4.837,0.021c0.161-0.091,0.303-0.222,0.428-0.381c0.002-0.003,0.006-0.003,0.008-0.01
			c0.262-0.342,0.444-0.82,0.548-1.35c0.707,0.223,2.089,0.611,2.739,0.611c0.156,0,0.268-0.018,0.332-0.064
			c0.176-0.116,0.261-0.441,0.285-0.571c0.006-0.021,0.009-0.037,0.012-0.057c0.064,0.028,0.136,0.054,0.205,0.077
			c0.429,0.17,0.967,0.371,1.496,0.371c0.245,0,0.471-0.044,0.67-0.131c0.14-0.061,0.57-0.247,0.623-0.716
			c0.029-0.257-0.059-0.527-0.146-0.68c0.461-0.006,1.063-0.03,1.504-0.262c0.324-0.175,0.436-0.437,0.35-0.787
			c0.086,0.022,0.18,0.042,0.28,0.042c0.514,0,0.929-0.418,0.929-0.934c0-0.185-0.051-0.349-0.143-0.494
			c0.723-0.053,1.393-0.154,1.543-0.354c0.129-0.174,0.1-0.505,0.076-0.646c-0.002-0.013-0.004-0.031-0.004-0.044
			c0.066,0.001,0.141,0.001,0.217,0.001c0.123,0.009,0.248,0.009,0.385,0.009c0.555,0,1.256-0.057,1.738-0.502
			c0.111-0.105,0.455-0.422,0.352-0.889c-0.063-0.253-0.232-0.471-0.367-0.582c0.436-0.162,0.99-0.389,1.332-0.756
			c0.17-0.188,0.232-0.382,0.186-0.591c0.416-0.092,0.73-0.461,0.73-0.909c0-0.229-0.086-0.438-0.223-0.602
			c0.682-0.304,1.309-0.642,1.389-0.892c0.041-0.14-0.02-0.332-0.072-0.468c-0.008-0.008-0.055-0.117-0.1-0.201
			c0.064-0.024,0.135-0.046,0.205-0.071c0.619-0.211,1.467-0.495,1.824-1.198c0.068-0.136,0.283-0.552,0.02-0.95
			c-0.148-0.232-0.389-0.37-0.543-0.432c0.354-0.298,0.797-0.7,0.988-1.161c0.107-0.268,0.086-0.492-0.08-0.683
			c0.324-0.149,0.551-0.474,0.551-0.85c0-0.489-0.383-0.89-0.867-0.93c0.514-0.512,0.957-1.028,0.939-1.282
			c-0.014-0.198-0.254-0.454-0.396-0.566c0.053-0.044,0.111-0.093,0.17-0.142c0.504-0.413,1.193-0.979,1.279-1.765
			c0.018-0.152,0.068-0.617-0.313-0.895c-0.258-0.188-0.561-0.21-0.66-0.21c0.221-0.407,0.496-0.94,0.512-1.44
			c0-0.095-0.01-0.179-0.033-0.256c0.137-0.042,0.266-0.086,0.355-0.114c0.76-0.239,1.518-0.476,2.086-0.658
			c0.309-0.099,0.527,0.096,0.541,0.239C172.652,50.22,172.58,53.056,171.838,56.656"/>
		<path fill="#010202" d="M179.861,30.093v6.337c0,0.257,0.012,0.566,0.037,0.93c0.023,0.365,0.102,0.708,0.227,1.034
			c0.133,0.325,0.336,0.601,0.619,0.831c0.283,0.231,0.756,0.34,1.426,0.329c0.57,0,1.02-0.092,1.338-0.271
			c0.324-0.184,0.566-0.423,0.734-0.719c0.166-0.296,0.262-0.624,0.285-0.979c0.023-0.36,0.037-0.712,0.037-1.057v-6.436h1.133
			v6.454c0,0.446-0.029,0.895-0.086,1.339c-0.057,0.442-0.201,0.845-0.43,1.205c-0.23,0.359-0.576,0.648-1.043,0.873
			c-0.463,0.227-1.121,0.338-1.969,0.338c-1.035,0-1.771-0.1-2.215-0.297c-0.443-0.193-0.77-0.46-0.973-0.802
			c-0.209-0.337-0.332-0.737-0.375-1.197c-0.043-0.459-0.064-0.948-0.064-1.477l-0.031-6.436H179.861z"/>
		<polygon fill="#010202" points="187.607,30.093 189.537,30.093 193.756,38.221 193.785,38.221 193.785,30.093 194.988,30.093 
			194.988,40.13 193.568,40.13 188.836,31.209 188.809,31.209 188.809,40.13 187.607,40.13 		"/>
		<rect x="197.027" y="30.093" fill="#010202" width="1.252" height="10.037"/>
		<polygon fill="#010202" points="199.689,30.106 201.238,30.106 204.045,37.893 204.074,37.893 206.703,30.093 207.805,30.106 
			204.348,40.13 203.441,40.13 		"/>
		<polygon fill="#010202" points="214.318,40.13 209.1,40.13 209.1,30.093 214.189,30.093 214.189,30.893 210.361,30.893 
			210.361,34.444 213.99,34.444 213.99,35.285 210.361,35.285 210.361,39.263 214.318,39.263 		"/>
		<path fill="#010202" d="M222.133,40.13h-1.322l-2.498-4.763h-0.938v4.763h-1.334V30.093h2.697
			c0.439,0.006,0.852,0.049,1.238,0.117c0.391,0.067,0.729,0.186,1.018,0.363c0.295,0.179,0.523,0.425,0.688,0.753
			c0.17,0.324,0.254,0.747,0.254,1.261c-0.01,0.621-0.145,1.111-0.396,1.469c-0.262,0.359-0.508,0.601-0.875,0.803
			c-0.203,0.116-0.75,0.343-1.047,0.399L222.133,40.13z M217.375,34.492h0.77c0.307,0,0.602-0.014,0.889-0.042
			c0.285-0.032,0.547-0.102,0.775-0.218c0.227-0.114,0.414-0.293,0.551-0.535c0.139-0.244,0.213-0.699,0.213-1.111
			c0-0.651-0.172-1.109-0.51-1.377c-0.332-0.268-0.787-0.402-1.355-0.402h-1.332V34.492z"/>
		<path fill="#010202" d="M228.711,31.199c-0.836-0.388-1.514-0.476-2.252-0.476c-0.512,0-1.061,0.135-1.387,0.402
			c-0.322,0.268-0.488,0.632-0.488,1.09c0,0.39,0.119,0.717,0.361,0.982c0.238,0.265,0.527,0.504,0.877,0.719
			c0.352,0.21,0.73,0.419,1.141,0.617c0.414,0.193,0.795,0.404,1.15,0.637c0.354,0.228,0.643,0.522,0.881,0.88
			c0.234,0.358,0.352,0.814,0.352,1.368c0,0.517-0.098,0.953-0.287,1.313c-0.197,0.36-0.451,0.655-0.773,0.888
			c-0.328,0.237-0.697,0.405-1.123,0.512c-0.42,0.102-0.857,0.158-1.314,0.158c-0.248,0-0.502-0.014-0.752-0.034
			c-0.256-0.029-0.488-0.058-0.697-0.089c-0.209-0.035-0.395-0.067-0.545-0.103c-0.15-0.031-0.26-0.06-0.316-0.078v-1.088
			c0.811,0.397,1.596,0.549,2.51,0.549c1.287,0,2.023-0.689,2.023-1.797c0-0.411-0.121-0.742-0.352-0.996
			c-0.236-0.252-0.523-0.493-0.861-0.711c-0.338-0.218-0.707-0.427-1.107-0.624c-0.395-0.194-0.768-0.42-1.107-0.672
			c-0.344-0.254-0.629-0.55-0.861-0.888c-0.229-0.339-0.344-0.771-0.344-1.297c0-0.824,0.285-1.451,0.854-1.881
			c0.568-0.429,1.328-0.644,2.283-0.644c0.475,0,0.893,0.028,1.262,0.081c0.375,0.053,0.668,0.105,0.875,0.166V31.199z"/>
		<rect x="230.871" y="30.093" fill="#010202" width="1.246" height="10.037"/>
		<path fill="#010202" d="M233.924,30.093h1.602c0.76,0.006,1.457,0.065,2.104,0.172c0.645,0.102,1.201,0.328,1.67,0.667
			c0.467,0.342,0.834,0.828,1.098,1.462s0.393,1.486,0.393,2.542c0,1.315-0.137,2.283-0.406,2.921
			c-0.273,0.635-0.65,1.119-1.127,1.455c-0.48,0.335-1.039,0.553-1.693,0.658c-0.645,0.105-1.346,0.159-2.088,0.159h-1.551V30.093z
			 M235.186,39.354h0.746c1.137,0,1.986-0.317,2.549-0.944c0.566-0.631,0.85-1.776,0.85-3.43c0-0.582-0.055-1.118-0.154-1.61
			c-0.102-0.495-0.268-0.934-0.508-1.326c-0.236-0.395-0.566-0.691-0.973-0.891c-0.414-0.2-0.928-0.3-1.549-0.3h-0.961V39.354z"/>
		<path fill="#010202" d="M242.117,40.13l-1.104-0.014l3.559-10.023h0.84l3.65,10.023h-1.48c-0.096-0.259-0.207-0.568-0.34-0.935
			c-0.129-0.363-0.252-0.712-0.377-1.046c-0.145-0.384-0.291-0.782-0.443-1.205h-3.17L242.117,40.13z M246.223,36.202l-1.352-3.873
			h-0.029l-1.361,3.873H246.223z"/>
		<path fill="#010202" d="M250.211,30.093h1.607c0.756,0.006,1.459,0.065,2.104,0.172c0.645,0.102,1.199,0.328,1.67,0.667
			c0.465,0.342,0.832,0.828,1.094,1.462c0.266,0.634,0.396,1.486,0.396,2.542c0,1.315-0.137,2.283-0.41,2.921
			c-0.271,0.635-0.646,1.119-1.127,1.455c-0.473,0.335-1.039,0.553-1.689,0.658c-0.652,0.105-1.35,0.159-2.096,0.159h-1.549V30.093z
			 M251.479,39.354h0.744c1.137,0,1.99-0.317,2.547-0.944c0.564-0.631,0.848-1.776,0.848-3.43c0-0.582-0.049-1.118-0.152-1.61
			c-0.096-0.495-0.27-0.934-0.504-1.326c-0.24-0.395-0.563-0.691-0.979-0.891c-0.412-0.2-0.924-0.3-1.547-0.3h-0.957V39.354z"/>
		<polygon fill="#010202" points="178.6,45.495 180.531,45.495 184.748,53.626 184.779,53.626 184.779,45.495 185.984,45.495 
			185.984,55.535 184.563,55.535 179.832,46.615 179.801,46.615 179.801,55.535 178.6,55.535 		"/>
		<polygon fill="#010202" points="216.152,45.495 218.08,45.495 222.299,53.626 222.33,53.626 222.33,45.495 223.535,45.495 
			223.535,55.535 222.115,55.535 217.381,46.615 217.354,46.615 217.354,55.535 216.152,55.535 		"/>
		<path fill="#010202" d="M188.422,55.506l-1.105-0.013l3.559-10.023h0.838l3.654,10.023h-1.484
			c-0.094-0.257-0.207-0.572-0.338-0.935c-0.125-0.362-0.254-0.708-0.379-1.043c-0.143-0.384-0.293-0.784-0.443-1.207h-3.17
			L188.422,55.506z M192.523,51.58l-1.35-3.872h-0.027l-1.361,3.872H192.523z"/>
		<path fill="#010202" d="M225.98,55.506l-1.102-0.013l3.553-10.023h0.838l3.656,10.023h-1.482c-0.098-0.257-0.211-0.572-0.34-0.935
			c-0.127-0.362-0.256-0.708-0.379-1.043c-0.143-0.384-0.293-0.784-0.443-1.207h-3.168L225.98,55.506z M230.078,51.58l-1.348-3.872
			h-0.027l-1.361,3.872H230.078z"/>
		<path fill="#010202" d="M199.65,54.921c0.633-0.017,1.115-0.093,1.451-0.23c0.332-0.141,0.613-0.27,0.842-0.386v1.075
			c-0.055,0.022-0.16,0.046-0.316,0.074c-0.15,0.027-0.334,0.06-0.539,0.096c-0.213,0.031-0.441,0.061-0.689,0.083
			c-0.25,0.026-0.498,0.036-0.748,0.036c-0.756,0-1.381-0.127-1.871-0.38c-0.49-0.255-0.883-0.606-1.17-1.062
			c-0.297-0.451-0.498-1.01-0.619-1.669c-0.119-0.659-0.18-1.356-0.18-2.094c0-0.785,0.064-1.493,0.193-2.125
			c0.129-0.629,0.346-1.165,0.635-1.602c0.299-0.44,0.689-0.778,1.18-1.019c0.486-0.239,1.098-0.362,1.832-0.362
			c0.213,0.015,0.443,0.028,0.689,0.052c0.25,0.026,0.479,0.054,0.688,0.09c0.211,0.031,0.391,0.063,0.549,0.091
			c0.15,0.028,0.254,0.054,0.313,0.07v1.103c-0.23-0.112-0.514-0.238-0.846-0.378c-0.336-0.141-0.764-0.217-1.295-0.235
			c-0.59-0.017-1.043,0.106-1.355,0.381c-0.314,0.271-0.553,0.616-0.703,1.035c-0.154,0.423-0.248,0.892-0.287,1.406
			c-0.039,0.518-0.059,1.023-0.059,1.509c0,0.437,0.018,0.934,0.053,1.475c0.029,0.547,0.121,1.034,0.271,1.463
			c0.146,0.431,0.379,0.789,0.691,1.078C198.678,54.781,199.107,54.921,199.65,54.921"/>
		<rect x="203.85" y="45.474" fill="#010202" width="1.248" height="10.04"/>
		<path fill="#010202" d="M210.641,55.669c-0.758,0-1.377-0.127-1.873-0.38c-0.492-0.255-0.885-0.606-1.176-1.062
			c-0.289-0.451-0.494-1.01-0.615-1.669c-0.119-0.659-0.18-1.356-0.18-2.094c0-0.785,0.064-1.493,0.195-2.125
			c0.125-0.629,0.338-1.165,0.639-1.602c0.293-0.44,0.688-0.778,1.176-1.019c0.486-0.239,1.098-0.362,1.834-0.362
			c0.734,0,1.348,0.134,1.834,0.392c0.488,0.258,0.877,0.612,1.168,1.066c0.293,0.455,0.498,0.994,0.621,1.613
			c0.129,0.62,0.188,1.297,0.188,2.036c0,0.783-0.064,1.507-0.189,2.171c-0.131,0.664-0.34,1.215-0.631,1.659
			c-0.295,0.438-0.684,0.775-1.172,1.012C211.973,55.55,211.367,55.669,210.641,55.669 M210.641,54.921
			c0.533,0,0.955-0.133,1.262-0.407c0.305-0.271,0.537-0.616,0.688-1.039c0.154-0.419,0.248-0.905,0.287-1.455
			c0.039-0.546,0.059-1.064,0.059-1.539c0-0.441-0.02-0.92-0.053-1.434c-0.033-0.52-0.127-0.991-0.281-1.42
			c-0.152-0.432-0.381-0.79-0.688-1.075c-0.307-0.289-0.73-0.433-1.273-0.433c-0.527,0-0.949,0.137-1.262,0.411
			c-0.314,0.271-0.551,0.616-0.705,1.035c-0.152,0.423-0.25,0.892-0.285,1.406c-0.039,0.518-0.057,1.023-0.057,1.509
			c0,0.437,0.016,0.934,0.049,1.475c0.033,0.547,0.125,1.034,0.275,1.463c0.145,0.431,0.379,0.789,0.691,1.078
			C209.666,54.781,210.094,54.921,210.641,54.921"/>
		<polygon fill="#010202" points="235.6,45.474 235.6,54.676 239.098,54.676 239.098,55.514 234.309,55.514 234.309,45.474 		"/>
		<polygon fill="#010202" points="191.975,70.892 186.754,70.892 186.754,60.858 191.844,60.858 191.844,61.655 188.018,61.655 
			188.018,65.208 191.645,65.208 191.645,66.052 188.018,66.052 188.018,70.025 191.975,70.025 		"/>
		<path fill="#010202" d="M204.127,70.892l-1.105-0.011l3.557-10.022h0.842l3.652,10.022h-1.48
			c-0.096-0.262-0.213-0.566-0.336-0.934c-0.135-0.362-0.26-0.711-0.383-1.048c-0.143-0.379-0.293-0.78-0.445-1.203h-3.168
			L204.127,70.892z M208.229,66.963l-1.35-3.869h-0.027l-1.363,3.869H208.229z"/>
		<path fill="#010202" d="M229.688,70.892l-1.104-0.011l3.557-10.022h0.84l3.654,10.022h-1.482c-0.1-0.262-0.213-0.566-0.34-0.934
			c-0.129-0.362-0.256-0.711-0.381-1.048c-0.145-0.379-0.293-0.78-0.443-1.203h-3.168L229.688,70.892z M233.785,66.963l-1.346-3.869
			h-0.031l-1.361,3.869H233.785z"/>
		<path fill="#010202" d="M242.982,70.892l-1.107-0.011l3.559-10.022h0.84l3.654,10.022h-1.479
			c-0.104-0.262-0.215-0.566-0.342-0.934c-0.129-0.362-0.256-0.711-0.381-1.048c-0.143-0.379-0.291-0.78-0.443-1.203h-3.17
			L242.982,70.892z M247.084,66.963l-1.352-3.869h-0.027l-1.361,3.869H247.084z"/>
		<polygon fill="#010202" points="199.141,60.858 199.141,70.059 202.637,70.059 202.637,70.894 197.848,70.894 197.848,60.858 		
			"/>
		<polygon fill="#010202" points="224.584,60.858 224.584,70.059 228.082,70.059 228.082,70.894 223.291,70.894 223.291,60.858 		
			"/>
		<path fill="#010202" d="M178.6,60.858h1.605c0.758,0.008,1.457,0.063,2.1,0.173c0.646,0.104,1.203,0.326,1.672,0.665
			c0.467,0.339,0.832,0.828,1.094,1.461c0.264,0.64,0.396,1.487,0.396,2.545c0,1.314-0.137,2.286-0.408,2.92
			c-0.275,0.631-0.646,1.122-1.123,1.456c-0.479,0.333-1.045,0.553-1.697,0.658c-0.648,0.105-1.348,0.155-2.092,0.155H178.6V60.858z
			 M179.861,70.12h0.746c1.137,0,1.986-0.318,2.551-0.947c0.566-0.632,0.848-1.772,0.848-3.426c0-0.585-0.053-1.123-0.15-1.615
			c-0.1-0.49-0.271-0.93-0.514-1.323c-0.234-0.394-0.559-0.689-0.975-0.89c-0.408-0.202-0.926-0.302-1.545-0.302h-0.961V70.12z"/>
		<polygon fill="#010202" points="242.891,61.738 239.891,61.738 239.891,70.892 238.559,70.892 238.559,61.738 235.633,61.738 
			235.633,60.858 242.891,60.858 		"/>
		<path fill="#010202" d="M217.42,66.642v4.239h-1.334V60.858h1.979c0.514,0,0.885,0,1.387,0.028
			c1.805,0.085,2.678,1.29,2.678,2.863c0,1.574-0.873,2.778-2.678,2.864c-0.502,0.027-0.873,0.027-1.387,0.027H217.42z
			 M217.42,65.882h0.555c0.273,0,0.635,0,0.916-0.028c1.336-0.1,1.865-0.945,1.865-2.104c0-1.159-0.529-2.004-1.865-2.105
			c-0.281-0.029-0.643-0.029-0.916-0.029h-0.555V65.882z"/>
		<path fill="#010202" d="M129.143,69.447c0.159-0.127,0.219-0.279,0.182-0.444c-0.039-0.157-0.139-0.342-0.319-0.561l-0.336-0.427
			l-1.408,1.128l0.303,0.382l0.582-0.465l0.033,0.04c0.146,0.185,0.3,0.322,0.452,0.41
			C128.797,69.606,128.975,69.585,129.143,69.447 M128.624,69.126c-0.072-0.027-0.15-0.091-0.231-0.192l-0.034-0.043l0.4-0.321
			l0.034,0.041c0.087,0.114,0.139,0.206,0.148,0.272c0.008,0.064-0.025,0.125-0.097,0.185
			C128.757,69.134,128.683,69.154,128.624,69.126"/>
		<path fill="#010202" d="M130.182,71.096c0.2-0.202,0.31-0.412,0.319-0.638c0.013-0.226-0.089-0.448-0.306-0.663
			c-0.217-0.219-0.439-0.327-0.662-0.313c-0.219,0.012-0.434,0.117-0.639,0.32c-0.204,0.202-0.309,0.417-0.323,0.64
			c-0.009,0.225,0.094,0.446,0.308,0.66c0.183,0.188,0.372,0.291,0.562,0.312c0.032,0,0.068,0.004,0.1,0
			C129.765,71.402,129.979,71.296,130.182,71.096 M130.11,70.307c-0.035,0.131-0.133,0.274-0.287,0.43
			c-0.157,0.155-0.301,0.249-0.429,0.289c-0.043,0.007-0.083,0.014-0.123,0.007c-0.074-0.002-0.144-0.042-0.211-0.11
			c-0.098-0.099-0.127-0.207-0.093-0.33c0.037-0.134,0.132-0.277,0.285-0.431c0.159-0.153,0.305-0.253,0.434-0.285
			c0.041-0.013,0.079-0.018,0.121-0.013c0.073,0.01,0.14,0.045,0.209,0.112C130.113,70.074,130.146,70.185,130.11,70.307"/>
		<path fill="#010202" d="M131.298,70.835l-0.384-0.349l-1.205,1.342l0.363,0.324l0.501-0.558l0.057,0.055
			c0.098,0.089,0.153,0.168,0.153,0.229c0,0.073-0.042,0.182-0.118,0.327l-0.177,0.319l0.364,0.328l0.245-0.47
			c0.063-0.119,0.095-0.22,0.103-0.31c0.007-0.052-0.008-0.107-0.035-0.168c0.084,0.032,0.161,0.041,0.229,0.037
			c0.106-0.009,0.192-0.053,0.261-0.13c0.134-0.147,0.158-0.301,0.075-0.472C131.65,71.19,131.504,71.019,131.298,70.835
			 M131.277,71.508c-0.069,0.074-0.142,0.101-0.21,0.085c-0.083-0.023-0.18-0.08-0.292-0.18l-0.02-0.021l0.337-0.374l0.026,0.021
			c0.107,0.1,0.179,0.184,0.216,0.261C131.364,71.363,131.346,71.43,131.277,71.508"/>
		<polygon fill="#010202" points="132.084,73.438 132.991,72.236 132.605,71.943 131.516,73.377 132.524,74.144 132.701,73.906 		
			"/>
		<path fill="#010202" d="M132.59,74.186l0.386,0.231l0.415-0.318l0.547,0.334l-0.098,0.51l0.445,0.269l0.284-1.937l-0.396-0.24
			L132.59,74.186z M133.994,74.147l-0.375-0.226l0.491-0.381L133.994,74.147z"/>
		
			<rect x="135.911" y="75.172" transform="matrix(0.331 -0.9436 0.9436 0.331 20.365 179.5563)" fill="#010202" width="1.803" height="0.487"/>
		<polygon fill="#010202" points="138.746,75.394 138.833,75.115 137.584,74.731 137.054,76.457 138.33,76.848 138.417,76.562 
			137.607,76.312 137.754,75.842 138.494,76.07 138.579,75.795 137.84,75.566 137.963,75.15 		"/>
		<polygon fill="#010202" points="139.903,76.581 139.471,75.281 138.986,75.165 138.552,76.911 138.956,77.012 139.254,75.83 
			139.706,77.198 140.159,77.307 140.588,75.559 140.185,75.456 		"/>
		
			<rect x="142.31" y="75.916" transform="matrix(-0.9893 -0.1459 0.1459 -0.9893 272.3767 173.6101)" fill="#010202" width="0.489" height="1.801"/>
		<path fill="#010202" d="M143.692,76.048l-0.934,1.721l0.452,0.046l0.234-0.465l0.636,0.063l0.132,0.505l0.518,0.048l-0.581-1.867
			L143.692,76.048z M143.572,77.088l0.278-0.55l0.155,0.597L143.572,77.088z"/>
		<polygon fill="#010202" points="146.92,76.211 146.495,76.802 146.079,76.211 145.512,76.211 146.204,77.184 146.204,78.014 
			146.688,78.014 146.688,77.184 147.416,76.211 		"/>
		<polygon fill="#010202" points="155.057,76.15 154.543,74.737 154.086,74.903 154.703,76.599 155.889,76.165 155.785,75.883 		"/>
		<path fill="#010202" d="M155.863,74.202l0.041,1.952l0.416-0.18l-0.025-0.521l0.584-0.263l0.364,0.375l0.472-0.212l-1.425-1.34
			L155.863,74.202z M156.277,75.16l-0.029-0.616l0.428,0.44L156.277,75.16z"/>
		<path fill="#010202" d="M158.508,72.817c-0.154,0.025-0.348,0.114-0.574,0.266l-0.452,0.294l0.995,1.505l0.408-0.268l-0.41-0.622
			l0.045-0.029c0.193-0.131,0.344-0.269,0.445-0.415c0.105-0.159,0.102-0.327-0.02-0.514
			C158.834,72.863,158.691,72.791,158.508,72.817 M158.585,73.526c-0.036,0.066-0.11,0.139-0.22,0.211l-0.043,0.029l-0.281-0.427
			l0.043-0.032c0.119-0.077,0.211-0.116,0.285-0.119c0.061-0.002,0.115,0.032,0.168,0.112
			C158.6,73.393,158.615,73.467,158.585,73.526"/>
		<path fill="#010202" d="M159.123,72.297l0.434,1.901l0.367-0.26l-0.129-0.507l0.52-0.371l0.432,0.29l0.422-0.304l-1.67-1.022
			L159.123,72.297z M160.072,72.896l-0.354,0.255l-0.154-0.601L160.072,72.896z"/>
		<polygon fill="#010202" points="161.232,71.039 161.049,70.817 159.908,71.77 160.092,71.99 160.479,71.67 161.445,72.836 
			161.822,72.521 160.852,71.358 		"/>
		<path fill="#010202" d="M162.691,70.581c-0.059-0.008-0.113,0-0.18,0.024c0.039-0.082,0.061-0.158,0.059-0.227
			c0-0.104-0.037-0.194-0.111-0.268c-0.135-0.144-0.289-0.178-0.461-0.107c-0.158,0.063-0.342,0.193-0.543,0.384l-0.369,0.362
			l1.246,1.3l0.35-0.334l-0.518-0.545l0.059-0.05c0.094-0.091,0.172-0.143,0.24-0.136c0.07,0.009,0.174,0.054,0.313,0.141
			l0.311,0.199l0.354-0.335l-0.451-0.283C162.871,70.637,162.771,70.595,162.691,70.581 M162.197,70.677
			c-0.025,0.084-0.096,0.175-0.199,0.277l-0.021,0.022l-0.352-0.367l0.023-0.022c0.104-0.101,0.195-0.166,0.275-0.196
			c0.064-0.024,0.131-0.003,0.203,0.073C162.197,70.535,162.219,70.605,162.197,70.677"/>
		<polygon fill="#010202" points="162.242,69.613 163.561,70.838 163.895,70.483 162.574,69.253 		"/>
		<path fill="#010202" d="M163.072,68.687l0.908,1.729l0.289-0.349l-0.256-0.454l0.412-0.494l0.482,0.173l0.336-0.401l-1.875-0.563
			L163.072,68.687z M164.146,69.023l-0.279,0.339l-0.299-0.542L164.146,69.023z"/>
		<path fill="#010202" d="M141.856,75.761c-0.068-0.022-0.146-0.044-0.229-0.058c-0.283-0.06-0.504-0.023-0.666,0.106
			c-0.156,0.123-0.266,0.328-0.324,0.61c-0.03,0.142-0.04,0.271-0.026,0.398c0.015,0.124,0.049,0.241,0.106,0.344
			c0.053,0.106,0.131,0.198,0.223,0.269c0.094,0.069,0.204,0.122,0.339,0.146c0.033,0.008,0.068,0.014,0.104,0.018l0.033,0.005
			c0.048,0.003,0.092,0.006,0.13,0.006c0.038,0.004,0.072,0.004,0.101,0.004c0.036,0,0.062,0,0.074-0.004l0.088-0.011l0.083-0.46
			l-0.187,0.049c-0.04,0.011-0.091,0.025-0.149,0.033c-0.043,0.008-0.096,0.008-0.159,0l-0.026-0.002
			c-0.063-0.015-0.109-0.039-0.147-0.074c-0.04-0.043-0.071-0.089-0.09-0.147c-0.022-0.064-0.037-0.138-0.037-0.218
			c0-0.09,0.012-0.184,0.035-0.278c0.014-0.089,0.039-0.173,0.061-0.247c0.02-0.064,0.044-0.112,0.071-0.148
			c0.023-0.028,0.048-0.047,0.083-0.06c0.042-0.011,0.098-0.011,0.163,0c0.042,0.01,0.075,0.021,0.106,0.031
			c0.036,0.015,0.072,0.028,0.104,0.041c0.029,0.016,0.054,0.029,0.081,0.043l0.021,0.016c0.017,0.01,0.032,0.021,0.045,0.027
			l0.156,0.1l0.078-0.444l-0.091-0.039C141.975,75.802,141.92,75.781,141.856,75.761"/>
		<path fill="#010202" d="M135.699,74.555c0.032-0.057,0.063-0.099,0.099-0.13c0.027-0.021,0.057-0.036,0.095-0.039
			c0.042-0.008,0.093,0.003,0.157,0.031c0.036,0.016,0.065,0.029,0.1,0.051c0.034,0.02,0.064,0.038,0.093,0.06
			c0.023,0.021,0.051,0.039,0.069,0.056c0.017,0.015,0.03,0.027,0.043,0.038l0.149,0.143l0.165-0.421l-0.081-0.052
			c-0.038-0.024-0.084-0.052-0.142-0.089c-0.063-0.031-0.134-0.066-0.215-0.098c-0.263-0.112-0.491-0.121-0.672-0.027
			c-0.18,0.094-0.326,0.273-0.436,0.537c-0.057,0.132-0.092,0.262-0.102,0.385c-0.011,0.129,0,0.25,0.03,0.363
			c0.038,0.113,0.095,0.216,0.171,0.303c0.079,0.089,0.182,0.161,0.301,0.211c0.043,0.018,0.089,0.035,0.134,0.05
			c0.046,0.011,0.089,0.026,0.127,0.031c0.028,0.006,0.054,0.01,0.078,0.018l0.052,0.011c0.022,0.004,0.034,0.004,0.042,0.008h0.09
			l0.169-0.43l-0.189,0.009c-0.046,0.006-0.094,0.006-0.155,0.006c-0.02,0-0.04,0-0.06-0.01c-0.039-0.005-0.08-0.016-0.119-0.028
			c-0.061-0.026-0.105-0.063-0.132-0.103c-0.032-0.047-0.054-0.101-0.061-0.16c-0.01-0.066-0.007-0.143,0.01-0.221
			c0.015-0.09,0.042-0.181,0.083-0.272C135.624,74.699,135.664,74.621,135.699,74.555"/>
		<path fill="#010202" d="M149.975,76.497c-0.024-0.201-0.124-0.332-0.284-0.385c-0.153-0.054-0.364-0.061-0.646-0.029l-0.535,0.066
			l0.217,1.788l0.486-0.057l-0.092-0.74l0.053-0.006c0.231-0.025,0.428-0.086,0.588-0.171C149.927,76.873,150,76.715,149.975,76.497
			 M149.429,76.775c-0.064,0.045-0.159,0.072-0.288,0.086l-0.054,0.012l-0.059-0.507l0.052-0.007
			c0.143-0.021,0.245-0.015,0.309,0.016c0.055,0.027,0.088,0.082,0.099,0.177C149.502,76.661,149.484,76.735,149.429,76.775"/>
		<path fill="#010202" d="M151.888,76.462c-0.064-0.279-0.19-0.484-0.373-0.61c-0.185-0.131-0.429-0.157-0.724-0.088
			c-0.303,0.071-0.507,0.203-0.618,0.397c-0.103,0.194-0.125,0.434-0.064,0.712c0.069,0.281,0.194,0.482,0.378,0.614
			c0.187,0.126,0.429,0.153,0.723,0.083c0.253-0.061,0.44-0.166,0.558-0.315c0.022-0.026,0.04-0.057,0.056-0.086
			C151.93,76.976,151.955,76.735,151.888,76.462 M151.182,76.106c0.09,0.098,0.162,0.257,0.213,0.467
			c0.049,0.216,0.056,0.391,0.02,0.521c-0.016,0.04-0.03,0.074-0.055,0.105c-0.049,0.06-0.115,0.1-0.207,0.121
			c-0.137,0.031-0.245,0-0.332-0.09c-0.093-0.104-0.164-0.264-0.217-0.475c-0.046-0.21-0.056-0.387-0.013-0.515
			c0.007-0.042,0.027-0.077,0.052-0.109c0.046-0.06,0.114-0.099,0.205-0.119C150.984,75.983,151.092,76.01,151.182,76.106"/>
		<path fill="#010202" d="M152.336,75.443l-0.498,0.144l0.518,1.729l0.467-0.141l-0.219-0.714l0.076-0.025
			c0.128-0.034,0.223-0.039,0.279-0.004c0.061,0.035,0.131,0.124,0.211,0.267l0.184,0.319l0.471-0.142l-0.272-0.451
			c-0.071-0.119-0.138-0.2-0.212-0.25c-0.039-0.032-0.096-0.053-0.166-0.062c0.074-0.056,0.127-0.112,0.156-0.176
			c0.049-0.092,0.054-0.189,0.023-0.287c-0.056-0.19-0.178-0.292-0.361-0.311C152.822,75.326,152.599,75.362,152.336,75.443
			 M152.895,75.813c0.031,0.098,0.016,0.172-0.036,0.221c-0.06,0.059-0.159,0.115-0.302,0.155l-0.03,0.006l-0.145-0.481l0.032-0.011
			c0.139-0.042,0.252-0.06,0.334-0.049C152.818,75.665,152.865,75.714,152.895,75.813"/>
	</g>
	<rect x="107.349" y="17.837" fill="#010202" width="1.192" height="64.983"/>
</g>
</svg>
